<svg id="Capa_1" data-name="Capa 1" xmlns="http://www.w3.org/2000/svg" viewBox="0 0 202.03 400.75"><defs><style>.cls-1{opacity:0.36;}.cls-2{fill:#a7a6a6;}</style></defs><title>insumos</title><g class="cls-1"><path class="cls-2" d="M70.54,389.65a8.33,8.33,0,0,1-6.28-2.88,9.58,9.58,0,0,1-1.72-3.09l-1.31-3.31L56,367.14,45.45,340.67l-1.31-3.31A22.35,22.35,0,0,1,43,334a14.22,14.22,0,0,1,9.84-16.81,14.63,14.63,0,0,1,3.53-.58l3.56-.05,7.12-.08,14.24-.17,28.48-.33L124,315.8l7.12-.08,1.78,0h.89c.32,0,.53,0,.66-.22a2.47,2.47,0,0,0,.13-.8l.09-.88.16-1.78,5.41-56.7,1.35-14.17.68-7.09.34-3.55a27.68,27.68,0,0,1,.44-3.56,8.54,8.54,0,0,1,4.48-5.51,8.84,8.84,0,0,1,1.72-.62c.6-.14,1.19-.23,1.77-.32,1.17-.19,2.34-.39,3.5-.62,2.32-.44,4.63-1,6.9-1.65a47.19,47.19,0,0,0,6.66-2.4,26.57,26.57,0,0,0,6-3.61,15.12,15.12,0,0,0,2.42-2.51,9.35,9.35,0,0,0,1.49-3.1,13,13,0,0,0-.16-6.89,28.27,28.27,0,0,0-2.72-6.48c-.58-1-1.19-2-1.87-3-.33-.5-.68-.93-1.05-1.44a9.57,9.57,0,0,1-.9-1.58l-3.08-6.43-2.89-6.52c-.93-2.18-1.8-4.4-2.7-6.59a234.81,234.81,0,0,1-8.8-27.11,199.41,199.41,0,0,1-5.26-28A107.06,107.06,0,0,0,141,85.3a96.56,96.56,0,0,0-14.92-24A102.48,102.48,0,0,0,105,42.47l-3-2-3-1.83c-2-1.27-4.12-2.32-6.19-3.47-4.22-2.14-8.5-4.16-12.91-5.87a151.74,151.74,0,0,0-27.24-7.85c-2.33-.43-4.66-.82-7-1.13-1.18-.15-2.33-.28-3.53-.39l-3.54-.45c-4.7-.56-9.42-1.05-14.15-1.43s-9.45-.7-14.18-.87q-3.55-.13-7.1-.15c-1.2,0-2.34,0-3.59,0a8.75,8.75,0,0,1-3.63-1,8.92,8.92,0,0,1-4.45-5.86A8.86,8.86,0,0,1-6.95,3,8.77,8.77,0,0,1-.47-.54C2-.6,4.31-.56,6.7-.51c9.51.23,19,1,28.45,2,2.36.25,4.72.53,7.08.82s4.72.55,7.07,1q7.06,1.11,14,2.86t13.71,4l3.37,1.19c1.12.38,2.24.8,3.34,1.24L87,13.8l3.28,1.41a145.72,145.72,0,0,1,25,13.72A123.73,123.73,0,0,1,136.88,47.6,110.77,110.77,0,0,1,153.23,71a118.87,118.87,0,0,1,10,26.69l.82,3.48.41,1.73.3,1.76,1.18,7a138.17,138.17,0,0,0,2.19,14,221.67,221.67,0,0,0,18.4,53.65l0,0a47.51,47.51,0,0,1,8.29,18,29.64,29.64,0,0,1,.47,9.94,27.07,27.07,0,0,1-3,9.48,29,29,0,0,1-6.22,7.76,39.94,39.94,0,0,1-8.25,5.56,63.44,63.44,0,0,1-9.19,3.79,96.21,96.21,0,0,1-9.61,2.51l.18-.2L154.76,281l-2.18,22.41-1.09,11.21a28.67,28.67,0,0,1-.87,5.58,16.92,16.92,0,0,1-2.49,5.08,17.3,17.3,0,0,1-9,6.51,19.62,19.62,0,0,1-5.59.75l-5.63.05-22.52.22-45,.45,0-.08,11.9,30.08,5.94,15a8.32,8.32,0,0,1-.8,7.74A8.28,8.28,0,0,1,70.54,389.65Zm0,0A8.3,8.3,0,0,0,77.39,386a8.28,8.28,0,0,0,.78-7.72l-6-15-12-30.06,0-.08h.09l45-.53,22.52-.26,5.63-.07a19.07,19.07,0,0,0,5.53-.74,17.1,17.1,0,0,0,8.88-6.43,16.54,16.54,0,0,0,2.44-5,28.43,28.43,0,0,0,.85-5.53l1.07-11.21,2.13-22.42,4.27-44.84,0-.16.16,0c3.22-.7,6.42-1.5,9.56-2.51a63.58,63.58,0,0,0,9.11-3.78,39.44,39.44,0,0,0,8.13-5.51,28.11,28.11,0,0,0,6.1-7.63,26.37,26.37,0,0,0,2.95-9.29,28.91,28.91,0,0,0-.48-9.77A46.81,46.81,0,0,0,186,179.66l0,0v0a222.49,222.49,0,0,1-18.55-53.77c-.93-4.66-1.76-9.37-2.22-14.09l-1.19-7-.3-1.75-.41-1.73-.82-3.45a117.84,117.84,0,0,0-10-26.5,109.73,109.73,0,0,0-16.26-23.15,123.2,123.2,0,0,0-21.44-18.49A144.82,144.82,0,0,0,89.94,16.09L86.67,14.7l-3.31-1.28q-1.65-.66-3.33-1.23L76.68,11Q69.94,8.79,63.05,7.07C58.46,5.92,53.81,5,49.14,4.25c-2.33-.39-4.68-.61-7-.93S37.39,2.75,35,2.51C25.61,1.52,16.14.82,6.67.61,4.32.57,1.91.53-.4.59a7.66,7.66,0,0,0-5.66,3A7.76,7.76,0,0,0-7.44,9.92a7.83,7.83,0,0,0,3.89,5.14A7.69,7.69,0,0,0-.38,16C.74,16,2,16,3.15,16q3.57,0,7.14.16c4.75.19,9.5.5,14.23.9s9.47.89,14.18,1.47l3.53.45c1.16.11,2.37.25,3.55.4,2.36.31,4.71.72,7,1.15a151.81,151.81,0,0,1,27.4,8c4.44,1.73,8.75,3.77,13,5.93,2.08,1.16,4.21,2.23,6.23,3.51l3,1.85,3,2a103,103,0,0,1,21.22,19,96.48,96.48,0,0,1,15,24.22,107.88,107.88,0,0,1,7.61,27.48,197.87,197.87,0,0,0,5.19,27.93,233.47,233.47,0,0,0,8.72,27c.9,2.19,1.76,4.4,2.68,6.59l2.87,6.5,3.07,6.42a9.59,9.59,0,0,0,.84,1.51c.33.45.73.95,1.06,1.44.68,1,1.31,2,1.89,3a29.14,29.14,0,0,1,2.76,6.62,13.56,13.56,0,0,1,.15,7.18A10,10,0,0,1,177,210a15.07,15.07,0,0,1-2.52,2.59,26.71,26.71,0,0,1-6.15,3.69,49,49,0,0,1-6.73,2.41c-2.29.66-4.61,1.2-7,1.64-1.16.24-2.34.44-3.51.62-.59.09-1.18.18-1.73.31a7.65,7.65,0,0,0-1.62.59,8,8,0,0,0-4.24,5.19,26,26,0,0,0-.44,3.49l-.35,3.54-.69,7.09-1.38,14.17-5.51,56.7-.17,1.77-.08.88,0,.45a1,1,0,0,1-.13.49.8.8,0,0,1-.44.32,2.09,2.09,0,0,1-.48,0h-.89l-1.78,0-7.12.07-14.24.14-28.48.28L67,316.65l-7.12.07c-2.37,0-4.77-.12-7,.61A14.05,14.05,0,0,0,43.1,334a21.45,21.45,0,0,0,1.14,3.36l1.31,3.31L56,367.12l5.23,13.24,1.31,3.31a9.55,9.55,0,0,0,1.71,3.09A8.27,8.27,0,0,0,70.54,389.65Z"/></g></svg>