<svg id="Capa_1" data-name="Capa 1" xmlns="http://www.w3.org/2000/svg" viewBox="0 0 43.79 43.95"><defs><style>.cls-1{fill:#bceaed;opacity:0.8;}.cls-2{fill:#003844;}</style></defs><title>insumos</title><circle class="cls-1" cx="21.89" cy="21.94" r="21.89"/><path class="cls-1" d="M39.31,8.67c7.33,9.62-27.5,36.15-34.83,26.53A21.89,21.89,0,0,1,39.31,8.67Z"/><path class="cls-2" d="M19.19,14.07c2.42,0,8.11,0,9.07.06a5.13,5.13,0,0,1,1.68.31,2.72,2.72,0,0,1,1,.68,2.78,2.78,0,0,1,.67,1A4.81,4.81,0,0,1,32,17.84c0,1,.05,1.25.05,3.67s0,2.7-.05,3.66a4.76,4.76,0,0,1-.32,1.68,2.82,2.82,0,0,1-.67,1,3,3,0,0,1-1,.68,5.13,5.13,0,0,1-1.68.31c-1,0-6.65.05-9.07.05s-2.7,0-3.66-.05a5.13,5.13,0,0,1-1.68-.31,3,3,0,0,1-1-.68,2.82,2.82,0,0,1-.67-1,4.76,4.76,0,0,1-.32-1.68c0-1-.05-1.24-.05-3.66s0-2.71.05-3.67a4.81,4.81,0,0,1,.32-1.68,2.78,2.78,0,0,1,.67-1,2.72,2.72,0,0,1,1-.68,5.13,5.13,0,0,1,1.68-.31c1-.05,1.24-.06,3.66-.06m0-1.63c-2.46,0-2.77,0-3.74.06a6.45,6.45,0,0,0-2.2.42,4.46,4.46,0,0,0-1.6,1,4.39,4.39,0,0,0-1.05,1.61,6.65,6.65,0,0,0-.42,2.2c0,1,0,1.27,0,3.74s0,2.77,0,3.74a6.7,6.7,0,0,0,.42,2.2,4.71,4.71,0,0,0,2.65,2.65,6.7,6.7,0,0,0,2.2.42c1,0,1.28.05,3.74.05s8.18,0,9.14-.05a6.59,6.59,0,0,0,2.2-.42,4.31,4.31,0,0,0,1.61-1.05,4.62,4.62,0,0,0,1-1.6,7,7,0,0,0,.42-2.2c0-1,0-1.28,0-3.74s0-2.77,0-3.74a6.91,6.91,0,0,0-.42-2.2,4.66,4.66,0,0,0-1-1.61,4.41,4.41,0,0,0-1.61-1,6.35,6.35,0,0,0-2.2-.42c-1-.05-6.67-.06-9.14-.06"/><polygon class="cls-2" points="19.93 16.94 19.93 25.17 26.75 21.05 19.93 16.94"/></svg>