<svg id="Capa_1" data-name="Capa 1" xmlns="http://www.w3.org/2000/svg" viewBox="0 0 1012.27 125.36"><defs><style>.cls-1{fill:#aacbdc;}.cls-2{font-size:8px;letter-spacing:0.07em;}.cls-10,.cls-11,.cls-14,.cls-2,.cls-22{fill:#fff;}.cls-10,.cls-2{font-family:Montserrat-Regular, Montserrat;}.cls-3{letter-spacing:0.01em;}.cls-4{letter-spacing:0.08em;}.cls-5{letter-spacing:0.05em;}.cls-6{opacity:0.8;}.cls-7{opacity:0.75;}.cls-8{fill:#d7d7d7;}.cls-9{opacity:0.82;}.cls-10{font-size:13px;letter-spacing:0.08em;}.cls-11{font-size:50.92px;}.cls-11,.cls-14{font-family:Montserrat-Bold, Montserrat;font-weight:700;}.cls-12{letter-spacing:-0.07em;}.cls-13{letter-spacing:-0.01em;}.cls-14{font-size:10.55px;}.cls-15{letter-spacing:-0.02em;}.cls-16{letter-spacing:-0.01em;}.cls-17{letter-spacing:-0.07em;}.cls-18{letter-spacing:-0.08em;}.cls-19{letter-spacing:0em;}.cls-20{letter-spacing:0em;}.cls-21,.cls-23{fill:none;stroke:#fff;stroke-miterlimit:10;}.cls-21{stroke-width:0.71px;}.cls-23{stroke-width:2.84px;}</style></defs><title>insumos</title><rect class="cls-1" x="-8.71" y="-9.71" width="1035.7" height="144.12"/><text class="cls-2" transform="translate(11.03 95.64)">RESUL<tspan class="cls-3" x="29.22" y="0">T</tspan><tspan class="cls-4" x="33.82" y="0">A</tspan><tspan class="cls-5" x="40.23" y="0">D</tspan><tspan x="46.92" y="0">OS.</tspan></text><g class="cls-6"><g class="cls-7"><path class="cls-8" d="M5.17,142.41A6.9,6.9,0,0,1,.05,130.89l19.08-21.18A6.9,6.9,0,1,1,29.38,119L10.3,140.13A6.88,6.88,0,0,1,5.17,142.41Z"/></g><g class="cls-9"><path class="cls-8" d="M43.34,142.49a6.86,6.86,0,0,1-5.13-2.29L19.13,119a6.9,6.9,0,0,1,10.26-9.24L48.47,131a6.91,6.91,0,0,1-5.13,11.53Z"/></g></g><g class="cls-6"><g class="cls-7"><path class="cls-8" d="M970,141.56A6.91,6.91,0,0,1,964.86,130l19.08-21.18a6.9,6.9,0,0,1,10.25,9.24l-19.08,21.18A6.86,6.86,0,0,1,970,141.56Z"/></g><g class="cls-9"><path class="cls-8" d="M1008.15,141.63a6.91,6.91,0,0,1-5.13-2.28l-19.08-21.18a6.9,6.9,0,0,1,10.26-9.24l19.08,21.18a6.9,6.9,0,0,1-5.13,11.52Z"/></g></g><text class="cls-10" transform="translate(981.53 98.97)">20</text><text class="cls-11" transform="translate(335.66 83.43)">RESUL<tspan class="cls-12" x="171.41" y="0">T</tspan><tspan x="198.86" y="0">A</tspan><tspan class="cls-13" x="238.22" y="0">D</tspan><tspan x="276.62" y="0">OS</tspan></text><text class="cls-14" transform="translate(320.8 39.65)">HIP<tspan class="cls-15" x="18.83" y="0">Ó</tspan><tspan x="27.07" y="0">TESIS</tspan></text><text class="cls-14" transform="translate(520.13 99.73)"> <tspan class="cls-16" x="3.17" y="0">C</tspan><tspan class="cls-17" x="10.38" y="0">A</tspan><tspan x="17.75" y="0">TEGORÍA</tspan></text><text class="cls-14" transform="translate(618.84 39.65)"><tspan xml:space="preserve"> SUB</tspan><tspan class="cls-16" x="25.54" y="0">C</tspan><tspan class="cls-18" x="32.76" y="0">A</tspan><tspan x="40.12" y="0">TEGORÍA</tspan></text><text class="cls-14" transform="translate(384.3 99.73)">ANÁLISIS</text><text class="cls-14" transform="translate(625.03 99.73)">HAL<tspan class="cls-19" x="22.38" y="0">L</tspan><tspan class="cls-20" x="28.35" y="0">AZGOS</tspan></text><path class="cls-21" d="M533.78,15.08s11.57-7.52,31.75-4.92c15.12,1.95,26.58,9.57,36.25,18.48,19.57,18,37.94,36.52,79.79,24.74"/><path class="cls-21" d="M617.51,56.48s11.88,7.4,23.63,8.74,25.06-.71,25.06-.71"/><path class="cls-22" d="M459.26,95.25a.19.19,0,0,0,0-.08,0,0,0,0,1,0,0l-.06-.08h0l-3.7-3.73h0a.16.16,0,0,0-.09,0l0,0-.08,0H443.37a.3.3,0,0,0-.3.31v19.32a.3.3,0,0,0,.3.31H459a.31.31,0,0,0,.3-.31V95.25Zm-1-.28h-2.67v-2.7Zm.43,15.6h-15V91.85H455v3.42a.29.29,0,0,0,.3.3h3.4Z"/><path class="cls-22" d="M455.94,96.25h-4.18a.25.25,0,0,0-.24.25v2.85a.24.24,0,0,0,.24.24h4.18a.25.25,0,0,0,.25-.24V96.5A.25.25,0,0,0,455.94,96.25Zm-.24,2.85H452V96.74h3.69Z"/><path class="cls-22" d="M455.94,100.58h-4.18a.24.24,0,0,0-.24.24.25.25,0,0,0,.24.25h4.18a.25.25,0,0,0,.25-.25A.24.24,0,0,0,455.94,100.58Z"/><path class="cls-22" d="M446.11,102.54h4.12a.25.25,0,0,0,0-.49h-4.12a.25.25,0,1,0,0,.49Z"/><path class="cls-22" d="M455.94,106.48h-4.18a.25.25,0,0,0,0,.49h4.18a.25.25,0,1,0,0-.49Z"/><path class="cls-22" d="M455.94,105h-4.18a.25.25,0,0,0,0,.49h4.18a.25.25,0,1,0,0-.49Z"/><path class="cls-22" d="M450.29,103.53h-4.18a.25.25,0,1,0,0,.49h4.18a.25.25,0,1,0,0-.49Z"/><path class="cls-22" d="M450.29,108h-4.18a.25.25,0,0,0-.25.25.25.25,0,0,0,.25.25h4.18a.26.26,0,0,0,.25-.25A.25.25,0,0,0,450.29,108Z"/><path class="cls-22" d="M454.39,108h-2.63a.25.25,0,0,0-.24.25.25.25,0,0,0,.24.25h2.63a.25.25,0,0,0,.24-.25A.25.25,0,0,0,454.39,108Z"/><path class="cls-22" d="M450.29,105h-4.18a.25.25,0,0,0-.25.25v1.48a.25.25,0,0,0,.25.24h4.18a.25.25,0,0,0,.25-.24v-1.48A.25.25,0,0,0,450.29,105Zm-.25,1.48h-3.69v-1H450Z"/><path class="cls-22" d="M455.94,102.05h-4.18a.25.25,0,0,0-.24.25v1.47a.25.25,0,0,0,.24.25h4.18a.25.25,0,0,0,.25-.25V102.3A.25.25,0,0,0,455.94,102.05Zm-.24,1.48H452v-1h3.69Z"/><path class="cls-22" d="M448.26,96.25a2.4,2.4,0,1,0,2.4,2.4A2.4,2.4,0,0,0,448.26,96.25Zm0,4.31a1.91,1.91,0,1,1,1.91-1.91A1.92,1.92,0,0,1,448.26,100.56Z"/><path class="cls-22" d="M449.25,98.4h-.74v-.74a.25.25,0,1,0-.5,0v.74h-.74a.25.25,0,1,0,0,.49H448v.76a.25.25,0,0,0,.5,0v-.76h.74a.24.24,0,0,0,.24-.24A.24.24,0,0,0,449.25,98.4Z"/><path class="cls-22" d="M586.23,31.13a1.47,1.47,0,0,0,0-.21V24.7a.27.27,0,0,0-.28-.27H568.1a.28.28,0,0,0-.28.27V40.84a.29.29,0,0,0,.28.28h17.3a.28.28,0,0,0,.27-.28.27.27,0,0,0-.27-.26h-17V27.68h17.29v3.45a.32.32,0,0,0,.29.31C586.14,31.44,586.22,31.29,586.23,31.13Zm-.29,5.61a.28.28,0,0,0-.27.28v3.56h-.55a.27.27,0,0,0-.28.26.28.28,0,0,0,.28.28H586a.28.28,0,0,0,.28-.28V37a.29.29,0,0,0-.26-.28Zm-17.56-9.6V25h17.29v2.16Z"/><path class="cls-22" d="M584.29,25.86a.28.28,0,0,0-.08.2.29.29,0,0,0,.08.19.28.28,0,0,0,.2.08.32.32,0,0,0,.2-.08.27.27,0,0,0,.08-.19.28.28,0,0,0-.08-.2A.33.33,0,0,0,584.29,25.86Z"/><path class="cls-22" d="M583,25.78a.28.28,0,1,0,.28.28A.27.27,0,0,0,583,25.78Z"/><path class="cls-22" d="M581.22,25.86a.28.28,0,0,0-.08.2.27.27,0,0,0,.08.19.28.28,0,0,0,.2.08.3.3,0,0,0,.2-.08.27.27,0,0,0,.08-.19.28.28,0,0,0-.08-.2A.33.33,0,0,0,581.22,25.86Z"/><path class="cls-22" d="M582.35,37.06a.57.57,0,0,1-.25-.06.44.44,0,0,1-.24-.33,1.12,1.12,0,0,1,.7-1.27,5.07,5.07,0,0,1,.81-.29L581,31.59a.73.73,0,0,1,.72-1.14.83.83,0,0,1,.49.35l1,1.61a.7.7,0,0,1,.64-.26.65.65,0,0,1,.35-.36.79.79,0,0,1,.61,0,.88.88,0,0,1,.43-.23.65.65,0,0,1,.71.26l1.24,1.86a1.41,1.41,0,0,1-.18,1.8c-.69.53-1.52,1.08-1.53,1.09a2.25,2.25,0,0,1-1.21,0,3.33,3.33,0,0,0-1.59.34A1.12,1.12,0,0,1,582.35,37.06Zm-.73-6.19a.29.29,0,0,0-.18.06c-.19.13-.06.41,0,.44l2.49,3.76a.21.21,0,0,1,0,.2.21.21,0,0,1-.16.13,4.87,4.87,0,0,0-1,.33.68.68,0,0,0-.46.8c.06.06.21,0,.29,0a3.8,3.8,0,0,1,1.84-.37,2.28,2.28,0,0,0,.93,0c.15-.1.87-.59,1.48-1.06s.09-1.2.08-1.24l-1.24-1.85a.25.25,0,0,0-.26-.08.49.49,0,0,0-.29.21.22.22,0,0,1-.32.06s-.2-.16-.36-.09-.15.21-.15.27a.21.21,0,0,1-.13.17.22.22,0,0,1-.21,0,.25.25,0,0,0-.26,0,.58.58,0,0,0-.17.27.23.23,0,0,1-.17.16.23.23,0,0,1-.22-.1L581.89,31A.36.36,0,0,0,581.62,30.87Z"/><path class="cls-22" d="M576.47,32.54l-.21,0a1.7,1.7,0,0,0,0-.22l.19-.09a.25.25,0,0,0,.11-.33l-.15-.31a.24.24,0,0,0-.33-.12l-.18.09-.15-.18.11-.17a.23.23,0,0,0-.06-.34l-.29-.2a.24.24,0,0,0-.34.06l-.12.17-.21-.08v-.2a.24.24,0,0,0-.22-.27l-.35,0a.26.26,0,0,0-.27.23l0,.21-.22,0-.09-.19a.26.26,0,0,0-.33-.12l-.32.16a.24.24,0,0,0-.11.33l.09.18-.18.15-.17-.12a.28.28,0,0,0-.18,0,.26.26,0,0,0-.16.11l-.2.28a.27.27,0,0,0,0,.19.27.27,0,0,0,.1.16l.17.12a1.29,1.29,0,0,0-.07.21l-.21,0a.26.26,0,0,0-.27.23l0,.35A.25.25,0,0,0,572,33l.21,0a2.07,2.07,0,0,0,0,.22l-.19.09a.29.29,0,0,0-.13.14.31.31,0,0,0,0,.19l.16.32a.21.21,0,0,0,.14.12.23.23,0,0,0,.18,0l.19-.09.15.18-.12.17a.24.24,0,0,0,.06.34l.29.2a.25.25,0,0,0,.35-.06l.12-.17.21.07,0,.21a.25.25,0,0,0,.23.27l.35,0a.24.24,0,0,0,.27-.22v-.21l.23,0,.09.19a.25.25,0,0,0,.33.11l.31-.15a.24.24,0,0,0,.12-.33l-.09-.18.17-.15.18.12a.24.24,0,0,0,.34-.06l.2-.29a.25.25,0,0,0-.06-.35l-.18-.12a.9.9,0,0,0,.08-.21l.21,0a.25.25,0,0,0,.26-.23l0-.35A.25.25,0,0,0,576.47,32.54Zm-.06.58-.3,0a.12.12,0,0,0-.14.1,1.66,1.66,0,0,1-.14.37.14.14,0,0,0,0,.17l.25.17-.19.27-.25-.18a.12.12,0,0,0-.16,0,2.51,2.51,0,0,1-.31.26.12.12,0,0,0,0,.16l.13.27-.29.14-.13-.27a.14.14,0,0,0-.16-.07,1.78,1.78,0,0,1-.39.07.15.15,0,0,0-.12.12l0,.3-.33,0,0-.31a.13.13,0,0,0-.1-.13,2.32,2.32,0,0,1-.37-.13.14.14,0,0,0-.17,0l-.17.25-.27-.19.18-.25a.14.14,0,0,0,0-.16,2.43,2.43,0,0,1-.26-.3.13.13,0,0,0-.16,0l-.28.13-.14-.29.28-.13a.14.14,0,0,0,.07-.16,2.7,2.7,0,0,1-.08-.39.13.13,0,0,0-.11-.12l-.3,0,0-.33.3,0a.13.13,0,0,0,.14-.1,1.63,1.63,0,0,1,.13-.37.14.14,0,0,0,0-.17l-.25-.17.18-.27.25.17a.13.13,0,0,0,.17,0,1.48,1.48,0,0,1,.3-.26.13.13,0,0,0,0-.16l-.13-.28.29-.13.13.27a.13.13,0,0,0,.16.07,1.69,1.69,0,0,1,.38-.07.15.15,0,0,0,.13-.12l0-.3.32,0,0,.3a.13.13,0,0,0,.1.14,1.63,1.63,0,0,1,.37.13.14.14,0,0,0,.17,0l.17-.25.26.18-.17.25a.13.13,0,0,0,0,.17,2.43,2.43,0,0,1,.26.3.12.12,0,0,0,.16.05l.27-.13.14.29-.27.13a.13.13,0,0,0-.07.16,1.69,1.69,0,0,1,.07.38.15.15,0,0,0,.12.13l.3,0Z"/><path class="cls-22" d="M581.48,34.4h-.23a.86.86,0,0,0-.06-.23l.19-.12a.26.26,0,0,0,.1-.36l-.19-.34a.27.27,0,0,0-.37-.1l-.19.12a1.53,1.53,0,0,0-.18-.18l.12-.19a.27.27,0,0,0-.1-.37l-.33-.19a.28.28,0,0,0-.37.1l-.11.19-.24-.06v-.23a.27.27,0,0,0-.27-.26h-.38a.27.27,0,0,0-.27.26v.23l-.24.06-.11-.19a.27.27,0,0,0-.37-.1l-.33.19a.27.27,0,0,0-.1.37l.12.19-.18.18-.19-.12a.31.31,0,0,0-.21,0,.28.28,0,0,0-.16.12l-.19.33a.26.26,0,0,0,0,.21.28.28,0,0,0,.13.16l.19.12a1.55,1.55,0,0,0-.06.23h-.23a.28.28,0,0,0-.27.27v.38a.27.27,0,0,0,.27.27h.23a2.1,2.1,0,0,0,.06.24l-.19.11a.27.27,0,0,0-.13.17.24.24,0,0,0,0,.2l.19.33a.24.24,0,0,0,.16.12.23.23,0,0,0,.21,0l.19-.11.18.17-.12.2a.26.26,0,0,0,.1.36l.33.19a.27.27,0,0,0,.37-.09l.11-.2.24.07v.22a.27.27,0,0,0,.27.27h.38a.27.27,0,0,0,.27-.27v-.22l.24-.07.11.2a.27.27,0,0,0,.37.09l.33-.19a.26.26,0,0,0,.1-.36l-.12-.2a1.45,1.45,0,0,0,.18-.17l.19.11a.27.27,0,0,0,.37-.1l.19-.33a.27.27,0,0,0-.1-.37l-.19-.11a1.05,1.05,0,0,0,.06-.24h.23a.27.27,0,0,0,.27-.27v-.38A.28.28,0,0,0,581.48,34.4Zm0,.64h-.32a.14.14,0,0,0-.14.12,1.93,1.93,0,0,1-.12.41.15.15,0,0,0,.07.18l.28.16-.18.31-.28-.17a.14.14,0,0,0-.18,0,1.77,1.77,0,0,1-.31.3.15.15,0,0,0,0,.18l.16.29-.3.17-.16-.28a.15.15,0,0,0-.18-.06,1.91,1.91,0,0,1-.41.11.14.14,0,0,0-.12.13v.34h-.36v-.34a.14.14,0,0,0-.12-.13,1.91,1.91,0,0,1-.41-.11.13.13,0,0,0-.17.06L578,37l-.31-.17.17-.29a.15.15,0,0,0,0-.18,1.77,1.77,0,0,1-.31-.3.14.14,0,0,0-.18,0l-.28.17-.18-.31.28-.16a.16.16,0,0,0,.07-.18,1.93,1.93,0,0,1-.12-.41A.13.13,0,0,0,577,35h-.33v-.35H577a.14.14,0,0,0,.13-.13,2.34,2.34,0,0,1,.12-.41.15.15,0,0,0-.07-.17l-.28-.17.18-.3.28.16a.14.14,0,0,0,.18,0,1.82,1.82,0,0,1,.31-.31.15.15,0,0,0,0-.18l-.17-.28.31-.18.17.29a.13.13,0,0,0,.17.06,1.91,1.91,0,0,1,.41-.11.15.15,0,0,0,.12-.14v-.33h.36v.33a.15.15,0,0,0,.12.14,1.91,1.91,0,0,1,.41.11A.15.15,0,0,0,580,33l.16-.29.3.18-.16.28a.15.15,0,0,0,0,.18,1.82,1.82,0,0,1,.31.31.14.14,0,0,0,.18,0l.28-.16.18.3L581,34a.14.14,0,0,0-.07.17,2.34,2.34,0,0,1,.12.41.15.15,0,0,0,.14.13h.32Z"/><path class="cls-22" d="M574.18,33.69a.92.92,0,1,1,0-1.84.92.92,0,0,1,0,1.84Zm0-1.57a.66.66,0,0,0-.66.65.67.67,0,0,0,.66.66.66.66,0,0,0,.65-.66A.65.65,0,0,0,574.18,32.12Z"/><path class="cls-22" d="M579.07,35.89a1,1,0,1,1,1-1A1,1,0,0,1,579.07,35.89Zm0-1.76a.74.74,0,1,0,.73.73A.74.74,0,0,0,579.07,34.13Z"/><path class="cls-22" d="M399.58,40.61h0l0,.08h0l-.42,2.49a.21.21,0,0,0,.31.22l2.23-1.2h0l.06-.06h0l6.46-9h0l1.11-1.54a.26.26,0,0,0,0-.28,3.35,3.35,0,0,0-.84-.84,3.43,3.43,0,0,0-1.07-.52.24.24,0,0,0-.26.09L406,31.56h0Zm6.87-8.6.14.07.08,0,.15.08.07,0h0l-6.18,8.66a3.45,3.45,0,0,0-.61-.3L406.3,32l.05,0Zm.9.57a.63.63,0,0,1,.12.11l.07.07.11.11a.22.22,0,0,0,.05.08l.05,0-6.18,8.64a4.25,4.25,0,0,0-.48-.47l6.18-8.66,0,0Zm-7.71,10.23.3-1.76a3.29,3.29,0,0,1,.69.37h0a4.22,4.22,0,0,1,.58.54Zm7.76-12.39a3.15,3.15,0,0,1,1.45,1L408,32.59h0a1.54,1.54,0,0,0-.17-.19s0,0-.06,0a.62.62,0,0,0-.14-.14l-.06-.06a3.47,3.47,0,0,0-.44-.31l-.06,0-.18-.09-.07,0-.24-.1h0Z"/><path class="cls-22" d="M402.5,21.23a.19.19,0,0,0,0-.08,0,0,0,0,1,0,0l-.06-.08h0l-3.68-3.71h0a.16.16,0,0,0-.09,0s0,0,0,0l-.08,0H386.7a.29.29,0,0,0-.3.3V36.76a.3.3,0,0,0,.3.31h15.51a.3.3,0,0,0,.29-.31V21.24Zm-1-.28h-2.66V18.27Zm.42,15.51H387V17.85h11.23v3.39a.31.31,0,0,0,.3.31h3.38Z"/><path class="cls-22" d="M393.81,24.24h-5.33a.41.41,0,0,1-.42-.41v-4.4a.42.42,0,0,1,.42-.42h5.33a.42.42,0,0,1,.42.42v4.4A.41.41,0,0,1,393.81,24.24Zm-5.23-.52h5.13V19.53h-5.13Z"/><polygon class="cls-22" points="388.32 23.84 389.94 21.02 391.45 22.86 392.45 22.18 393.97 23.82 388.32 23.84"/><rect class="cls-22" x="388.32" y="26.2" width="12.06" height="0.42"/><rect class="cls-22" x="388.32" y="27.82" width="12.06" height="0.42"/><rect class="cls-22" x="388.32" y="29.44" width="12.06" height="0.42"/><rect class="cls-22" x="388.32" y="31.05" width="12.06" height="0.42"/><rect class="cls-22" x="388.32" y="32.67" width="12.06" height="0.42"/><rect class="cls-22" x="388.32" y="34.29" width="7.37" height="0.42"/><ellipse class="cls-22" cx="601.37" cy="98.51" rx="2.91" ry="2.73"/><path class="cls-22" d="M597.38,105.37h8a3.83,3.83,0,0,0-4.22-4.13C597.1,101.24,597.38,105.37,597.38,105.37Z"/><path class="cls-22" d="M617.15,89.53H594.2a.34.34,0,0,0-.36.33v19.47a.34.34,0,0,0,.36.33h22.59a.34.34,0,0,0,.36-.33.35.35,0,0,0-.36-.32H594.56V93.45h22.23V109h-.72a.35.35,0,0,0-.36.32.34.34,0,0,0,.36.33h1.08a.34.34,0,0,0,.36-.33V89.86A.34.34,0,0,0,617.15,89.53ZM594.56,92.8V90.19h22.23V92.8Z"/><path class="cls-22" d="M615,91.26a.28.28,0,0,0-.1.23.3.3,0,0,0,.1.23.39.39,0,0,0,.25.1.4.4,0,0,0,.26-.1.34.34,0,0,0,.11-.23.32.32,0,0,0-.11-.23A.41.41,0,0,0,615,91.26Z"/><path class="cls-22" d="M613.29,91.16a.34.34,0,0,0-.36.33.36.36,0,0,0,.72,0A.34.34,0,0,0,613.29,91.16Z"/><path class="cls-22" d="M611.07,91.26a.28.28,0,0,0-.11.23.3.3,0,0,0,.11.23.36.36,0,0,0,.5,0,.3.3,0,0,0,.11-.23.28.28,0,0,0-.11-.23A.39.39,0,0,0,611.07,91.26Z"/><rect class="cls-22" x="597.14" y="107.68" width="18.93" height="0.27" rx="0.13"/><polygon class="cls-22" points="595.62 107.29 595.62 108.26 596.48 107.77 595.62 107.29"/><rect class="cls-22" x="608.22" y="96.86" width="6.68" height="0.47"/><rect class="cls-22" x="608.22" y="98.09" width="6.68" height="0.47"/><rect class="cls-22" x="608.22" y="99.19" width="6.68" height="0.47"/><circle class="cls-23" cx="698.53" cy="51.87" r="5.7"/><polygon class="cls-22" points="700.37 56.8 707.19 66.8 710.01 64.61 702.43 55.39 700.37 56.8"/></svg>