<svg id="Capa_1" data-name="Capa 1" xmlns="http://www.w3.org/2000/svg" viewBox="0 0 1012.27 125.36"><defs><style>.cls-1{fill:#aacbdc;}.cls-2{font-size:8px;}.cls-14,.cls-16,.cls-2,.cls-20,.cls-25{fill:#fff;}.cls-14,.cls-2{font-family:Montserrat-Regular, Montserrat;}.cls-2,.cls-8{letter-spacing:0.07em;}.cls-3{letter-spacing:0.06em;}.cls-4{letter-spacing:0.08em;}.cls-5{letter-spacing:0.03em;}.cls-6{letter-spacing:0.08em;}.cls-7{letter-spacing:0.01em;}.cls-9{letter-spacing:0.08em;}.cls-10{opacity:0.8;}.cls-11{opacity:0.75;}.cls-12{fill:#d7d7d7;}.cls-13{opacity:0.82;}.cls-14{font-size:13px;letter-spacing:0.07em;}.cls-15{fill:none;stroke:#fff;stroke-miterlimit:10;stroke-width:0.76px;}.cls-16{font-size:53.98px;}.cls-16,.cls-20{font-family:Montserrat-Bold, Montserrat;font-weight:700;}.cls-17{letter-spacing:-0.01em;}.cls-18{letter-spacing:-0.02em;}.cls-19{letter-spacing:0em;}.cls-20{font-size:10.61px;}.cls-21{letter-spacing:-0.02em;}.cls-22{letter-spacing:-0.05em;}.cls-23{letter-spacing:-0.02em;}.cls-24{letter-spacing:-0.01em;}</style></defs><title>insumos</title><rect class="cls-1" x="-9.24" y="-13.18" width="1035.7" height="148.46"/><text class="cls-2" transform="translate(12.76 74.7)">INTEGR<tspan class="cls-3" x="33.87" y="0">A</tspan><tspan class="cls-4" x="40.14" y="0">CIÓN DE ELEMEN</tspan><tspan class="cls-5" x="118.76" y="0">T</tspan><tspan x="123.54" y="0">OS </tspan><tspan class="cls-4"><tspan x="0" y="12">DE JUEGO EN </tspan><tspan class="cls-6" x="64.3" y="12">L</tspan><tspan x="69.14" y="12">A RU</tspan><tspan class="cls-7" x="91.33" y="12">T</tspan><tspan class="cls-8" x="95.93" y="12">A </tspan><tspan x="0" y="24">DE APROPI</tspan><tspan class="cls-3" x="50.18" y="24">A</tspan><tspan class="cls-9" x="56.45" y="24">CIÓN.</tspan></tspan></text><g class="cls-10"><g class="cls-11"><path class="cls-12" d="M6.9,143.36a6.91,6.91,0,0,1-5.13-11.52l19.09-21.18a6.9,6.9,0,1,1,10.25,9.24L12,141.08A6.9,6.9,0,0,1,6.9,143.36Z"/></g><g class="cls-13"><path class="cls-12" d="M45.07,143.44a6.88,6.88,0,0,1-5.13-2.28L20.86,120a6.9,6.9,0,0,1,10.25-9.24L50.2,131.91a6.91,6.91,0,0,1-5.13,11.53Z"/></g></g><g class="cls-10"><g class="cls-11"><path class="cls-12" d="M968.45,142.43a6.91,6.91,0,0,1-5.12-11.53l19.09-21.18A6.9,6.9,0,1,1,992.66,119l-19.08,21.18A6.86,6.86,0,0,1,968.45,142.43Z"/></g><g class="cls-13"><path class="cls-12" d="M1006.63,142.5a6.88,6.88,0,0,1-5.13-2.28L982.42,119a6.9,6.9,0,0,1,10.25-9.24L1011.75,131a6.89,6.89,0,0,1-5.12,11.52Z"/></g></g><text class="cls-14" transform="translate(981 101.84)">14</text><path class="cls-15" d="M325.54,21.65s11.37-9.2,32.93-8.69c16.15.39,29.08,7.16,40.25,15.49,22.62,16.86,44,34.31,86.84,17.28"/><path class="cls-15" d="M418.38,56.06s13.33,6.49,25.87,6.62,26.34-3.52,26.34-3.52"/><text class="cls-16" transform="translate(315.15 78.82)">GAMIFI<tspan class="cls-17" x="198.04" y="0">C</tspan><tspan class="cls-18" x="234.96" y="0">A</tspan><tspan class="cls-19" x="275.66" y="0">CIÓN</tspan></text><text class="cls-20" transform="translate(315.15 97.8)">M<tspan class="cls-21" x="9.63" y="0">O</tspan><tspan x="17.91" y="0">TI</tspan><tspan class="cls-22" x="27.81" y="0">V</tspan><tspan class="cls-23" x="34.99" y="0">A</tspan><tspan x="42.98" y="0">CIÓN</tspan></text><text class="cls-20" transform="translate(469.23 28.67)">JUEGO SERIO</text><text class="cls-20" transform="translate(647.84 99.86)">JUEGO </text><text class="cls-20" transform="translate(418.38 99.86)">LUDIFI<tspan class="cls-24" x="35.34" y="0">C</tspan><tspan class="cls-23" x="42.59" y="0">A</tspan><tspan x="50.59" y="0">CIÓN</tspan></text><path class="cls-25" d="M729.16,22.58l-.75-.06a5.5,5.5,0,0,0-.15-.81l.68-.32a.91.91,0,0,0,.43-1.2L728.82,19a.9.9,0,0,0-1.2-.44l-.69.33a8.18,8.18,0,0,0-.53-.64l.42-.62a.89.89,0,0,0-.22-1.25l-1.06-.73a.92.92,0,0,0-1.26.22l-.42.63-.79-.29.06-.74a.91.91,0,0,0-.83-1l-1.28-.1a.91.91,0,0,0-1,.83L720,16l-.82.16-.32-.69a.92.92,0,0,0-1.2-.42l-1.17.56a.9.9,0,0,0-.43,1.19l.33.68a8.27,8.27,0,0,0-.63.55l-.62-.44a.91.91,0,0,0-.68-.14,1,1,0,0,0-.58.38l-.73,1.05a.92.92,0,0,0-.15.68,1,1,0,0,0,.38.58l.62.43a7.08,7.08,0,0,0-.28.77l-.75-.06a.91.91,0,0,0-1,.84l-.11,1.29a.9.9,0,0,0,.83,1l.76.06a8.27,8.27,0,0,0,.14.82l-.68.31a1,1,0,0,0-.46.51.94.94,0,0,0,0,.7l.56,1.16a.89.89,0,0,0,.51.46.83.83,0,0,0,.69,0l.68-.33a6.76,6.76,0,0,0,.54.64l-.43.62a.91.91,0,0,0,.23,1.26l1.06.72a.91.91,0,0,0,1.26-.22l.42-.63a5.77,5.77,0,0,0,.79.29l-.06.74a.89.89,0,0,0,.82,1l1.28.11a.91.91,0,0,0,1-.83l.06-.75a4.94,4.94,0,0,0,.82-.16l.32.69a.89.89,0,0,0,1.2.43l1.16-.55a.9.9,0,0,0,.42-1.21l-.31-.68a6.23,6.23,0,0,0,.63-.54l.62.43a.91.91,0,0,0,1.26-.22l.73-1.06a.92.92,0,0,0-.24-1.27l-.62-.41a5.71,5.71,0,0,0,.28-.79l.76.06a.9.9,0,0,0,1-.82l.1-1.28A.92.92,0,0,0,729.16,22.58Zm-.22,2.13-1.09-.08a.48.48,0,0,0-.51.36,6,6,0,0,1-.48,1.35A.49.49,0,0,0,727,27l.91.63-.68,1-.91-.62a.47.47,0,0,0-.61.06,6.53,6.53,0,0,1-1.1.93.48.48,0,0,0-.16.6l.47,1-1.07.51-.47-1a.5.5,0,0,0-.57-.25,6.34,6.34,0,0,1-1.42.26.48.48,0,0,0-.44.43l-.09,1.11-1.18-.1.09-1.11a.48.48,0,0,0-.37-.49,6.89,6.89,0,0,1-1.36-.48.47.47,0,0,0-.59.15l-.63.91-1-.67.63-.91a.5.5,0,0,0-.06-.62,6.09,6.09,0,0,1-.94-1.09.47.47,0,0,0-.6-.16l-1,.47-.51-1.08,1-.47a.5.5,0,0,0,.26-.57,6.38,6.38,0,0,1-.27-1.41.47.47,0,0,0-.43-.45l-1.1-.08.09-1.19,1.1.09a.47.47,0,0,0,.5-.37A6.26,6.26,0,0,1,715,20.6a.48.48,0,0,0-.17-.6l-.9-.63.67-1,.92.63a.46.46,0,0,0,.61-.07,7,7,0,0,1,1.1-.93.46.46,0,0,0,.16-.59l-.48-1,1.08-.51.48,1a.44.44,0,0,0,.56.24,6.84,6.84,0,0,1,1.41-.25.5.5,0,0,0,.45-.43l.09-1.1,1.18.1-.09,1.09a.49.49,0,0,0,.36.5,6.75,6.75,0,0,1,1.37.48.47.47,0,0,0,.6-.15l.62-.91,1,.67-.62.91a.48.48,0,0,0,.06.61,6.52,6.52,0,0,1,.94,1.1.47.47,0,0,0,.6.16l1-.47.51,1.07-1,.48a.48.48,0,0,0-.26.57A5.74,5.74,0,0,1,727.5,23a.48.48,0,0,0,.44.44l1.1.09Z"/><path class="cls-25" d="M747.47,29.37h-.82a7.59,7.59,0,0,0-.24-.85l.71-.42a1,1,0,0,0,.36-1.33l-.7-1.21a1,1,0,0,0-1.34-.37l-.71.41c-.2-.23-.41-.42-.64-.64l.41-.7a1,1,0,0,0-.35-1.34l-1.21-.7a1,1,0,0,0-1.34.35l-.41.72-.88-.25v-.81a1,1,0,0,0-1-1h-1.39a1,1,0,0,0-1,1V23l-.87.25-.41-.72a1,1,0,0,0-1.34-.35l-1.21.7a1,1,0,0,0-.36,1.34l.41.7c-.22.22-.44.41-.64.64l-.71-.41a1,1,0,0,0-.74-.09,1,1,0,0,0-.6.46l-.7,1.19a1,1,0,0,0-.1.75,1,1,0,0,0,.46.6l.71.42a7.57,7.57,0,0,0-.23.85h-.82a1,1,0,0,0-1,1v1.4a1,1,0,0,0,1,1h.82c.06.29.14.58.23.87l-.71.4a1,1,0,0,0-.36,1.35l.7,1.21a1,1,0,0,0,.6.44.88.88,0,0,0,.74-.09l.71-.41a7.73,7.73,0,0,0,.64.64l-.41.71a1,1,0,0,0,.36,1.34l1.21.69a1,1,0,0,0,1.34-.35l.41-.72a7.11,7.11,0,0,0,.87.25v.81a1,1,0,0,0,1,1h1.39a1,1,0,0,0,1-1v-.81a6.78,6.78,0,0,0,.88-.25l.41.72a1,1,0,0,0,1.34.35l1.21-.69a1,1,0,0,0,.35-1.34l-.41-.71a6.44,6.44,0,0,0,.64-.64l.71.41a1,1,0,0,0,1.34-.35l.7-1.21a1,1,0,0,0-.36-1.35l-.71-.4c.1-.29.17-.58.24-.87h.82a1,1,0,0,0,1-1v-1.4A1,1,0,0,0,747.47,29.37Zm-.06,2.33h-1.19a.53.53,0,0,0-.52.45,6.29,6.29,0,0,1-.4,1.5.52.52,0,0,0,.23.64l1,.6L745.91,36l-1-.6a.52.52,0,0,0-.66.13,7.7,7.7,0,0,1-1.11,1.1.52.52,0,0,0-.13.66l.6,1-1.11.64-.6-1a.52.52,0,0,0-.64-.21,8,8,0,0,1-1.51.4.52.52,0,0,0-.44.5v1.21H738V38.63a.52.52,0,0,0-.44-.5,8,8,0,0,1-1.51-.4.5.5,0,0,0-.63.21l-.6,1-1.12-.64.6-1a.52.52,0,0,0-.12-.66,7.7,7.7,0,0,1-1.11-1.1.52.52,0,0,0-.66-.13l-1,.6-.65-1.12,1-.6a.53.53,0,0,0,.23-.64,7.47,7.47,0,0,1-.42-1.5.51.51,0,0,0-.5-.45h-1.2V30.42h1.2a.51.51,0,0,0,.5-.45,7.47,7.47,0,0,1,.42-1.5.53.53,0,0,0-.23-.64l-1-.6.65-1.12,1,.6a.5.5,0,0,0,.66-.13,7.7,7.7,0,0,1,1.11-1.1.52.52,0,0,0,.12-.66l-.6-1,1.12-.64.6,1a.49.49,0,0,0,.63.21,8,8,0,0,1,1.51-.4.52.52,0,0,0,.44-.5v-1.2h1.29v1.2a.52.52,0,0,0,.44.5,8,8,0,0,1,1.51.4.51.51,0,0,0,.64-.21l.6-1,1.11.64-.6,1a.52.52,0,0,0,.13.66,7.7,7.7,0,0,1,1.11,1.1.5.5,0,0,0,.66.13l1-.6.65,1.12-1,.6a.52.52,0,0,0-.23.64,6.29,6.29,0,0,1,.4,1.5.53.53,0,0,0,.52.45h1.19Z"/><path class="cls-25" d="M720.81,26.79a3.36,3.36,0,1,1,3.36-3.36A3.37,3.37,0,0,1,720.81,26.79Zm0-5.74a2.39,2.39,0,1,0,2.38,2.38A2.39,2.39,0,0,0,720.81,21.05Z"/><path class="cls-25" d="M738.66,34.83a3.77,3.77,0,1,1,3.76-3.76A3.77,3.77,0,0,1,738.66,34.83Zm0-6.44a2.68,2.68,0,1,0,2.67,2.68A2.68,2.68,0,0,0,738.66,28.39Z"/><path class="cls-25" d="M560.47,10.9V29.27a2.17,2.17,0,0,0,2.17,2.17h5.47l6.5,5.47a2.19,2.19,0,0,0,1.39.5h.2a2.14,2.14,0,0,0,1.47-.76l9.93-11.83a2.17,2.17,0,0,0-.27-3.06l-4.13-3.47.53-1.46a2.17,2.17,0,0,0-.08-1.66A2.15,2.15,0,0,0,582.43,14l-5.89-2.14v-1a2.18,2.18,0,0,0-2.17-2.18H562.64A2.18,2.18,0,0,0,560.47,10.9Zm22.44,5.62-5.75,15.8a1.32,1.32,0,0,1-.67.74,1.29,1.29,0,0,1-1,0l-4.55-1.66h3.43a2.17,2.17,0,0,0,2.17-2.17V12.81l5.59,2a1.32,1.32,0,0,1,.74.67A1.29,1.29,0,0,1,582.91,16.52ZM570.28,32.13l4.91,1.79a2.09,2.09,0,0,0,.74.12,2.23,2.23,0,0,0,.92-.19A2.13,2.13,0,0,0,578,32.61l4.9-13.47,3.89,3.27a1.3,1.3,0,0,1,.16,1.84L577,36.08a1.32,1.32,0,0,1-1.84.16ZM561.34,10.9a1.3,1.3,0,0,1,1.3-1.3h11.73a1.3,1.3,0,0,1,1.3,1.3V29.27a1.3,1.3,0,0,1-1.3,1.3H562.64a1.3,1.3,0,0,1-1.3-1.3Z"/><path class="cls-25" d="M572.26,19.81l-3.42-4.27a.42.42,0,0,0-.34-.15.41.41,0,0,0-.33.15l-3.42,4.27a.44.44,0,0,0,0,.55l3.42,4.25a.38.38,0,0,0,.33.17.38.38,0,0,0,.34-.17l3.42-4.25A.47.47,0,0,0,572.26,19.81Zm-3.76,3.84-2.85-3.57,2.85-3.57,2.86,3.57Z"/><path class="cls-25" d="M575.12,12,574,10.53a.13.13,0,0,0-.11,0,.13.13,0,0,0-.12,0L572.56,12a.14.14,0,0,0,0,.19l1.16,1.45a.14.14,0,0,0,.12.06.14.14,0,0,0,.11-.06l1.17-1.45A.17.17,0,0,0,575.12,12Zm-1.28,1.31-1-1.21,1-1.22,1,1.22Z"/><path class="cls-25" d="M565.12,12,564,10.53a.13.13,0,0,0-.11,0,.13.13,0,0,0-.12,0L562.56,12a.14.14,0,0,0,0,.19l1.16,1.45a.14.14,0,0,0,.12.06.14.14,0,0,0,.11-.06l1.17-1.45A.17.17,0,0,0,565.12,12Zm-1.28,1.31-1-1.21,1-1.22,1,1.22Z"/><path class="cls-25" d="M574.94,27.75l-1.16-1.46a.17.17,0,0,0-.12-.05.16.16,0,0,0-.11.05l-1.16,1.46a.13.13,0,0,0,0,.18l1.16,1.46a.13.13,0,0,0,.11.05.13.13,0,0,0,.12-.05l1.16-1.46A.13.13,0,0,0,574.94,27.75Zm-1.28,1.31-1-1.22,1-1.22,1,1.22Z"/><path class="cls-25" d="M565.12,27.73,564,26.27a.16.16,0,0,0-.11-.05.17.17,0,0,0-.12.05l-1.16,1.46a.13.13,0,0,0,0,.18l1.16,1.45a.14.14,0,0,0,.12.06.14.14,0,0,0,.11-.06l1.17-1.45A.15.15,0,0,0,565.12,27.73ZM563.84,29l-1-1.21,1-1.22,1,1.22Z"/><path class="cls-25" d="M717,82.54h-27.5a.42.42,0,0,0-.43.42v24.86a.42.42,0,0,0,.43.42h27.07a.42.42,0,0,0,.43-.42.42.42,0,0,0-.43-.41H690V87.55h26.64v19.86h-.85a.43.43,0,0,0-.44.41.43.43,0,0,0,.44.42H717a.43.43,0,0,0,.44-.42V83A.43.43,0,0,0,717,82.54ZM690,86.72V83.38h26.64v3.34Z"/><path class="cls-25" d="M714.49,84.75a.36.36,0,0,0-.13.29.41.41,0,0,0,.13.3.43.43,0,0,0,.3.12.47.47,0,0,0,.3-.12.42.42,0,0,0,.13-.3.39.39,0,0,0-.13-.29A.46.46,0,0,0,714.49,84.75Z"/><path class="cls-25" d="M712.42,84.62A.43.43,0,0,0,712,85a.42.42,0,0,0,.43.42.41.41,0,0,0,.43-.42A.42.42,0,0,0,712.42,84.62Z"/><path class="cls-25" d="M709.76,84.75a.39.39,0,0,0-.13.29.42.42,0,0,0,.13.3.45.45,0,0,0,.3.12.5.5,0,0,0,.31-.12.41.41,0,0,0,.12-.3.38.38,0,0,0-.12-.29A.47.47,0,0,0,709.76,84.75Z"/><path class="cls-25" d="M702,99.88a.32.32,0,0,0,.14,0,.26.26,0,0,0,.19-.07l3.53-2.62A.31.31,0,0,0,706,97a.3.3,0,0,0-.14-.26l-3.53-2.62a.29.29,0,0,0-.33,0,.31.31,0,0,0-.18.29v5.25A.35.35,0,0,0,702,99.88Zm.46-4.9,2.67,2-2.67,2Z"/><path class="cls-25" d="M703.29,101.83A4.87,4.87,0,1,1,708.17,97,4.88,4.88,0,0,1,703.29,101.83Zm0-9.17a4.3,4.3,0,1,0,4.3,4.3A4.3,4.3,0,0,0,703.29,92.66Z"/><path class="cls-25" d="M609.32,84.32h-28a.44.44,0,0,0-.44.43V110a.44.44,0,0,0,.44.43h27.55a.42.42,0,1,0,0-.84H581.77V89.41h27.11v20.22H608a.42.42,0,1,0,0,.84h1.31a.44.44,0,0,0,.44-.43V84.75A.44.44,0,0,0,609.32,84.32Zm-27.55,4.25V85.18h27.11v3.39Z"/><path class="cls-25" d="M606.72,86.56a.4.4,0,0,0-.13.31.41.41,0,0,0,.13.3.43.43,0,0,0,.3.12.48.48,0,0,0,.31-.12.43.43,0,0,0,.13-.3.44.44,0,0,0-.13-.31A.47.47,0,0,0,606.72,86.56Z"/><path class="cls-25" d="M604.62,86.44a.44.44,0,0,0-.44.43.43.43,0,0,0,.44.42.42.42,0,0,0,.43-.42A.43.43,0,0,0,604.62,86.44Z"/><path class="cls-25" d="M601.9,86.56a.43.43,0,0,0-.12.31.42.42,0,0,0,.12.3.48.48,0,0,0,.31.12.46.46,0,0,0,.31-.12.39.39,0,0,0,.13-.3.4.4,0,0,0-.13-.31A.48.48,0,0,0,601.9,86.56Z"/><path class="cls-25" d="M597.59,97.79l-1.15-.16-.51-1a.53.53,0,0,0-.47-.29.54.54,0,0,0-.47.29l-.51,1-1.15.16a.55.55,0,0,0-.42.36.52.52,0,0,0,.13.53l.83.81-.19,1.15a.5.5,0,0,0,.21.5.48.48,0,0,0,.3.11.61.61,0,0,0,.24-.06l1-.55,1,.55a.54.54,0,0,0,.56,0,.51.51,0,0,0,.2-.5l-.2-1.15.83-.81a.52.52,0,0,0,.14-.53A.57.57,0,0,0,597.59,97.79ZM596.38,99a.5.5,0,0,0-.14.45l.12.73-.66-.34a.51.51,0,0,0-.48,0l-.66.34.13-.72a.51.51,0,0,0-.15-.46l-.54-.52.74-.11a.53.53,0,0,0,.39-.29l.33-.66.32.66a.54.54,0,0,0,.4.29l.73.11Z"/><path class="cls-25" d="M590.38,97.79l-1.13-.16-.52-1a.54.54,0,0,0-.47-.29.51.51,0,0,0-.46.29l-.52,1-1.14.16a.51.51,0,0,0-.42.36.5.5,0,0,0,.13.53l.83.81-.2,1.15a.51.51,0,0,0,.21.5.52.52,0,0,0,.55,0l1-.55,1,.55a.65.65,0,0,0,.24.06.53.53,0,0,0,.31-.11.51.51,0,0,0,.21-.5l-.2-1.15.83-.81a.52.52,0,0,0,.13-.53A.54.54,0,0,0,590.38,97.79ZM589.19,99a.51.51,0,0,0-.16.45l.13.73-.66-.34a.51.51,0,0,0-.48,0l-.65.34.12-.73a.48.48,0,0,0-.15-.45l-.53-.52.73-.11a.5.5,0,0,0,.39-.29l.33-.66.33.66a.51.51,0,0,0,.39.29l.73.11Z"/><path class="cls-25" d="M605,97.83l-1.39-.2L603,96.37a.42.42,0,0,0-.72,0l-.62,1.26-1.39.2a.38.38,0,0,0-.32.27.39.39,0,0,0,.1.42l1,1-.24,1.39a.43.43,0,0,0,.16.39.4.4,0,0,0,.42,0l1.25-.66,1.24.66a.38.38,0,0,0,.42,0,.39.39,0,0,0,.16-.39l-.24-1.39,1-1a.44.44,0,0,0,.1-.42A.4.4,0,0,0,605,97.83Zm-1.5,1.24a.41.41,0,0,0-.11.35l.14.79-.72-.36a.4.4,0,0,0-.37,0l-.71.36.14-.79a.41.41,0,0,0-.12-.35l-.58-.56.8-.12a.4.4,0,0,0,.3-.22l.36-.72.35.72a.4.4,0,0,0,.3.22l.8.12Z"/><path class="cls-25" d="M416,99a1.2,1.2,0,0,0,0-1.77L414.73,96a.22.22,0,0,1-.05-.24l.72-1.62a1.13,1.13,0,0,0,0-1,1.24,1.24,0,0,0-.69-.68l-1.65-.63a.21.21,0,0,1-.14-.2l.05-1.77a1.26,1.26,0,0,0-.35-.9,1.28,1.28,0,0,0-.9-.34l-1.76,0a.21.21,0,0,1-.21-.14l-.63-1.66a1.29,1.29,0,0,0-.67-.69,1.2,1.2,0,0,0-1,0L405.9,87a.23.23,0,0,1-.24,0l-1.21-1.29a1.28,1.28,0,0,0-1.78,0l-1.21,1.29a.22.22,0,0,1-.23,0l-1.62-.73a1.23,1.23,0,0,0-1,0,1.29,1.29,0,0,0-.67.69l-.64,1.66a.2.2,0,0,1-.2.14l-1.76,0a1.2,1.2,0,0,0-.9.34,1.22,1.22,0,0,0-.35.9l.05,1.77a.21.21,0,0,1-.14.2l-1.65.63a1.19,1.19,0,0,0-.69.68,1.25,1.25,0,0,0,0,1l.73,1.62a.22.22,0,0,1-.05.24l-1.29,1.21a1.22,1.22,0,0,0,0,1.77l1.29,1.22a.19.19,0,0,1,.05.23l-.73,1.62a1.25,1.25,0,0,0,0,1,1.12,1.12,0,0,0,.69.67l1.65.64a.2.2,0,0,1,.14.2l-.05,1.77a1.18,1.18,0,0,0,.35.89,1.27,1.27,0,0,0,.9.36l.48,0v10.33a.49.49,0,0,0,.24.42.42.42,0,0,0,.26.08.54.54,0,0,0,.22,0l4.6-2.29,2.43-1.2,7.06,3.49a.53.53,0,0,0,.49,0,.49.49,0,0,0,.24-.42V107.51h.34a1.24,1.24,0,0,0,.9-.36,1.22,1.22,0,0,0,.35-.89l-.05-1.77a.2.2,0,0,1,.14-.2l1.65-.64a1.17,1.17,0,0,0,.69-.67,1.13,1.13,0,0,0,0-1l-.72-1.62a.19.19,0,0,1,.05-.23ZM396.86,117v-9.55h.28c.08,0,.18.05.2.13l.64,1.66a1.23,1.23,0,0,0,.67.69,1.19,1.19,0,0,0,1,0l.76-.32v5.68Zm7-3.25a.85.85,0,0,0-.22,0h0a.79.79,0,0,0-.23,0l-2,1V109.2a.11.11,0,0,1,.09,0l1.21,1.29a1.26,1.26,0,0,0,1.78,0l1.21-1.29a.22.22,0,0,1,.23,0v5.58Zm6.55,3.25-3.51-1.73v-5.63l.64.26a1.16,1.16,0,0,0,1,0,1.23,1.23,0,0,0,.67-.69l.63-1.66a.21.21,0,0,1,.2-.13h.42Zm3.38-16.2.72,1.62a.26.26,0,0,1,0,.17.27.27,0,0,1-.12.12l-1.66.64a1.19,1.19,0,0,0-.78,1.16l.05,1.77a.2.2,0,0,1-.07.16.23.23,0,0,1-.14.06h0l-1.77-.06h0a1.21,1.21,0,0,0-1.15.79l-.62,1.65a.27.27,0,0,1-.12.12.24.24,0,0,1-.17,0l-1.62-.73a1.18,1.18,0,0,0-1.37.28l-1.22,1.28a.19.19,0,0,1-.15.07.22.22,0,0,1-.16-.07l-1.21-1.28a1.23,1.23,0,0,0-.88-.39,1.35,1.35,0,0,0-.49.11l-1.62.73a.24.24,0,0,1-.17,0,.27.27,0,0,1-.12-.12l-.63-1.65a1.23,1.23,0,0,0-1.17-.79l-1.76.06a.21.21,0,0,1-.22-.22l.05-1.77a1.19,1.19,0,0,0-.78-1.16l-1.66-.64a.27.27,0,0,1-.12-.12.24.24,0,0,1,0-.17l.73-1.62a1.18,1.18,0,0,0-.27-1.36l-1.29-1.22a.2.2,0,0,1-.07-.15.19.19,0,0,1,.07-.15l1.29-1.22a1.21,1.21,0,0,0,.27-1.38l-.73-1.62a.25.25,0,0,1,0-.17.27.27,0,0,1,.12-.12l1.66-.62a1.2,1.2,0,0,0,.78-1.16l-.05-1.78a.23.23,0,0,1,.06-.15.19.19,0,0,1,.16-.06l1.76,0a1.19,1.19,0,0,0,1.17-.77l.63-1.67a.27.27,0,0,1,.12-.12.39.39,0,0,1,.17,0l1.62.71a1.21,1.21,0,0,0,1.37-.26l1.21-1.3a.2.2,0,0,1,.16-.06.17.17,0,0,1,.15.06h0l1.22,1.3a1.18,1.18,0,0,0,1.37.26l1.62-.71a.39.39,0,0,1,.17,0,.27.27,0,0,1,.12.12l.62,1.67a1.24,1.24,0,0,0,1.18.77l1.77,0a.17.17,0,0,1,.14.06.19.19,0,0,1,.07.15l-.05,1.78a1.2,1.2,0,0,0,.78,1.16l1.66.62a.27.27,0,0,1,.12.12s0,.11,0,.17l-.72,1.62a1.21,1.21,0,0,0,.26,1.38l1.3,1.22a.19.19,0,0,1,.07.15.2.2,0,0,1-.07.15L414,99.45A1.18,1.18,0,0,0,413.77,100.81Z"/><path class="cls-25" d="M403.63,89.28A8.73,8.73,0,1,0,412.36,98,8.74,8.74,0,0,0,403.63,89.28Zm0,16.46A7.73,7.73,0,1,1,411.35,98,7.74,7.74,0,0,1,403.63,105.74Z"/><path class="cls-25" d="M406.76,96.17l-1.82-.26-.82-1.65a.54.54,0,0,0-.94,0l-.82,1.65-1.83.26a.55.55,0,0,0-.42.36.52.52,0,0,0,.14.55l1.31,1.28-.31,1.82a.53.53,0,0,0,.21.51.56.56,0,0,0,.56,0l1.62-.87,1.64.87a.71.71,0,0,0,.24.06.51.51,0,0,0,.31-.11.52.52,0,0,0,.22-.51l-.32-1.82,1.32-1.28a.53.53,0,0,0,.13-.55A.55.55,0,0,0,406.76,96.17Zm-2,1.64a.47.47,0,0,0-.15.45l.18,1-.94-.49a.6.6,0,0,0-.49,0l-.93.49.18-1a.48.48,0,0,0-.16-.45l-.76-.75,1.06-.15a.52.52,0,0,0,.39-.28l.46-.95.47.95a.53.53,0,0,0,.4.28l1,.15Z"/></svg>