<svg id="Capa_1" data-name="Capa 1" xmlns="http://www.w3.org/2000/svg" xmlns:xlink="http://www.w3.org/1999/xlink" viewBox="0 0 175.12 522.72"><defs><style>.cls-1{fill:none;}.cls-2{clip-path:url(#clip-path);}.cls-3{fill:#a7a6a6;}</style><clipPath id="clip-path"><rect class="cls-1" width="175.12" height="522.72"/></clipPath></defs><title>insumos</title><g class="cls-2"><path class="cls-3" d="M3.44,512.58l42.47,0a58.87,58.87,0,0,0,57.66-52.14,60.25,60.25,0,0,0-1.34-21.07,59.74,59.74,0,0,0-8.58-19.29A59,59,0,0,0,59.7,396.13a58,58,0,0,0-10.46-1.67c-3.53-.23-7.08-.13-10.62-.16H17.39l-84.95,0H-78.18c-.88,0-1.77,0-2.65-.05a19.46,19.46,0,0,1-2.65-.22,26.85,26.85,0,0,1-5.18-1.19,27.72,27.72,0,0,1-15.73-13.56,28,28,0,0,1-1.87-20.7,27.87,27.87,0,0,1,12.93-16.27A27.13,27.13,0,0,1-83.27,339a42.73,42.73,0,0,1,5.3-.24h69l84.94,0H97.24c3.54,0,7.08.1,10.6-.27a58.62,58.62,0,0,0,29.33-11.18A59.42,59.42,0,0,0,151.62,312a57.56,57.56,0,0,0,8.13-19.43,58.88,58.88,0,0,0,1.3-10.5,60.24,60.24,0,0,0-.49-10.57,58.54,58.54,0,0,0-6.53-20A59.41,59.41,0,0,0,140.82,235a58.58,58.58,0,0,0-18.12-10.75A59.42,59.42,0,0,0,102,220.67H-79.89l-1.34-.06-1.33-.07c-.44,0-.88-.13-1.32-.19l-1.33-.2c-.44-.07-.86-.21-1.3-.31a18.73,18.73,0,0,1-2.55-.77,27.86,27.86,0,0,1-15.61-13.84,27.77,27.77,0,0,1-1.54-20.81,27.85,27.85,0,0,1,13.45-16,27.77,27.77,0,0,1,10.18-3.07l2.67-.13H-8.23l21.23,0a54.27,54.27,0,0,0,20.49-4.64,54.48,54.48,0,0,0,28.42-29.85,54.92,54.92,0,0,0,3.66-20.69V30.46a23.93,23.93,0,0,0-.36-5.23,15.42,15.42,0,0,0-30.1,0,23.8,23.8,0,0,0-.36,5.22V110.1a23.77,23.77,0,0,1-2,10.45A23.31,23.31,0,0,1,26.33,129a23.32,23.32,0,0,1-9.47,4.86,19.91,19.91,0,0,1-5.33.54c-1.77-.05-3.53-.06-5.31-.05H-78.72a59.16,59.16,0,0,0-20.77,3.39,59,59,0,0,0-31.61,26.75,58.89,58.89,0,0,0-6.78,19.92,59.47,59.47,0,0,0,.71,21,58.87,58.87,0,0,0,22.54,34.74,58.2,58.2,0,0,0,18.9,9.26,59.24,59.24,0,0,0,10.39,1.93c3.51.37,7,.24,10.59.27l85,0h90.26a41.25,41.25,0,0,1,5.32.23,27.09,27.09,0,0,1,10.08,3.3,27.8,27.8,0,0,1,13,16.26A28.71,28.71,0,0,1,129.93,282a27.42,27.42,0,0,1-2.8,10.23,27.74,27.74,0,0,1-15.58,13.79,17.41,17.41,0,0,1-2.55.77,19.55,19.55,0,0,1-2.62.51c-.44.06-.87.14-1.32.18l-1.33.07-1.33.07H26.74l-84.95,0H-79.44a59.63,59.63,0,0,0-20.78,3.63,59.44,59.44,0,0,0-31.35,27.2,59.18,59.18,0,0,0-5.6,41.13,59.13,59.13,0,0,0,22.78,34.7,57.46,57.46,0,0,0,19,9.18A58.53,58.53,0,0,0-85,425.33c3.52.33,7.07.22,10.61.24H45.09l2.65.14c.88.09,1.75.25,2.63.38s1.72.42,2.58.63a27.7,27.7,0,0,1,16.19,13,27,27,0,0,1,3.28,10,29,29,0,0,1-.68,10.54,27.84,27.84,0,0,1-12.16,16.78,27.19,27.19,0,0,1-9.87,3.75c-3.5.61-7.06.36-10.59.41H7.26c-1.77,0-3.54-.06-5.31.07a16.1,16.1,0,0,0-5.09,1.38,15.7,15.7,0,0,0-8.74,17.59,15.86,15.86,0,0,0,5.49,8.85A15.9,15.9,0,0,0,3.44,512.58Zm0,0a15.71,15.71,0,0,1-15.32-12.32,15.68,15.68,0,0,1,8.73-17.6A16.17,16.17,0,0,1,2,481.27c1.77-.13,3.54,0,5.31-.08H39.12c3.53-.06,7.09.19,10.59-.42A27,27,0,0,0,59.55,477a27.74,27.74,0,0,0,12.14-16.75,29.35,29.35,0,0,0,.68-10.52,27.32,27.32,0,0,0-3.28-10,27.63,27.63,0,0,0-16.16-12.92c-.86-.21-1.7-.47-2.57-.63s-1.75-.29-2.63-.38l-2.64-.13H-74.37c-3.54,0-7.09.1-10.62-.23a59.78,59.78,0,0,1-10.45-1.87,58.12,58.12,0,0,1-19-9.19,59.28,59.28,0,0,1-22.84-34.79,59.27,59.27,0,0,1,5.6-41.24,59.54,59.54,0,0,1,31.44-27.3,59.71,59.71,0,0,1,20.84-3.65H102.4l1.32-.07,1.32-.06c.43,0,.87-.13,1.3-.19a28.16,28.16,0,0,0,5.12-1.26A27.38,27.38,0,0,0,129.64,282a28.16,28.16,0,0,0-1-10.45,27.34,27.34,0,0,0-22.85-19.34,46.43,46.43,0,0,0-5.28-.22H95.15L10.2,252H-74.75c-3.53,0-7.08.11-10.62-.26a58.94,58.94,0,0,1-10.46-1.94,58.61,58.61,0,0,1-19-9.31,59.33,59.33,0,0,1-22.71-35,59.66,59.66,0,0,1-.72-21.19,59.17,59.17,0,0,1,6.82-20.07,59.45,59.45,0,0,1,31.83-27,59.69,59.69,0,0,1,20.93-3.42h85c3.54-.13,7.11.42,10.51-.48A22.69,22.69,0,0,0,26,128.65a22.93,22.93,0,0,0,6.27-8.3,23.37,23.37,0,0,0,1.92-10.25V30.46a24,24,0,0,1,.37-5.34,16,16,0,0,1,31.17,0,24.15,24.15,0,0,1,.38,5.35v79.63A55.4,55.4,0,0,1,62.38,131a55,55,0,0,1-28.7,30.11A54.74,54.74,0,0,1,13,165.75H-8.23l-42.48,0-21.23,0h-8l-2.63.13a27.34,27.34,0,0,0-10,3,27.41,27.41,0,0,0-13.25,15.71,27.33,27.33,0,0,0,1.52,20.49,27.4,27.4,0,0,0,15.36,13.64,18.71,18.71,0,0,0,2.52.76c.43.1.85.24,1.28.31l1.31.2c.43.06.86.14,1.3.18l1.31.07,1.32.07h54.42l84.95,0H102A59.69,59.69,0,0,1,122.82,224,59,59,0,0,1,141,234.8a59.87,59.87,0,0,1,13.28,16.5,58.72,58.72,0,0,1,6.55,20.13A62.06,62.06,0,0,1,160,292.6a58.15,58.15,0,0,1-8.17,19.53,60,60,0,0,1-14.53,15.4,59,59,0,0,1-29.47,11.22c-3.53.36-7.08.24-10.62.26H76l-84.94,0H-78a42.24,42.24,0,0,0-5.28.24,27,27,0,0,0-10,3.28,27.73,27.73,0,0,0-12.86,16.17,27.79,27.79,0,0,0,1.85,20.58,27.57,27.57,0,0,0,15.64,13.49,27.39,27.39,0,0,0,5.14,1.19,23.3,23.3,0,0,0,2.64.22c.88.06,1.77,0,2.65,0H38.62c3.54,0,7.09-.08,10.62.16a57.22,57.22,0,0,1,10.48,1.68,59,59,0,0,1,34,24,59.84,59.84,0,0,1,8.58,19.31,60.9,60.9,0,0,1,1.34,21.1,58.95,58.95,0,0,1-57.72,52.15Z"/><path class="cls-3" d="M94,92.28a15.67,15.67,0,0,0,15.12-19.52,15.87,15.87,0,0,0-3.24-6.24c-1.56-1.79-3.18-3.53-4.77-5.3L91.58,50.66,72.45,29.53,62.88,19c-.4-.44-.79-.89-1.21-1.29l-.62-.62-.68-.56A15.49,15.49,0,0,0,38.49,19a15.37,15.37,0,0,0,.38,19.47C40.41,40.26,42,42,43.6,43.78L53.12,54.4l19,21.23,9.51,10.61a16.52,16.52,0,0,0,5.5,4.43A15.76,15.76,0,0,0,94,92.28Zm0,0a15.88,15.88,0,0,1-6.9-1.58,16.57,16.57,0,0,1-5.53-4.41L72,75.72,52.91,54.59,43.34,44c-1.59-1.77-3.2-3.5-4.77-5.3A15.89,15.89,0,0,1,57.66,14.14a15.39,15.39,0,0,1,3,2l.7.58.63.64c.44.42.83.87,1.22,1.31l9.52,10.62,19,21.22,9.52,10.61c1.58,1.78,3.19,3.52,4.74,5.33A15.73,15.73,0,0,1,94,92.28Z"/><path class="cls-3" d="M7.29,92.46a15.76,15.76,0,0,0,6.88-1.61,16.52,16.52,0,0,0,5.5-4.43l9.52-10.61,19-21.23L57.73,44c1.58-1.78,3.2-3.53,4.74-5.32a15.7,15.7,0,0,0,3.18-6.21,15.43,15.43,0,0,0-15-19.18A15.21,15.21,0,0,0,41,16.68l-.68.56-.62.62c-.42.4-.82.85-1.21,1.29L28.87,29.71,9.73,50.85.16,61.41C-1.42,63.18-3,64.92-4.6,66.71A15.87,15.87,0,0,0-7.84,73,15.67,15.67,0,0,0,7.29,92.46Zm0,0a15.69,15.69,0,0,1-12.39-6A15.69,15.69,0,0,1-4.73,66.6c1.55-1.81,3.16-3.55,4.74-5.33L9.52,50.66l19-21.23,9.51-10.61c.4-.44.79-.89,1.22-1.31l.64-.64.7-.58a15.1,15.1,0,0,1,3-2,15.88,15.88,0,0,1,19.55,4.55,16,16,0,0,1,2.85,13.67,16.17,16.17,0,0,1-3.3,6.35c-1.57,1.8-3.18,3.53-4.77,5.3L48.42,54.77,29.29,75.9,19.72,86.47a16.57,16.57,0,0,1-5.53,4.41A15.88,15.88,0,0,1,7.29,92.46Z"/></g></svg>