<svg id="Capa_1" data-name="Capa 1" xmlns="http://www.w3.org/2000/svg" viewBox="0 0 412.75 252.85"><defs><style>.cls-1{fill:#f8f8f8;}.cls-2{fill:#122b38;}.cls-3{fill:#fff;}.cls-4,.cls-5{fill:#b9b8b8;}.cls-23,.cls-25,.cls-37,.cls-4{opacity:0.7;}.cls-6{fill:#bec2c8;}.cls-7{fill:#d9dce3;}.cls-8{fill:#9ebac8;}.cls-9{fill:#0099d6;}.cls-10{fill:#e69027;}.cls-11{fill:#2e4758;}.cls-12{fill:#328d9f;}.cls-13{fill:#14b3b0;}.cls-14{fill:#2d283e;}.cls-15{fill:#f7cec4;}.cls-16{fill:#363050;}.cls-17{fill:#3e3d5e;}.cls-18{fill:#e1aea1;}.cls-19{fill:#c9958a;}.cls-20{fill:#be8477;}.cls-21{fill:#303747;}.cls-22{fill:#272f38;}.cls-23,.cls-24{fill:#d0ae00;}.cls-25,.cls-26{fill:#f4ca00;}.cls-27{fill:#0c5e63;}.cls-28{fill:#c18a7e;}.cls-29{fill:#2c263a;}.cls-30{fill:#a77063;}.cls-31{fill:#3b3964;}.cls-32{fill:#e4dbe0;}.cls-33{fill:#8e8e8d;}.cls-34{fill:#bebebe;}.cls-35{fill:#d4d4d4;}.cls-36{opacity:0.3;}</style></defs><title>insumos</title><rect class="cls-1" x="76.86" y="27.86" width="269.23" height="183.32" rx="5.01"/><path class="cls-2" d="M346.1,32.87a5,5,0,0,0-5-5H81.87a5,5,0,0,0-5,5v6.55H346.1Z"/><path class="cls-2" d="M76.86,205.87a5,5,0,0,0,5,5H341.09a5,5,0,0,0,5-5v-3.76H76.86Z"/><path class="cls-3" d="M87.9,32.42a1.3,1.3,0,0,1,.91,2.44,1.3,1.3,0,1,1-.91-2.44Z"/><path class="cls-3" d="M92.83,34.94a1.3,1.3,0,1,1,1.43-1.16A1.32,1.32,0,0,1,92.83,34.94Z"/><path class="cls-3" d="M97.23,34.94a1.32,1.32,0,0,1-1.16-1.43,1.3,1.3,0,1,1,1.16,1.43Z"/><path class="cls-4" d="M157.34,135.9l-.3,0c-1.28,0-2.61-.89-4-1.83a8,8,0,0,0-2.79-1.47c-.52.15-1.16,1.91-1.51,2.86-.73,2-1.47,4-3.19,4.29l-.35,0c-1.55,0-2.75-1.51-4-3.11-.62-.8-1.78-2.27-2.26-2.27s-1.64,1.47-2.26,2.27c-1.26,1.6-2.45,3.11-4,3.11l-.35,0c-1.72-.28-2.47-3.5-3.19-5.47-.35-.95-1-4.05-1.45-4.05h0c-.66,0-1.85,2-2.83,2.65-1.41,1-4,2.87-4,2.87v.08h-.32l-7.78,32s-1,3,.6,4.27,5.85-2.06,7.7-3a2.5,2.5,0,0,1,1.42-.25,2.23,2.23,0,0,1,1.13.69,47,47,0,0,0,5.52,5.85c1.55,1.23,2.62-2,2.62-2l7.2-29.63,7.2,29.63s1.07,3.27,2.62,2a47.75,47.75,0,0,0,5.53-5.84,2.23,2.23,0,0,1,1.13-.7,2.68,2.68,0,0,1,1.42.25c1.86.91,6.11,4.28,7.7,3s.61-4.26.61-4.26Z"/><path class="cls-5" d="M175.77,102.09c-1.63-1.25-3.31-2.55-3.12-4.21.16-1.45,1.58-2.6,3.09-3.81.71-.57,2.36-1.89,2.29-2.34s-2-1.1-2.84-1.43c-1.93-.71-3.74-1.37-4.23-2.86s.6-3.1,1.74-4.8c.52-.78,1.61-2.4,1.45-2.83s-2.2-.44-3.14-.48c-2-.08-4-.15-4.9-1.42s-.39-3.12.17-5.09c.25-.91.79-2.79.51-3.14a.77.77,0,0,0-.42-.07,12.25,12.25,0,0,0-2.72.58,13.13,13.13,0,0,1-3.35.66,2.92,2.92,0,0,1-1.75-.49c-1.26-.93-1.34-2.86-1.42-4.9,0-.94-.11-2.9-.48-3.15h0a7.78,7.78,0,0,0-2.83,1.46c-1.42.95-2.76,1.85-4,1.85a2.36,2.36,0,0,1-.75-.12c-1.49-.48-2.16-2.3-2.87-4.22-.32-.88-1-2.72-1.43-2.84s-1.61,1.47-2.23,2.26c-1.27,1.61-2.47,3.13-4,3.13s-2.76-1.52-4-3.13c-.62-.79-1.78-2.26-2.24-2.26s-1.1,2-1.43,2.84c-.7,1.92-1.37,3.74-2.86,4.22a2.37,2.37,0,0,1-.76.12h0c-1.28,0-2.62-.9-4-1.85a8.1,8.1,0,0,0-2.77-1.46c-.43.25-.5,2.21-.54,3.15-.08,2-.15,4-1.42,4.9a2.9,2.9,0,0,1-1.75.49,13,13,0,0,1-3.34-.66,12.32,12.32,0,0,0-2.73-.58.81.81,0,0,0-.42.07c-.27.35.26,2.23.52,3.14.56,2,1.08,3.83.16,5.09s-2.85,1.34-4.9,1.42c-.94,0-2.89.11-3.14.49s.93,2,1.46,2.82c1.14,1.71,2.21,3.31,1.73,4.8s-2.3,2.15-4.22,2.86c-.88.33-2.72,1-2.84,1.44s1.57,1.76,2.28,2.33c1.51,1.21,2.94,2.36,3.1,3.81.19,1.66-1.5,3-3.12,4.21-.73.56-2.24,1.73-2.26,2.18s2,1.1,2.84,1.43c1.92.7,3.73,1.37,4.22,2.86s-.59,3.09-1.73,4.8c-.53.77-1.61,2.4-1.46,2.82s2.2.45,3.14.49c2,.07,4,.15,4.9,1.42s.4,3.12-.16,5.09c-.26.91-.79,2.79-.51,3.14a.74.74,0,0,0,.41.07,12.32,12.32,0,0,0,2.73-.58,13,13,0,0,1,3.34-.66,2.9,2.9,0,0,1,1.75.49c1.27.92,1.34,2.86,1.42,4.9,0,.94.11,2.9.48,3.15h0a7.75,7.75,0,0,0,2.82-1.46c1.42-.95,2.76-1.85,4-1.85a2.37,2.37,0,0,1,.76.12c1.49.48,2.16,2.3,2.86,4.22.33.88,1,2.72,1.43,2.84s1.62-1.47,2.24-2.26c1.27-1.61,2.46-3.13,4-3.13s2.76,1.52,4,3.13c.61.79,1.77,2.26,2.23,2.26s1.11-2,1.43-2.84c.71-1.92,1.38-3.74,2.86-4.22a2.46,2.46,0,0,1,.76-.12c1.28,0,2.62.9,4,1.85a8.28,8.28,0,0,0,2.77,1.46c.43-.25.51-2.21.54-3.15.08-2,.16-4,1.42-4.9a2.92,2.92,0,0,1,1.75-.49,13.13,13.13,0,0,1,3.35.66,12.25,12.25,0,0,0,2.72.58.77.77,0,0,0,.42-.07c.28-.35-.26-2.23-.51-3.14-.56-2-1.09-3.83-.17-5.09s2.85-1.35,4.9-1.42c.94,0,2.89-.11,3.15-.49s-.94-2.05-1.46-2.82c-1.14-1.7-2.22-3.31-1.74-4.8s2.3-2.16,4.23-2.86c.88-.33,2.71-1,2.84-1.44C178,103.82,176.49,102.65,175.77,102.09Zm-37.3,23.22A27.31,27.31,0,1,1,165.78,98,27.31,27.31,0,0,1,138.47,125.31Z"/><rect class="cls-6" x="234.21" y="77.15" width="88.4" height="21.72" rx="3.48"/><circle class="cls-7" cx="308.75" cy="88.01" r="7.43" transform="translate(28.2 244.1) rotate(-45)"/><rect class="cls-7" x="233.49" y="52.11" width="88.4" height="21.72" rx="3.48"/><circle class="cls-6" cx="246.9" cy="62.09" r="7.43" transform="translate(45.11 217.31) rotate(-51.68)"/><rect class="cls-3" x="259.55" y="56.95" width="57.72" height="1.02"/><rect class="cls-3" x="259.55" y="61.58" width="57.72" height="1.02"/><rect class="cls-3" x="282.19" y="66.63" width="34.71" height="1.02"/><rect class="cls-7" x="234.21" y="103.05" width="88.4" height="21.72" rx="3.48"/><circle class="cls-6" cx="247.62" cy="113.03" r="7.43" transform="translate(96.23 339.25) rotate(-80.74)"/><rect class="cls-3" x="260.28" y="107.9" width="57.72" height="1.02"/><rect class="cls-3" x="260.28" y="112.52" width="57.72" height="1.02"/><rect class="cls-3" x="282.91" y="117.58" width="34.71" height="1.02"/><rect class="cls-3" x="238.75" y="82.67" width="57.72" height="1.02"/><rect class="cls-3" x="238.75" y="87.29" width="57.72" height="1.02"/><rect class="cls-3" x="238.75" y="93.58" width="34.71" height="1.02"/><rect class="cls-6" x="234.21" y="130.11" width="88.4" height="21.72" rx="3.48"/><circle class="cls-7" cx="308.75" cy="140.97" r="7.43" transform="translate(100.62 409.08) rotate(-76.72)"/><rect class="cls-3" x="238.75" y="135.62" width="57.72" height="1.02"/><rect class="cls-3" x="238.75" y="140.24" width="57.72" height="1.02"/><rect class="cls-3" x="238.75" y="145.81" width="34.71" height="1.02"/><path class="cls-8" d="M198.69,96.73a6.36,6.36,0,1,1-1.12,8.92A6.36,6.36,0,0,1,198.69,96.73Zm6.86,8.84a4.83,4.83,0,1,0-6.78-.86A4.85,4.85,0,0,0,205.55,105.57Z"/><path class="cls-8" d="M214.29,99l-.45-1.26-5.29,1.78a6.25,6.25,0,0,1,.32,1.2Z"/><path class="cls-8" d="M209,109.16l1.05-.83-2.44-2.66a6.24,6.24,0,0,1-.83.88Z"/><path class="cls-8" d="M191,100.36l5.28,1.3a6.85,6.85,0,0,1,.2-1.49l-5.11-1.1Z"/><path class="cls-8" d="M203.11,91.74l-1.34,0,.06,3.68a6.1,6.1,0,0,1,1.35,0Z"/><path class="cls-8" d="M196.73,111.23l1.1.78,2.63-4.86a6,6,0,0,1-1.22-.4Z"/><path class="cls-9" d="M209.67,108.3a3.86,3.86,0,0,1,2.7-.8,3.67,3.67,0,0,1,1.48.43,3.81,3.81,0,0,1,1.27,1.06,3.88,3.88,0,1,1-6.85,3.27,3.81,3.81,0,0,1-.05-1.54A3.9,3.9,0,0,1,209.67,108.3Zm3.83,4.93a2.37,2.37,0,0,0,.42-3.31,2.36,2.36,0,0,0-1.68-.9,2.41,2.41,0,0,0-2.52,2,2.47,2.47,0,0,0,0,.94,2.41,2.41,0,0,0,.44.91A2.36,2.36,0,0,0,213.5,113.23Z"/><path class="cls-10" d="M194.34,111.44c.14-.1.28-.2.42-.28a3.89,3.89,0,0,1,5,1,3.79,3.79,0,0,1,.75,1.67,3.85,3.85,0,0,1,0,1.55,4,4,0,0,1-1.41,2.23,3.89,3.89,0,0,1-4.77-6.14Zm3.83,4.94a2.35,2.35,0,0,0,.87-2.31,2.25,2.25,0,0,0-.45-1,2.38,2.38,0,0,0-2.17-.89,2.41,2.41,0,0,0-.89.3l-.26.18a2.36,2.36,0,0,0,2.9,3.73Z"/><path class="cls-11" d="M186,96a3.9,3.9,0,0,1,4.92.12,3.49,3.49,0,0,1,.53.56,4.59,4.59,0,0,1,.42.66,3.9,3.9,0,0,1-1.1,4.79,2.19,2.19,0,0,1-.37.25,3.73,3.73,0,0,1-1.45.53A3.89,3.89,0,0,1,186,96ZM189.8,101a2.35,2.35,0,0,0,.67-2.91,2.06,2.06,0,0,0-.25-.4,2.73,2.73,0,0,0-.33-.35,2.36,2.36,0,1,0-1.19,4.13,2.18,2.18,0,0,0,.88-.32A1.07,1.07,0,0,0,189.8,101Z"/><path class="cls-12" d="M200.2,86a3.88,3.88,0,0,1,6,4.56,3.64,3.64,0,0,1-.87,1.28c-.1.1-.22.2-.33.29a3.9,3.9,0,0,1-4.92-.12,4.68,4.68,0,0,1-.53-.56,4.59,4.59,0,0,1-.42-.66A3.91,3.91,0,0,1,200.2,86ZM204,91a1.16,1.16,0,0,0,.2-.18,2.26,2.26,0,0,0,.53-.77,2.36,2.36,0,1,0-4.29.13,2.06,2.06,0,0,0,.25.4,2.73,2.73,0,0,0,.33.35A2.35,2.35,0,0,0,204,91Z"/><path class="cls-13" d="M214.3,94.27a3.88,3.88,0,1,1,.72,6.58,3.75,3.75,0,0,1-1.4-1.13,3.85,3.85,0,0,1-.56-3.77,4,4,0,0,1,.83-1.31A4.89,4.89,0,0,1,214.3,94.27Zm3.83,4.93a2.36,2.36,0,1,0-2.89-3.73,1.84,1.84,0,0,0-.25.23,2.23,2.23,0,0,0-.51.79,2.35,2.35,0,0,0,.34,2.3,2.39,2.39,0,0,0,1.77.91A2.34,2.34,0,0,0,218.13,99.2Z"/><path class="cls-14" d="M15.45,227.1a7.38,7.38,0,0,1,.1,2.2,46.75,46.75,0,0,1-1.35,5.2,2.86,2.86,0,0,1-3.35,2.09c-1-.23-2-1.62-1-4.08A30.08,30.08,0,0,1,12.08,228S13.69,226.12,15.45,227.1Z"/><path class="cls-15" d="M12.63,226.32a12,12,0,0,1-.45,2.09,12.3,12.3,0,0,0-1.34,4,1.66,1.66,0,0,0,.5,1.52,1.45,1.45,0,0,0,2.12-1c.53-1.77,2.07-5,2.09-6.6S12.63,226.32,12.63,226.32Z"/><path class="cls-14" d="M29.83,227.5a7.55,7.55,0,0,0-.09,2.2,46.28,46.28,0,0,0,1.34,5.2A2.88,2.88,0,0,0,34.43,237c1-.23,2-1.62,1-4.08a30.85,30.85,0,0,0-2.26-4.56S31.59,226.52,29.83,227.5Z"/><path class="cls-15" d="M32.66,226.71a12.44,12.44,0,0,0,.44,2.09,12.69,12.69,0,0,1,1.35,4,1.72,1.72,0,0,1-.5,1.53,1.46,1.46,0,0,1-2.12-1c-.53-1.77-2.08-5-2.09-6.61S32.66,226.71,32.66,226.71Z"/><path class="cls-16" d="M15.51,132.78c-4.52,19.25-2.12,46-2.12,46l-1.71,47.83h5.07L24.92,178l2.95-27.27,1.76,0L30,178.35l-1.35,48.28,5.38.09,7.47-50.32s5.39-15.89-2.38-44.49C39.08,131.91,16,130.6,15.51,132.78Z"/><path class="cls-11" d="M31.55,98c-8.2-1.75-5.4,6.11-5.4,6.11,9.21,5.56,14.05,6.07,23.13,7.84,2.39.46,5.26-2.38,4.67-4.15C52.33,102.94,35.24,98.84,31.55,98Z"/><path class="cls-11" d="M47.74,105.56c-2.74,5,.3,6.72,2.8,6.4,4.35-.58,5.83-4.53,7-8.14,1.33-4,2.86-9.71,4.25-13.66.7-2-1.12-3.09-2.7-2.82-2.43.43-2,2-5.1,7.22C52,97.94,48.54,104.09,47.74,105.56Z"/><path class="cls-17" d="M29.81,150.81l-.36-.17c.92-2,1-13.79,1-14h.4C30.89,137.41,30.77,148.71,29.81,150.81Z"/><path class="cls-17" d="M28,150.43l-.39,0c.32-3.13-.33-13.55-.34-13.72l.39,0C27.73,137.34,28.35,147.27,28,150.43Z"/><path class="cls-16" d="M11.59,83.36s-1.12,5.48,0,8.27c2.31,5.66,9.14,5.86,15.2,4.83,9.69-1.64,7.81-7.76,7.92-14.77C34.74,81.37,20.18,75.18,11.59,83.36Z"/><path class="cls-11" d="M21.21,96.92a15.86,15.86,0,0,0-10.63,5.27c-3.3,3.65.37,2.06.53,7.18.06,2,1.76,10.52,1.76,10.52s1.59,10,2.11,18.54c0,0,0,.85,1.72,1,0,0,18.18.1,22.65-.8,0,0,.87-.09,1.13-1.29,0,0-1.46-8.39-2.28-14.54-.56-4.22,1.32-8.78,1.42-11.46.12-3.1-1.28-5.69-3-8.23S33.16,98,29.33,97.33C27.33,97,21.21,96.92,21.21,96.92Z"/><path class="cls-18" d="M60.66,90a6.37,6.37,0,0,0,1.63-3.3,2.52,2.52,0,0,0-.16-1.41l.81-.14a18.39,18.39,0,0,0-2-1.55,5.07,5.07,0,0,0-3,0c-.49.53-.5.6-1,4.21L57,89.34S58.05,91.1,60.66,90Z"/><path class="cls-19" d="M59.31,85.22a.91.91,0,0,1,.7-.67c.34-.1.62.19.81.31a1.39,1.39,0,0,1,.34.3l-.42,1.22s-.78.73-1.17.39A1.45,1.45,0,0,1,59.31,85.22Z"/><path class="cls-18" d="M62.86,86.42s.6-.94.12-1.29c-.32-.23-.6.1-1.2.49S61,86,60.46,86.73c-.13.21,1.34,1.06,1.69.62Z"/><path class="cls-18" d="M27.16,93.12a26.06,26.06,0,0,0,1,4.33,3,3,0,0,1-2.84,4.29,4.12,4.12,0,0,1-3.89-4.39c.3-2.7.28-1.77.52-4.94C21.92,92.41,25,91.44,27.16,93.12Z"/><path class="cls-20" d="M27.47,94.9s-1.9.78-5.7-.68l.15-1.86S26.93,93.54,27.47,94.9Z"/><path class="cls-16" d="M34.62,85c.28-2.26.84-7,0-10.25-2-7.62-3.72-8.54-10.08-8.85a11,11,0,0,0-10,6.19C13.62,74,13.17,77,12.08,88.4,14.05,88.74,24.94,83.8,34.62,85Z"/><path class="cls-15" d="M18.14,83.58c.16,1.16-.38,2.21-1.21,2.32s-1.65-.73-1.81-1.89.37-2.21,1.21-2.33S18,82.41,18.14,83.58Z"/><path class="cls-18" d="M17.43,85.7S19.77,94.1,28.35,95c.77.08,4.48-1.81,4.72-7.6.21-4.91-.09-5.91-.78-7.88s-5.11-7.05-8-7.31C23.32,72.34,13.41,68.47,17.43,85.7Z"/><path class="cls-16" d="M24.39,73s3.91,5.62,7.9,6.48c.17-4.41,2.54-13.44-8.91-13.53C13,65.89,10.64,83.37,11.18,89.22a29.65,29.65,0,0,0,10.2,4.51S18.65,81.23,24.39,73Z"/><path class="cls-16" d="M34.7,83.2l-.19,0c3.32-12.8-3.22-15.85-5-16.49l.07-.19C31.36,67.11,38.08,70.22,34.7,83.2Z"/><path class="cls-20" d="M30.88,86.93a4.65,4.65,0,0,1,.67.91c.05.23-.62.54-.82.59s.18-.31.31-.41.11-.35,0-.52S30.69,87,30.88,86.93Z"/><path class="cls-21" d="M25.92,80.71a7.73,7.73,0,0,1,4-.12s.12-.11-.21-.19a6.42,6.42,0,0,0-3.74.18S25.83,80.66,25.92,80.71Z"/><path class="cls-20" d="M32.19,89.8a6.5,6.5,0,0,1-3.42.2s-.1.09.18.16a5.45,5.45,0,0,0,3.17-.25S32.27,89.84,32.19,89.8Z"/><path class="cls-21" d="M31.45,80.83a5.62,5.62,0,0,1,3.19,0s.1-.09-.16-.17a4.74,4.74,0,0,0-2.95.06S31.38,80.78,31.45,80.83Z"/><path class="cls-16" d="M31.51,83.83a.48.48,0,0,0,.5.48h.08a.5.5,0,0,0,.49-.51v-.43a.49.49,0,0,0-.51-.49H32a.5.5,0,0,0-.49.51Z"/><path class="cls-16" d="M28,83.84c0,.27.23.28.51.28h.08c.27,0,.49,0,.49-.31v-.33a.47.47,0,0,0-.51-.44l-.08,0c-.28,0-.49.14-.49.42Z"/><path class="cls-21" d="M34.74,81.69c-8.28-3.53-10.49-9.4-10.51-9.46l.2,0c0,.06,2.21,5.84,10.39,9.33Z"/><path class="cls-16" d="M14.69,72.71l-.17-.1c-2.11,3.67-4.14,8-3.39,15.88l.22.09C10.57,80.67,12.58,76.3,14.69,72.71Z"/><path class="cls-22" d="M52,107.94a6.49,6.49,0,0,0-3.25-4.15l.19-.42a6.81,6.81,0,0,1,3.52,4.48Z"/><path class="cls-23" d="M105.42,146.66l-.28.14c-1.21.45-2.8.06-4.47-.34a8.28,8.28,0,0,0-3.18-.42c-.44.32-.43,2.23-.43,3.26,0,2.14,0,4.34-1.54,5.2a1.87,1.87,0,0,1-.32.15c-1.48.55-3.15-.47-4.91-1.56-.88-.54-2.5-1.54-3-1.37s-1,2-1.36,3c-.63,2-1.24,3.83-2.72,4.38a1.89,1.89,0,0,1-.34.09c-1.73.35-3.57-2.46-5-4.09-.66-.78-2.37-3.51-2.81-3.35h0c-.63.23-1.07,2.56-1.77,3.53-1,1.4-2.8,4.14-2.8,4.14l0,.07a1.78,1.78,0,0,1-.3.12l3.83,33.24s.13,3.19,2.07,3.87,4.85-4,6.3-5.54a2.61,2.61,0,0,1,1.27-.73,2.25,2.25,0,0,1,1.32.26,47.93,47.93,0,0,0,7.32,3.63c1.9.63,1.78-2.87,1.78-2.87l-3.55-30.77,17.27,25.71s2.18,2.75,3.22,1a47.92,47.92,0,0,0,3.21-7.51,2.35,2.35,0,0,1,.84-1.06,2.59,2.59,0,0,1,1.44-.26c2.08.21,7.32,1.93,8.38.12s-.92-4.27-.92-4.27Z"/><path class="cls-24" d="M111.11,108c-2-.63-4.06-1.27-4.46-2.92-.36-1.44.6-3,1.61-4.72.47-.79,1.58-2.63,1.35-3s-2.25-.36-3.21-.36c-2.08,0-4,0-5-1.25s-.53-3.16,0-5.18c.23-.93.7-2.86.4-3.21s-2.26.35-3.17.65c-2,.64-3.85,1.25-5.17.37s-1.47-2.85-1.63-4.92c-.07-1-.23-2.93-.62-3.17a.8.8,0,0,0-.41.08,12.57,12.57,0,0,0-2.4,1.51,13.71,13.71,0,0,1-3,1.81,2.9,2.9,0,0,1-1.84.14c-1.53-.43-2.28-2.25-3.07-4.17-.36-.88-1.12-2.72-1.57-2.83h0c-.62.23-1.49,1.43-2.18,2.39-1,1.4-2,2.73-3.2,3.18a2.56,2.56,0,0,1-.76.15c-1.59.06-2.87-1.43-4.22-3-.61-.72-1.9-2.24-2.36-2.2s-1,2-1.34,2.94c-.64,2-1.24,3.85-2.74,4.4s-3.16-.48-4.93-1.57c-.87-.54-2.49-1.53-2.93-1.37s-.37,2.26-.37,3.21c0,2.08,0,4-1.24,5a2.38,2.38,0,0,1-.68.38h0c-1.21.45-2.81.07-4.49-.34a8.19,8.19,0,0,0-3.16-.42c-.32.39.3,2.28.6,3.19.64,2,1.25,3.84.37,5.16A2.93,2.93,0,0,1,43.76,99a13.52,13.52,0,0,1-3.42.55,11.73,11.73,0,0,0-2.8.41.82.82,0,0,0-.38.21c-.14.43,1,2,1.6,2.8,1.22,1.69,2.38,3.27,1.94,4.81s-2.24,2.28-4.17,3.07c-.88.36-2.71,1.12-2.82,1.57s1.61,1.62,2.38,2.18c1.68,1.22,3.27,2.37,3.34,4s-1.44,2.86-3,4.21c-.73.62-2.24,1.91-2.21,2.37s2.13,1.13,3,1.42c1.87.63,3.63,1.21,4.29,2.54.77,1.52-.39,3.35-1.5,5.11-.49.79-1.52,2.44-1.38,2.88s2.25.36,3.21.36c2.08,0,4,0,5,1.24s.52,3.16,0,5.18c-.22.93-.69,2.86-.39,3.21s2.25-.35,3.16-.65c2-.64,3.85-1.25,5.17-.36s1.47,2.84,1.63,4.91c.08.95.23,2.94.62,3.17a.84.84,0,0,0,.42-.08,12.05,12.05,0,0,0,2.39-1.51,14,14,0,0,1,3-1.81,3,3,0,0,1,1.84-.14c1.53.44,2.28,2.25,3.08,4.17.36.89,1.12,2.72,1.56,2.83h0a7.92,7.92,0,0,0,2.17-2.38c1-1.41,2-2.73,3.2-3.18a2.65,2.65,0,0,1,.77-.16c1.59-.06,2.86,1.44,4.21,3,.62.73,1.91,2.24,2.36,2.2s1-2,1.34-2.94c.64-2,1.25-3.84,2.74-4.39s3.17.47,4.94,1.56c.87.54,2.48,1.53,2.92,1.37s.37-2.25.37-3.21c0-2.08,0-4,1.24-5a2.86,2.86,0,0,1,.69-.37c1.22-.45,2.81-.07,4.5.34a8.34,8.34,0,0,0,3.15.42c.32-.4-.29-2.29-.59-3.19-.65-2-1.25-3.85-.37-5.17a3,3,0,0,1,1.49-1.09,13.62,13.62,0,0,1,3.43-.54,12.94,12.94,0,0,0,2.8-.41c.31-.12.37-.21.37-.21.14-.44-1-2-1.59-2.81-1.23-1.68-2.38-3.27-2-4.8s2.25-2.28,4.17-3.08c.88-.36,2.72-1.12,2.83-1.56s-1.61-1.63-2.38-2.18c-1.69-1.22-3.28-2.38-3.34-4s1.43-2.86,3-4.21c.73-.62,2.24-1.9,2.21-2.36S112,108.24,111.11,108ZM83.71,143.2a27.74,27.74,0,1,1,16.43-35.63A27.74,27.74,0,0,1,83.71,143.2Z"/><path class="cls-25" d="M106.48,146a2.44,2.44,0,0,1-.28.14c-1.21.45-2.8.06-4.48-.34a8.24,8.24,0,0,0-3.17-.42c-.44.32-.44,2.23-.44,3.26,0,2.13,0,4.34-1.53,5.2a1.87,1.87,0,0,1-.32.15c-1.48.55-3.15-.47-4.92-1.56-.87-.54-2.5-1.54-3-1.37s-1,2-1.36,3c-.64,2-1.24,3.83-2.72,4.38a2.14,2.14,0,0,1-.34.09c-1.73.35-3.58-2.46-5-4.09-.67-.78-2.38-3.51-2.81-3.35h0c-.62.23-1.06,2.56-1.76,3.52-1,1.41-2.81,4.15-2.81,4.15l0,.07a2.94,2.94,0,0,1-.31.12l3.84,33.24s.12,3.19,2.07,3.86,4.85-4,6.3-5.53a2.56,2.56,0,0,1,1.27-.73,2.27,2.27,0,0,1,1.32.26,47.93,47.93,0,0,0,7.32,3.63c1.9.63,1.77-2.87,1.77-2.87L91.69,160,109,185.72s2.17,2.75,3.22,1a49.31,49.31,0,0,0,3.21-7.51,2.27,2.27,0,0,1,.83-1.06,2.54,2.54,0,0,1,1.45-.26c2.08.21,7.32,1.93,8.38.12s-.92-4.27-.92-4.27Z"/><path class="cls-26" d="M112.16,107.31c-2-.63-4-1.27-4.46-2.92-.35-1.44.6-3,1.62-4.72.47-.79,1.58-2.63,1.35-3s-2.25-.36-3.21-.36c-2.08,0-4,0-5-1.25s-.52-3.16,0-5.18c.23-.93.69-2.86.39-3.21s-2.25.35-3.16.65c-2,.64-3.85,1.25-5.17.37S93,84.81,92.83,82.74c-.08-.95-.23-2.93-.62-3.17a.84.84,0,0,0-.42.08,12.85,12.85,0,0,0-2.39,1.51,14,14,0,0,1-3,1.81,2.9,2.9,0,0,1-1.84.14c-1.53-.43-2.28-2.25-3.07-4.17-.37-.88-1.13-2.72-1.57-2.83h0a7.81,7.81,0,0,0-2.18,2.38c-1,1.41-2,2.74-3.2,3.19a2.56,2.56,0,0,1-.76.15c-1.6.06-2.87-1.43-4.22-3-.62-.73-1.9-2.24-2.36-2.2s-1,2-1.34,2.94c-.64,2-1.24,3.85-2.74,4.4s-3.17-.48-4.94-1.57c-.86-.54-2.48-1.53-2.92-1.37s-.37,2.26-.37,3.21c0,2.08,0,4-1.24,5a2.38,2.38,0,0,1-.68.38h0c-1.22.45-2.81.06-4.5-.34a8.14,8.14,0,0,0-3.15-.42c-.32.39.3,2.28.59,3.19.65,2,1.26,3.84.37,5.16a2.86,2.86,0,0,1-1.49,1.09,13.6,13.6,0,0,1-3.42.55,11.73,11.73,0,0,0-2.8.41.9.9,0,0,0-.38.2c-.14.44,1,2,1.59,2.81,1.23,1.69,2.38,3.27,1.95,4.81s-2.25,2.28-4.17,3.07c-.88.36-2.72,1.12-2.83,1.56s1.61,1.63,2.39,2.19c1.68,1.22,3.27,2.37,3.33,4s-1.43,2.86-3,4.21c-.73.62-2.25,1.91-2.21,2.37s2.13,1.13,3,1.42c1.86.63,3.63,1.21,4.29,2.54.76,1.52-.39,3.35-1.5,5.11-.49.79-1.52,2.44-1.38,2.88s2.25.36,3.21.36c2.07,0,4,0,5,1.24s.52,3.16,0,5.18c-.23.93-.69,2.86-.4,3.21s2.26-.35,3.17-.65c2-.64,3.85-1.25,5.17-.36s1.47,2.83,1.63,4.91c.07,1,.23,2.94.62,3.17a.84.84,0,0,0,.42-.08,12.05,12.05,0,0,0,2.39-1.51,14,14,0,0,1,3-1.81,3,3,0,0,1,1.84-.14c1.53.43,2.28,2.25,3.08,4.17.36.89,1.11,2.72,1.56,2.83h0a7.81,7.81,0,0,0,2.18-2.38c1-1.41,2-2.73,3.2-3.18a2.65,2.65,0,0,1,.76-.16c1.6-.06,2.87,1.44,4.22,3,.62.73,1.9,2.24,2.36,2.2s1-2,1.34-2.94c.64-2,1.24-3.84,2.74-4.39s3.16.47,4.94,1.56c.86.54,2.48,1.53,2.92,1.37s.37-2.25.37-3.21c0-2.08,0-4,1.24-5a2.36,2.36,0,0,1,.68-.37c1.23-.45,2.82-.07,4.5.34a8.41,8.41,0,0,0,3.16.42c.32-.4-.3-2.29-.59-3.2-.65-2-1.26-3.84-.37-5.16a2.92,2.92,0,0,1,1.49-1.09,13.1,13.1,0,0,1,3.42-.54,12.75,12.75,0,0,0,2.8-.41,1,1,0,0,0,.38-.21c.14-.44-1-2-1.6-2.81-1.22-1.69-2.38-3.27-1.94-4.8s2.24-2.28,4.17-3.08c.88-.36,2.72-1.12,2.83-1.56s-1.61-1.63-2.39-2.18c-1.68-1.23-3.27-2.38-3.33-4s1.43-2.86,3-4.21c.73-.62,2.24-1.9,2.21-2.36S113.05,107.59,112.16,107.31Zm-27.4,35.24a27.74,27.74,0,1,1,16.44-35.63A27.74,27.74,0,0,1,84.76,142.55Z"/><path class="cls-27" d="M14.61,110.49c.57-8.37-2.62-9-2.62-9-7-1-5.79,18.69-5.64,25.28.05,2.44,3.1,4.86,4.77,4C15.74,128.5,14.35,114.25,14.61,110.49Z"/><path class="cls-18" d="M37.18,136.42c1.43.31,2.56-.25,4.14-1.37,1-.7,2.15-.82,1.12-1.38a13.33,13.33,0,0,1-2.57-1.5c-.1-.12-.77-.76-.45-1a8.11,8.11,0,0,1,1.66-1,1.62,1.62,0,0,0,.92-.9c0-.23,0-.37-.29-.44s-.7.14-1.13.21a22.31,22.31,0,0,0-5.31,1.24c-.78.28-3,1.9-3.12,3.1-.14,1,1.29,1.81,2.45,2.28A12.23,12.23,0,0,0,37.18,136.42Z"/><path class="cls-18" d="M39.63,137.1a9.45,9.45,0,0,0,1.89.35,1,1,0,0,0,.63-.09c.22-.12.19-.3.26-.52.11-.38,0-.61-.25-.69a17.29,17.29,0,0,1-2-.31,17.19,17.19,0,0,0-2.71-1.08s-.87,0-.78,1.5Z"/><path class="cls-18" d="M40.91,136.57h0a11.8,11.8,0,0,0,2.49.81.91.91,0,0,0,.61,0,.74.74,0,0,0,.45-.41.57.57,0,0,0-.31-.75,14.22,14.22,0,0,0-2.54-1c-.55-.25-.88-.22-2-.69,0,0-.77-.16-.82,1.32A9.41,9.41,0,0,0,40.91,136.57Z"/><path class="cls-18" d="M42.29,136.32h0a11.21,11.21,0,0,0,2.48.81.91.91,0,0,0,.61,0,.68.68,0,0,0,.45-.41.58.58,0,0,0-.3-.75A17.06,17.06,0,0,0,43,135c-.59-.27-.84,0-2-.5,0,0-.77-.16-.82,1.32C40.14,135.85,40.92,136.07,42.29,136.32Z"/><path class="cls-18" d="M42.38,135.29h0a11.14,11.14,0,0,0,2.49.82,1,1,0,0,0,.61,0,.74.74,0,0,0,.45-.41.59.59,0,0,0-.3-.76c-.47-.22-3-1.23-4.2-1.71,0,0-1,.11-1.07,1.59C40.36,134.85,41,135,42.38,135.29Z"/><path class="cls-28" d="M40.37,134.75h.05c.53.12,3.08.83,3.87,1.13a2.26,2.26,0,0,0,1.38.09.08.08,0,0,1,.11.06.09.09,0,0,1-.06.12,2.47,2.47,0,0,1-1.5-.09c-.88-.35-3.35-1-3.84-1.13a.09.09,0,0,1-.07-.11A.09.09,0,0,1,40.37,134.75Z"/><path class="cls-28" d="M39.58,135.58a.06.06,0,0,1,.06,0c.55.22,2.47.7,3.82,1.18a4.45,4.45,0,0,0,.93.21.1.1,0,0,1,.08.11.09.09,0,0,1-.11.07,3.93,3.93,0,0,1-.94-.2c-1.33-.48-3.31-1-3.85-1.2a.1.1,0,0,1,0-.12S39.55,135.59,39.58,135.58Z"/><path class="cls-28" d="M39,136.09H39a33.42,33.42,0,0,0,3.24,1,.09.09,0,1,1-.06.18l-.71-.22c-1-.32-2.06-.53-2.55-.75a.1.1,0,0,1,0-.12S39,136.09,39,136.09Z"/><path class="cls-27" d="M35.18,130c-15.34-3.36-17.47-5.6-23.38-6.39l-.16,0c-2-.31-4.66,2.18-3.72,5.29A5,5,0,0,0,11.48,132c3,.86,21.75,3.29,21.75,3.29C38.06,131.44,35.18,130,35.18,130Z"/><path class="cls-22" d="M10.9,127l-.14-.44c2.18-.68,3.77-4.13,3.79-4.16l.36.3C14.81,122.79,13.21,126.26,10.9,127Z"/><path class="cls-16" d="M204.13,151.7a12.94,12.94,0,1,1,12.94-12.94A13,13,0,0,1,204.13,151.7Zm0-23.55a10.61,10.61,0,1,0,10.61,10.61A10.62,10.62,0,0,0,204.13,128.15Z"/><path class="cls-16" d="M201.61,136.72a2.21,2.21,0,0,0-1.08-.3,2.11,2.11,0,0,0-1.13.31,2.16,2.16,0,0,0-.79.85,2.65,2.65,0,0,0,0,2.41,2.23,2.23,0,0,0,.79.85,2.2,2.2,0,0,0,1.13.31,2.53,2.53,0,0,0,1.05-.26,3.16,3.16,0,0,0,1-.7l1.25,1.34a4.8,4.8,0,0,1-1.58,1.11,4.3,4.3,0,0,1-1.81.42,4.35,4.35,0,0,1-2.19-.56,4.11,4.11,0,0,1-1.54-1.53,4.23,4.23,0,0,1-.55-2.16,4.11,4.11,0,0,1,.57-2.15,4.16,4.16,0,0,1,1.56-1.5,4.63,4.63,0,0,1,2.23-.55,4.58,4.58,0,0,1,1.8.38,4.45,4.45,0,0,1,1.5,1l-1.24,1.49A2.86,2.86,0,0,0,201.61,136.72Z"/><path class="cls-16" d="M209.53,136.72a2.21,2.21,0,0,0-1.08-.3,2.11,2.11,0,0,0-1.13.31,2.16,2.16,0,0,0-.79.85,2.65,2.65,0,0,0,0,2.41,2.23,2.23,0,0,0,.79.85,2.2,2.2,0,0,0,1.13.31,2.53,2.53,0,0,0,1.05-.26,3.33,3.33,0,0,0,1-.7l1.24,1.34a4.8,4.8,0,0,1-1.58,1.11,4.3,4.3,0,0,1-1.81.42,4.35,4.35,0,0,1-2.19-.56A4.11,4.11,0,0,1,204.6,141a4.23,4.23,0,0,1-.55-2.16,4.11,4.11,0,0,1,.57-2.15,4.16,4.16,0,0,1,1.56-1.5,4.63,4.63,0,0,1,2.23-.55,4.58,4.58,0,0,1,1.8.38,4.45,4.45,0,0,1,1.5,1l-1.23,1.49A3,3,0,0,0,209.53,136.72Z"/><path class="cls-14" d="M391.84,218.76l1.76,4.76s1.87,5.3.44,8.22-6.21,3.63-8.4,3.14c-.7-.15-1.07-.54-1.61-2.38s-.62-9,0-12.88Z"/><path class="cls-14" d="M377.79,217.26s.85,4.69,1.06,5.83a2.76,2.76,0,0,1-.7,2.23c-1.51,1.32-9.41,5.58-11.49,6.39a7.25,7.25,0,0,1-5.92,0c-.93-.44-2.88-3.15,1.66-7.27s6.89-5.95,7.75-7.88l2.07-.52Z"/><path class="cls-16" d="M363.43,135.93s-1.84,24.52-3.12,41c-.61,7.83,9.47,39.94,9.47,39.94l8.33.92-4.48-36.25,1.88-26.2,1.28.19s.86,17,2.64,28.19c1.06,6.62,4.36,36.24,4.36,36.24l8.6-1.28L392,182.42,391.14,139l-25.08-5.31Z"/><path class="cls-29" d="M375.46,155.52h0a.18.18,0,0,0,.14-.22c-.81-3.32-.31-15.2-.3-15.32a.19.19,0,0,0-.37,0c0,.49-.51,12.05.31,15.43A.19.19,0,0,0,375.46,155.52Z"/><path class="cls-29" d="M376.67,155.7h0a.18.18,0,0,0,.14-.22c-.81-3.31.46-15.37.47-15.49a.18.18,0,1,0-.36,0c0,.5-1.29,12.24-.47,15.62A.19.19,0,0,0,376.67,155.7Z"/><path class="cls-9" d="M382.14,89.59c-9.72-.74-14.13,1.73-14.45,1.84l-2.91,15.67c.09,1-1.64,23.72-1.83,32.88,0,0,5.59,6,28.28.89.92-27.82,2.08-33.08,2.11-33.42,0,0,1.92-7.24,1.92-12.06C391.7,91.78,388.11,90,382.14,89.59Z"/><path class="cls-18" d="M377.21,84.8s-1.41,5.77-1.52,6.39c-.23,1.34-.11,2.55,2.92,3.33s4.94.17,5.36-1.34a71.05,71.05,0,0,0,1-9Z"/><path class="cls-30" d="M384.72,87.87s-3.18,1.86-8.36.45l.27-1.13,8.3-1.63Z"/><path class="cls-18" d="M381.27,67.63a6.45,6.45,0,0,0-4.89,5.18c-.53,2.27-1.56,5-1.83,7.77a9.42,9.42,0,0,0,.75,4.87c1.6,2.8,3.58,3.25,6.85,2.38,2.43-.65,4-2.29,5.45-4.15,0,0,2.52-2.81,3.46-8.74S384.85,65.17,381.27,67.63Z"/><path class="cls-18" d="M388.67,76.54a2.59,2.59,0,0,1,2.79,2.76c0,2.94-2.24,2.27-2.89,2.46S388.47,78.88,388.67,76.54Z"/><path class="cls-30" d="M379.5,83.79a11.35,11.35,0,0,1-3.34-.55,3.51,3.51,0,0,0,1.26.6A5,5,0,0,0,379.5,83.79Z"/><path class="cls-30" d="M378,81.84a4.07,4.07,0,0,1-1.44-1.12s-.38-.4.39-1.09A14.59,14.59,0,0,0,378.4,78s.53.54-.58,2.38c0,0-.27.36.19.9A.34.34,0,0,1,378,81.84Z"/><path class="cls-16" d="M380,74s2.51-.75,3.86.71a.76.76,0,0,1,0,.37,5,5,0,0,0-3.94-.83A.19.19,0,0,1,380,74Z"/><path class="cls-16" d="M375.82,73.52a2.81,2.81,0,0,1,2.63,0,.5.5,0,0,1,.06.23,3.4,3.4,0,0,0-2.69-.1A.12.12,0,0,1,375.82,73.52Z"/><path class="cls-16" d="M377.1,75.74a.48.48,0,0,0,.38.56l.07,0a.48.48,0,0,0,.56-.38l.08-.41a.48.48,0,0,0-.38-.56l-.07,0a.48.48,0,0,0-.56.38Z"/><path class="cls-16" d="M379.82,76.24a.48.48,0,0,0,.38.56l.08,0a.48.48,0,0,0,.56-.38l.08-.41a.48.48,0,0,0-.38-.56l-.08,0a.48.48,0,0,0-.56.38Z"/><path class="cls-31" d="M376.26,73.3s1.55-5.47,7.08-3.35,5.26,3.3,5.29,4.84-1.33,5-1,6.29c0,0,.91-.24,1.51-1.9s.7-2.23,1.47-2l.37-.3.94-4.66-1.32-4s-3.65-2.12-3.83-2.28-6.28-1.06-6.28-1.06-3.39,2.56-3.53,2.55-2.2,4.21-2.13,5.79c.16,3.62.38,4,.38,4Z"/><path class="cls-16" d="M373.72,72.24a20.47,20.47,0,0,1,2-5.72,10.62,10.62,0,0,1,5.73-4.81,10.27,10.27,0,0,1,6-.61c4.35,1,5.25,4.36,5.92,5.32A11.83,11.83,0,0,1,395,72c.31,3.57-1.62,6.3-2,7.17a7.15,7.15,0,0,1-2.17,2.46c-.61.34-1.59-4.91-2.47-6.77-.45-1-.64-2.45-4.48-4s-7,1.48-7.56,2.1C375.18,74.23,373.36,73,373.72,72.24Z"/><path class="cls-9" d="M393.5,78l.27-.26s-3.1-6.64-4.39-8.13-5.4-4-8.62-3.67a8.5,8.5,0,0,0-6.15,3l-.27.66a9.35,9.35,0,0,1,6.46-3.32c3.22-.3,7.2,2.41,8.34,3.58C390.48,71.32,393.33,77.85,393.5,78Z"/><path class="cls-32" d="M356.87,104.15c-.31.44-.56.81-.72,1.06,0,0-4-15.34-4.88-17.22s-4.84-.18-5.06.86c-.15.68,1.77,22.08,4.58,25.61,2.08,2.6,3.66,3.3,7.95.67l2.35-2.36C360.83,110.58,359.91,105.82,356.87,104.15Z"/><path class="cls-9" d="M367.69,91.43c-4.33,1.49-8.43,9.28-10.82,12.72,3,1.67,4,6.43,4.22,8.62l8.76-8.78S369.94,90.66,367.69,91.43Z"/><path class="cls-18" d="M344,87.07c-1.22-1.5-1.17-2.48-.19-5,.61-1.57,1.88-1.21,3,0,.89,1,2.14,1.23,2.32.7a6.26,6.26,0,0,0,.54-2.11,2.23,2.23,0,0,1,.77-1.61.49.49,0,0,1,.7.18,21.5,21.5,0,0,1,.19,2.66c.4,2.13.42,4.6-.21,5.78a3.27,3.27,0,0,1-4.44,1.5A5.66,5.66,0,0,1,344,87.07Z"/><path class="cls-18" d="M342.37,85.17c-.59-.84-2.18-2.25-1.81-2.8.19-.3.32-.31.6-.47a.94.94,0,0,1,1.22.21c.48.67.1.79,1.13,2.39a10.6,10.6,0,0,1,1.89,2.34s.69,0-1.44.21C344,87.05,342.72,85.66,342.37,85.17Z"/><path class="cls-18" d="M342.3,83.65h0a6.92,6.92,0,0,1-1.53-2.3,1.37,1.37,0,0,1-.17-.84c.06-.35.24-.42.49-.6.45-.33.84.09,1.05.35.48.57.42.06,1.24,1.53.53.64,1.23,1.87,2.26,3.29,0,0,.47,1-1.5,1.54A14.72,14.72,0,0,1,342.3,83.65Z"/><path class="cls-18" d="M342.66,82.57h0s-1.42-2.43-1.58-2.74-.24-.72,0-.91c.45-.33.7-.06.91.2.46.55.93.13,1.75,1.59.57.69.48,1.05,1.52,2.48,0,0,.47,1-1.5,1.55A16.51,16.51,0,0,1,342.66,82.57Z"/><path class="cls-18" d="M343.6,81.59h0a8.73,8.73,0,0,1-1.68-2.51c-.12-.26-.12-.35.13-.54.45-.33.83,0,1.13.34.48.52,2,1.76,3.18,2.79A1.83,1.83,0,0,1,345,84.1,13.32,13.32,0,0,1,343.6,81.59Z"/><path class="cls-28" d="M345.58,82.73a.09.09,0,0,0,0-.06,15.39,15.39,0,0,1-2-1.73c-.74-.84-1.65-2-1.65-2a.13.13,0,0,0-.15-.11.12.12,0,0,0-.11.14s.92,1.2,1.72,2.11a13.69,13.69,0,0,0,2,1.75.13.13,0,0,0,.18,0A.14.14,0,0,0,345.58,82.73Z"/><path class="cls-28" d="M344.78,83.77a.14.14,0,0,0,0-.08,23.37,23.37,0,0,1-2.79-2.62,5.4,5.4,0,0,1-.76-1.09.13.13,0,0,0-.18,0,.13.13,0,0,0,0,.18,5.18,5.18,0,0,0,.76,1.09,32.29,32.29,0,0,0,2.8,2.62.13.13,0,0,0,.18,0S344.78,83.8,344.78,83.77Z"/><path class="cls-28" d="M343.94,84.72a.12.12,0,0,0,0-.08c-.8-.75-2.68-2.63-2.71-2.67a.13.13,0,0,0-.18,0,.13.13,0,0,0,0,.19s2.18,2.18,2.72,2.68a.13.13,0,0,0,.18,0A.13.13,0,0,0,343.94,84.72Z"/><path class="cls-28" d="M347.94,88.21l.06,0a.11.11,0,0,0,.12-.11,31.73,31.73,0,0,1,1.08-5.3.11.11,0,0,0-.07-.14.12.12,0,0,0-.15.07,30.52,30.52,0,0,0-1.09,5.36A.11.11,0,0,0,347.94,88.21Z"/><path class="cls-18" d="M396.68,142c-.86.28-1.65.1-2.84,2.17a14.71,14.71,0,0,0-1.51,3.37c-.08.25-.27.86-.05,1s.36.24.84-.26a9.74,9.74,0,0,0,1.25-1.72c.26-.36.28-.45.36-.47s.17-.05.26.18a10.31,10.31,0,0,1-.31,2.45,8.83,8.83,0,0,1-.92,2.27c-.45.85-.2.39-.59,1.14-.31.58-.53,1.13-.08,1.42a.89.89,0,0,0,1.14-.18c-.31.35-.76,1.17-.24,1.49s.75.15,1.08-.3.28-.39.28-.39c-.19.31-.22.51.07.69s.84-.2,1-.31a5,5,0,0,0,.74-.86s-.28.43,0,.61.62,0,.86-.29a18.57,18.57,0,0,0,1.25-1.79,9.83,9.83,0,0,0,1.05-2.26c.67-2.17,1.28-4.4.26-6.41A2.9,2.9,0,0,0,396.68,142Zm3,8.1h0Z"/><path class="cls-28" d="M396.32,149.44v0a11.9,11.9,0,0,1-2,4.17.14.14,0,0,1-.2,0,.13.13,0,0,1,0-.19,12.48,12.48,0,0,0,2-4.05.14.14,0,0,1,.27,0Z"/><path class="cls-28" d="M398.1,149.43s0,0,0,0a20.38,20.38,0,0,1-2.51,4.93.14.14,0,0,1-.19,0,.15.15,0,0,1,0-.2,20.41,20.41,0,0,0,2.47-4.84.15.15,0,0,1,.17-.1A.16.16,0,0,1,398.1,149.43Z"/><path class="cls-28" d="M399.49,149.29v0a15.39,15.39,0,0,1-2.21,4.56.15.15,0,0,1-.2.05.15.15,0,0,1-.05-.19,15.21,15.21,0,0,0,2.19-4.47.13.13,0,0,1,.16-.11A.13.13,0,0,1,399.49,149.29Z"/><path class="cls-32" d="M394.56,119.25s.64,14,.31,23.29c-.08,2.1,5.38,2.34,5.79,1.36.26-.64,3.57-20.51,2.08-29.17C402.17,111.45,394.93,116.56,394.56,119.25Z"/><path class="cls-9" d="M395.26,95.39c3.18,3,7,15.18,7.48,19.34-3.47,0-6.9,2.72-8.18,4.52l-4.59-14S393.54,93.75,395.26,95.39Z"/><path class="cls-9" d="M346.39,72.53c-4-4.59-9.36-6.46-12.08-4.07A4.85,4.85,0,0,0,333,71.91a6.24,6.24,0,0,1-3.5,5.47c-2.74,1.48-6.07-.46-6.16-.52s-2.52-1.15-3.76-.86c-3.52.8-5.33,6.3-4,12.26s5.52,10,9,9.22c2-.44,3.27-2.29,4.23-5.07h0c1.22-4.59,8.76-8.43,14.13-7.21h0c2.82.86,4.58,1.14,6.09-.19C351.77,82.63,350.42,77.12,346.39,72.53Zm-21.14,14-1.44.74L324.7,89a1.61,1.61,0,0,1-2.82,1.44l-.9-1.76-1.41.72c-.65.33-1.32.29-1.65-.35s0-1.21.69-1.53l1.41-.73-1-2a1.61,1.61,0,0,1,2.82-1.44l1,2,1.45-.73c.64-.33,1.32-.3,1.64.35S325.89,86.15,325.25,86.48Zm13.67-6.88a1.29,1.29,0,1,1,.57-1.75A1.3,1.3,0,0,1,338.92,79.6ZM343.23,81a1.29,1.29,0,1,1,.56-1.74A1.29,1.29,0,0,1,343.23,81Zm-2.91-5.7a1.3,1.3,0,1,1,.56-1.74A1.29,1.29,0,0,1,340.32,75.29Zm4.3,1.4a1.29,1.29,0,1,1,.57-1.75A1.3,1.3,0,0,1,344.62,76.69Z"/><path class="cls-33" d="M196.54,174.08a5.57,5.57,0,1,0-5.57-5.57A5.57,5.57,0,0,0,196.54,174.08Z"/><path class="cls-33" d="M202.7,176.53h-1.6l-2.46,4.35-1.3-2.57,1-1.78h-1l-.8,1.27-.8-1.27h-1l1,1.78-1.31,2.6L192,176.53h-1.2a4.07,4.07,0,0,0-4.07,4.07v6.25h20.09V180.6A4.08,4.08,0,0,0,202.7,176.53Zm-6.19,8.05h0Z"/><path class="cls-33" d="M313.13,174.09a5.57,5.57,0,1,0-5.57-5.57A5.56,5.56,0,0,0,313.13,174.09Z"/><path class="cls-33" d="M319.28,176.55h-1.6l-2.46,4.34-1.3-2.57,1-1.77h-1l-.79,1.26-.8-1.26h-1l1,1.77-1.31,2.6-2.48-4.37h-1.2a4.08,4.08,0,0,0-4.08,4.07v6.25h20.09v-6.25A4.07,4.07,0,0,0,319.28,176.55Zm-6.18,8,0,0h0Z"/><path class="cls-33" d="M266.29,174.09a5.57,5.57,0,1,0-5.56-5.57A5.57,5.57,0,0,0,266.29,174.09Z"/><path class="cls-33" d="M272.45,176.55h-1.6l-2.46,4.34-1.3-2.57,1-1.77h-1l-.8,1.26-.79-1.26h-1l1,1.77-1.31,2.6-2.48-4.37H260.5a4.07,4.07,0,0,0-4.07,4.07v6.25h20.09v-6.25A4.07,4.07,0,0,0,272.45,176.55Zm-6.18,8v0h0Z"/><path class="cls-34" d="M219.91,174.09a5.57,5.57,0,1,0-5.56-5.57A5.57,5.57,0,0,0,219.91,174.09Z"/><path class="cls-34" d="M226.07,176.55h-1.6L222,180.89l-1.3-2.57,1-1.77h-1l-.8,1.26-.79-1.26h-1l1,1.77-1.31,2.6-2.48-4.37h-1.2a4.08,4.08,0,0,0-4.08,4.07v6.25h20.09v-6.25A4.07,4.07,0,0,0,226.07,176.55Zm-6.18,8v0h0Z"/><path class="cls-35" d="M242.8,174.7a5.3,5.3,0,1,0-5.29-5.29A5.29,5.29,0,0,0,242.8,174.7Z"/><path class="cls-35" d="M248.66,177h-1.52l-2.34,4.13-1.24-2.44.94-1.69h-.94l-.76,1.2L242,177h-.94l.94,1.69-1.24,2.47L238.44,177H237.3a3.87,3.87,0,0,0-3.87,3.87v5.94h19.1v-5.94A3.87,3.87,0,0,0,248.66,177Zm-5.88,7.65h0Z"/><polygon class="cls-35" points="238.44 177.04 242.04 177.04 242.8 178.24 243.56 177.04 248.3 177.04 248.3 180.43 243.78 184.17 238.44 182.16 238.03 179.14 238.44 177.04"/><path class="cls-35" d="M245.51,175.37h3.25a3.78,3.78,0,0,0,1.2-.2.94.94,0,0,0,.55-.4.89.89,0,0,0-.11-1.06,16.71,16.71,0,0,1-1.47-2.43,14.48,14.48,0,0,1-.84-2.09,14,14,0,0,1-.37-2.41,4.77,4.77,0,0,0-1.37-2.95,3.71,3.71,0,0,0-2.3-1.13,4.57,4.57,0,0,1-.52,0h-.21a.36.36,0,0,1-.25,0h-.76a.11.11,0,0,1-.08,0,4,4,0,0,0-2,.59,4.92,4.92,0,0,0-2.27,3.33,15,15,0,0,0-.18,1.5,13.65,13.65,0,0,1-1.37,4.19c-.26.53-.56,1-.87,1.54a.88.88,0,0,0,.53,1.39,2.79,2.79,0,0,0,.95.16h8.54Z"/><path class="cls-35" d="M243.32,162.65a.21.21,0,0,1-.25,0Z"/><path class="cls-34" d="M289.61,174.91a5.19,5.19,0,1,0-5.19-5.18A5.18,5.18,0,0,0,289.61,174.91Z"/><path class="cls-34" d="M295.34,177.2h-1.49l-2.29,4-1.21-2.39.92-1.65h-.92l-.74,1.18-.75-1.18h-.92l.92,1.65-1.22,2.42-2.31-4.07h-1.11a3.8,3.8,0,0,0-3.8,3.79v5.82h18.71V181A3.79,3.79,0,0,0,295.34,177.2Zm-5.76,7.49h0Z"/><polygon class="cls-34" points="285.33 177.2 288.86 177.2 289.61 178.38 290.35 177.2 294.99 177.2 294.99 180.52 290.56 184.18 285.33 182.21 284.93 179.26 285.33 177.2"/><path class="cls-34" d="M292.26,175.67h3.18a3.6,3.6,0,0,0,1.17-.2,1,1,0,0,0,.54-.4.87.87,0,0,0-.1-1,16.29,16.29,0,0,1-1.45-2.4,12.7,12.7,0,0,1-.81-2.07,13.74,13.74,0,0,1-.37-2.37,4.74,4.74,0,0,0-1.34-2.91,3.6,3.6,0,0,0-2.25-1.12,4.4,4.4,0,0,1-.51,0h-.21a.33.33,0,0,1-.24,0h-.75a.1.1,0,0,1-.07,0,3.78,3.78,0,0,0-2,.59,4.87,4.87,0,0,0-2.23,3.28c-.1.49-.11,1-.18,1.48a13.28,13.28,0,0,1-1.33,4.14,17.45,17.45,0,0,1-.86,1.52.87.87,0,0,0,.53,1.37,2.62,2.62,0,0,0,.92.16h8.37Z"/><path class="cls-34" d="M290.11,163.11a.2.2,0,0,1-.24,0Z"/><path class="cls-9" d="M218.8,68.24v4.31a1.73,1.73,0,0,1-1.73,1.73H193.46a1.73,1.73,0,0,1-1.73-1.73V68.24a1.72,1.72,0,0,1,1.73-1.73h23.61A1.72,1.72,0,0,1,218.8,68.24Zm-26.31,4.31a1,1,0,0,0,1,1h23.61a1,1,0,0,0,1-1V68.24a1,1,0,0,0-1-1H193.46a1,1,0,0,0-1,1Z"/><rect class="cls-9" x="193.6" y="66.68" width="0.76" height="4.99"/><rect class="cls-9" x="195.18" y="66.68" width="0.76" height="3.03"/><rect class="cls-9" x="197.3" y="66.68" width="0.76" height="3.03"/><rect class="cls-9" x="199.41" y="66.68" width="0.76" height="3.03"/><rect class="cls-9" x="201.53" y="66.68" width="0.76" height="3.03"/><rect class="cls-9" x="205.14" y="66.68" width="0.76" height="3.03"/><rect class="cls-9" x="207.26" y="66.68" width="0.76" height="3.03"/><rect class="cls-9" x="209.37" y="66.68" width="0.76" height="3.03"/><rect class="cls-9" x="211.49" y="66.68" width="0.76" height="3.03"/><rect class="cls-9" x="214.77" y="66.68" width="0.76" height="3.03"/><rect class="cls-9" x="216.88" y="66.68" width="0.76" height="3.03"/><rect class="cls-9" x="203.37" y="66.68" width="0.76" height="4.99"/><rect class="cls-9" x="213.14" y="66.68" width="0.76" height="4.99"/><path class="cls-9" d="M224.2,52a1.34,1.34,0,0,0,0-1.89l-.07-.07a1.34,1.34,0,0,0-1.89,0l-1,1,1.95,2Z"/><rect class="cls-9" x="210.36" y="55.7" width="13.36" height="2.77" transform="translate(22.81 169.5) rotate(-44.8)"/><polygon class="cls-9" points="210.95 61.2 210.41 63.06 211.03 63.69 212.9 63.16 210.95 61.2"/><polygon class="cls-9" points="210.41 63.06 210.21 63.8 210.3 63.89 211.03 63.69 210.41 63.06"/><path class="cls-9" d="M210.3,64.23H192.24a.34.34,0,0,1-.33-.34.34.34,0,0,1,.33-.34H210.3a.34.34,0,0,1,.33.34A.34.34,0,0,1,210.3,64.23Z"/><g class="cls-36"><path class="cls-9" d="M196.32,60.78h-4.08a.34.34,0,0,1,0-.68h4.08a.34.34,0,0,1,0,.68Z"/></g><g class="cls-37"><path class="cls-9" d="M207.14,60.78H197.9a.34.34,0,1,1,0-.68h9.24a.34.34,0,1,1,0,.68Z"/></g><g class="cls-37"><path class="cls-9" d="M199.2,53.87H192a.34.34,0,1,1,0-.68h7.17a.34.34,0,0,1,0,.68Z"/></g><path class="cls-9" d="M193.51,57.22H192a.34.34,0,1,1,0-.68h1.48a.34.34,0,0,1,0,.68Z"/><g class="cls-36"><path class="cls-9" d="M208.08,57.22h-3a.34.34,0,0,1,0-.68h3a.34.34,0,0,1,0,.68Z"/></g><path class="cls-9" d="M206.4,53.87h-5.11a.34.34,0,1,1,0-.68h5.11a.34.34,0,0,1,0,.68Z"/><g class="cls-37"><path class="cls-9" d="M203.42,57.22h-7.7a.34.34,0,0,1,0-.68h7.7a.34.34,0,0,1,0,.68Z"/></g></svg>