<svg id="Capa_1" data-name="Capa 1" xmlns="http://www.w3.org/2000/svg" viewBox="0 0 1012.27 125.36"><defs><style>.cls-1{fill:#ebb92b;}.cls-2{fill:none;stroke:#fff;stroke-miterlimit:10;stroke-width:0.72px;}.cls-3{font-size:55.42px;}.cls-12,.cls-13,.cls-24,.cls-3,.cls-5{fill:#fff;}.cls-3,.cls-5{font-family:Montserrat-Bold, Montserrat;font-weight:700;}.cls-4{letter-spacing:-0.02em;}.cls-5{font-size:10.89px;}.cls-6{letter-spacing:-0.07em;}.cls-7{letter-spacing:-0.01em;}.cls-8{letter-spacing:-0.02em;}.cls-9{letter-spacing:-0.02em;}.cls-10{letter-spacing:-0.03em;}.cls-11{letter-spacing:0em;}.cls-13{font-size:8px;}.cls-13,.cls-24{font-family:Montserrat-Regular, Montserrat;}.cls-13,.cls-18{letter-spacing:0.08em;}.cls-14{letter-spacing:0.06em;}.cls-15{letter-spacing:0.07em;}.cls-16{letter-spacing:0.07em;}.cls-17{letter-spacing:0.01em;}.cls-19{letter-spacing:0.06em;}.cls-20{opacity:0.8;}.cls-21{opacity:0.75;}.cls-22{fill:#d7d7d7;}.cls-23{opacity:0.82;}.cls-24{font-size:13px;letter-spacing:0.07em;}</style></defs><title>insumos</title><rect class="cls-1" x="-10.58" y="-4.29" width="1035.7" height="138.27"/><path class="cls-2" d="M360.37,13.64s12.24-7.49,33.42-5.18c15.87,1.73,27.83,9.05,37.89,17.66C452,43.54,471.13,61.41,515.25,49.41"/><path class="cls-2" d="M447.89,53.18s12.39,7.1,24.74,8.28,26.33-1,26.33-1"/><text class="cls-3" transform="translate(347.88 83.94)">CRE<tspan class="cls-4" x="115.88" y="0">A</tspan><tspan x="157.67" y="0">CIÓN</tspan></text><text class="cls-5" transform="translate(306.98 35.9)">RECURSOS DIGI<tspan class="cls-6" x="88.37" y="0">T</tspan><tspan x="94.24" y="0">ALES,</tspan></text><text class="cls-5" transform="translate(377.23 104.15)"><tspan class="cls-7">C</tspan><tspan x="7.4" y="0">ONCEPT</tspan><tspan class="cls-8" x="53.69" y="0">U</tspan><tspan x="61.73" y="0">ALIZ</tspan><tspan class="cls-9" x="87.11" y="0">A</tspan><tspan x="95.32" y="0">CIÓN</tspan></text><text class="cls-5" transform="translate(563.19 102.09)">HIPERTEXT<tspan class="cls-8" x="63.42" y="0">U</tspan><tspan x="71.45" y="0">ALI</tspan><tspan class="cls-9" x="89.47" y="0">D</tspan><tspan x="97.61" y="0">AD</tspan></text><text class="cls-5" transform="translate(657.72 83.94)">MULTIMEDIA</text><text class="cls-5" transform="translate(520.11 30.51)">FORM<tspan class="cls-6" x="33.13" y="0">A</tspan><tspan class="cls-10" x="40.74" y="0">T</tspan><tspan class="cls-11" x="47.04" y="0">OS</tspan></text><text class="cls-5" transform="translate(313.88 104.15)">DISEÑO</text><text class="cls-5" transform="translate(629.37 35.2)">INTER<tspan class="cls-9" x="33.95" y="0">A</tspan><tspan x="42.16" y="0">CTIVI</tspan><tspan class="cls-9" x="71.3" y="0">D</tspan><tspan x="79.43" y="0">AD</tspan></text><path class="cls-12" d="M470,16.88h-21a.32.32,0,0,0-.33.32V36.14a.32.32,0,0,0,.33.32h20.63a.32.32,0,1,0,0-.63h-20.3V20.69h20.3V35.83H469a.32.32,0,1,0,0,.63h1a.32.32,0,0,0,.33-.32V17.2A.32.32,0,0,0,470,16.88Zm-20.63,3.18V17.52h20.3v2.54Z"/><path class="cls-12" d="M468.07,18.56a.27.27,0,0,0-.1.22.3.3,0,0,0,.1.23.33.33,0,0,0,.23.1.34.34,0,0,0,.23-.1.33.33,0,0,0,.1-.23.3.3,0,0,0-.1-.22A.34.34,0,0,0,468.07,18.56Z"/><path class="cls-12" d="M466.5,18.46a.32.32,0,0,0-.33.32.33.33,0,0,0,.33.33.32.32,0,0,0,.32-.33A.32.32,0,0,0,466.5,18.46Z"/><path class="cls-12" d="M464.47,18.56a.27.27,0,0,0-.1.22.29.29,0,0,0,.1.23.3.3,0,0,0,.22.1.35.35,0,0,0,.24-.1.32.32,0,0,0,.09-.23.29.29,0,0,0-.09-.22A.34.34,0,0,0,464.47,18.56Z"/><path class="cls-12" d="M458.57,30.09l.11,0a.24.24,0,0,0,.14-.05l2.69-2a.23.23,0,0,0,.11-.2.21.21,0,0,0-.11-.19l-2.69-2a.21.21,0,0,0-.25,0,.22.22,0,0,0-.14.22v4A.25.25,0,0,0,458.57,30.09Zm.35-3.73,2,1.5-2,1.52Z"/><path class="cls-12" d="M459.54,31.58a3.72,3.72,0,1,1,3.71-3.72A3.72,3.72,0,0,1,459.54,31.58Zm0-7a3.28,3.28,0,1,0,3.27,3.27A3.28,3.28,0,0,0,459.54,24.59Z"/><path class="cls-12" d="M621.85,21.24a.29.29,0,0,0,0-.09,0,0,0,0,0,0,0,.28.28,0,0,0-.06-.09h0l-4-4.06h0a.24.24,0,0,0-.09-.06h0l-.09,0h-13a.32.32,0,0,0-.32.33v21a.32.32,0,0,0,.32.33h17a.32.32,0,0,0,.32-.33v-17Zm-1.11-.31h-2.91V18Zm.46,17H604.88V17.54h12.3v3.72a.32.32,0,0,0,.32.33h3.7Z"/><path class="cls-12" d="M618.24,22.33h-4.56a.27.27,0,0,0-.26.27v3.1a.27.27,0,0,0,.26.27h4.56a.27.27,0,0,0,.26-.27V22.6A.27.27,0,0,0,618.24,22.33Zm-.27,3.1h-4V22.86h4Z"/><path class="cls-12" d="M618.24,27h-4.56a.26.26,0,0,0-.26.26.27.27,0,0,0,.26.27h4.56a.27.27,0,0,0,.26-.27A.26.26,0,0,0,618.24,27Z"/><path class="cls-12" d="M607.53,29.18H612a.27.27,0,0,0,0-.54h-4.49a.27.27,0,0,0,0,.54Z"/><path class="cls-12" d="M618.24,33.46h-4.56a.27.27,0,0,0-.26.27.27.27,0,0,0,.26.27h4.56a.27.27,0,0,0,.26-.27A.27.27,0,0,0,618.24,33.46Z"/><path class="cls-12" d="M618.24,31.85h-4.56a.27.27,0,0,0-.26.27.26.26,0,0,0,.26.26h4.56a.26.26,0,0,0,.26-.26A.27.27,0,0,0,618.24,31.85Z"/><path class="cls-12" d="M612.08,30.25h-4.55a.27.27,0,0,0,0,.53h4.55a.27.27,0,1,0,0-.53Z"/><path class="cls-12" d="M612.08,35.06h-4.55a.27.27,0,0,0-.26.27.27.27,0,0,0,.26.27h4.55a.28.28,0,0,0,.27-.27A.27.27,0,0,0,612.08,35.06Z"/><path class="cls-12" d="M616.54,35.06h-2.86a.27.27,0,0,0-.26.27.27.27,0,0,0,.26.27h2.86a.28.28,0,0,0,.27-.27A.27.27,0,0,0,616.54,35.06Z"/><path class="cls-12" d="M612.08,31.85h-4.55a.27.27,0,0,0-.26.27v1.61a.27.27,0,0,0,.26.27h4.55a.28.28,0,0,0,.27-.27V32.12A.27.27,0,0,0,612.08,31.85Zm-.27,1.61h-4V32.38h4Z"/><path class="cls-12" d="M618.24,28.64h-4.56a.27.27,0,0,0-.26.27v1.6a.27.27,0,0,0,.26.27h4.56a.27.27,0,0,0,.26-.27v-1.6A.27.27,0,0,0,618.24,28.64ZM618,30.25h-4V29.18h4Z"/><path class="cls-12" d="M609.87,22.33a2.61,2.61,0,1,0,2.62,2.61A2.6,2.6,0,0,0,609.87,22.33Zm0,4.68A2.08,2.08,0,1,1,612,24.94,2.07,2.07,0,0,1,609.87,27Z"/><path class="cls-12" d="M611,24.67h-.81v-.81a.28.28,0,0,0-.27-.27.27.27,0,0,0-.26.27v.81h-.82a.27.27,0,0,0,0,.53h.82V26a.26.26,0,0,0,.26.26.27.27,0,0,0,.27-.26V25.2H611a.27.27,0,1,0,0-.53Z"/><ellipse class="cls-12" cx="536.35" cy="97.3" rx="2.91" ry="2.73"/><path class="cls-12" d="M532.36,104.16h8a3.83,3.83,0,0,0-4.22-4.13C532.08,100,532.36,104.16,532.36,104.16Z"/><path class="cls-12" d="M552.13,88.31h-23a.35.35,0,0,0-.36.33v19.48a.35.35,0,0,0,.36.33h22.59a.33.33,0,1,0,0-.66H529.54V92.24h22.23v15.55h-.72a.33.33,0,1,0,0,.66h1.08a.35.35,0,0,0,.36-.33V88.64A.35.35,0,0,0,552.13,88.31Zm-22.59,3.27V89h22.23v2.61Z"/><path class="cls-12" d="M550,90a.3.3,0,0,0-.1.23.33.33,0,0,0,.1.24.45.45,0,0,0,.25.09.45.45,0,0,0,.26-.09.31.31,0,0,0,0-.47A.41.41,0,0,0,550,90Z"/><path class="cls-12" d="M548.27,89.94a.35.35,0,0,0-.36.33.35.35,0,0,0,.36.33.34.34,0,0,0,.36-.33A.35.35,0,0,0,548.27,89.94Z"/><path class="cls-12" d="M546.05,90a.31.31,0,0,0-.11.23.32.32,0,0,0,.11.24.4.4,0,0,0,.25.09.45.45,0,0,0,.26-.09.31.31,0,0,0,.1-.24.3.3,0,0,0-.1-.23A.41.41,0,0,0,546.05,90Z"/><rect class="cls-12" x="532.12" y="106.46" width="18.93" height="0.27" rx="0.13"/><polygon class="cls-12" points="530.6 106.08 530.6 107.04 531.46 106.56 530.6 106.08"/><rect class="cls-12" x="543.21" y="95.64" width="6.68" height="0.47"/><rect class="cls-12" x="543.21" y="96.87" width="6.68" height="0.47"/><rect class="cls-12" x="543.21" y="97.97" width="6.68" height="0.47"/><path class="cls-12" d="M678.92,51.49V43.71a.34.34,0,0,0-.35-.33H656.94a.33.33,0,0,0-.34.33V63.26a.33.33,0,0,0,.34.33h21a.33.33,0,0,0,.34-.33.33.33,0,0,0-.34-.32H657.28V47.32h21v4.17a.37.37,0,0,0,.35.37C678.8,51.86,678.9,51.68,678.92,51.49Zm-.36,6.8a.34.34,0,0,0-.32.35v4.3h-.68a.33.33,0,0,0-.34.32.33.33,0,0,0,.34.33h1a.34.34,0,0,0,.35-.33V58.64a.36.36,0,0,0-.33-.35ZM657.28,46.66V44h21v2.62Z"/><path class="cls-12" d="M676.56,45.11a.35.35,0,0,0-.1.24.37.37,0,0,0,.1.23.34.34,0,0,0,.48,0,.34.34,0,0,0,.1-.23.35.35,0,0,0-.1-.24A.39.39,0,0,0,676.56,45.11Z"/><path class="cls-12" d="M674.94,45a.34.34,0,0,0-.34.33.34.34,0,0,0,.34.33.34.34,0,0,0,.34-.33A.33.33,0,0,0,674.94,45Z"/><path class="cls-12" d="M672.84,45.11a.34.34,0,0,0-.09.24.33.33,0,0,0,.09.23.37.37,0,0,0,.24.1.35.35,0,0,0,.24-.1.3.3,0,0,0,.1-.23.31.31,0,0,0-.1-.24A.39.39,0,0,0,672.84,45.11Z"/><path class="cls-12" d="M674.21,58.68a.63.63,0,0,1-.3-.07.55.55,0,0,1-.3-.4,1.36,1.36,0,0,1,.86-1.54,5.86,5.86,0,0,1,1-.35l-2.82-4.27a.92.92,0,0,1,.2-1.23.9.9,0,0,1,.66-.15,1,1,0,0,1,.6.43L675.34,53a1,1,0,0,1,.21-.19.91.91,0,0,1,.57-.12.78.78,0,0,1,.42-.44.91.91,0,0,1,.73.05,1,1,0,0,1,.53-.29.81.81,0,0,1,.86.31l1.5,2.26a1.7,1.7,0,0,1-.22,2.18c-.83.65-1.84,1.32-1.85,1.32a2.68,2.68,0,0,1-1.47,0,4.14,4.14,0,0,0-1.93.41A1.33,1.33,0,0,1,674.21,58.68Zm-.89-7.51a.43.43,0,0,0-.21.08c-.24.15-.07.5-.05.54l3,4.55a.28.28,0,0,1,0,.25.29.29,0,0,1-.19.15,5.56,5.56,0,0,0-1.22.4.82.82,0,0,0-.57,1c.08.07.26,0,.35,0a4.53,4.53,0,0,1,2.24-.45,2.86,2.86,0,0,0,1.13,0c.18-.12,1-.71,1.79-1.28s.11-1.46.09-1.5l-1.49-2.25a.32.32,0,0,0-.32-.09.63.63,0,0,0-.36.25.25.25,0,0,1-.18.12.21.21,0,0,1-.2-.05.53.53,0,0,0-.44-.1c-.12,0-.18.26-.19.33a.26.26,0,0,1-.15.2.23.23,0,0,1-.25,0,.32.32,0,0,0-.32,0,.71.71,0,0,0-.21.33.26.26,0,0,1-.21.19.25.25,0,0,1-.25-.12l-1.5-2.31A.43.43,0,0,0,673.32,51.17Z"/><path class="cls-12" d="M667.08,53.2l-.25,0a2,2,0,0,0-.05-.26l.23-.11a.3.3,0,0,0,.14-.4L667,52a.3.3,0,0,0-.4-.14l-.23.11-.18-.21.14-.21a.29.29,0,0,0-.07-.41l-.35-.25a.3.3,0,0,0-.42.08l-.14.21-.26-.1,0-.25a.3.3,0,0,0-.28-.32l-.42,0a.29.29,0,0,0-.32.27l0,.25-.28,0-.1-.23a.3.3,0,0,0-.4-.14l-.39.19a.29.29,0,0,0-.14.39l.11.23-.21.18-.21-.15a.28.28,0,0,0-.22,0,.31.31,0,0,0-.19.12l-.25.35a.37.37,0,0,0,0,.23.35.35,0,0,0,.13.19l.2.14-.09.26-.25,0a.3.3,0,0,0-.32.28l0,.42a.3.3,0,0,0,.27.33l.25,0a2.56,2.56,0,0,0,0,.27l-.23.1a.35.35,0,0,0-.15.17.3.3,0,0,0,0,.23l.18.39a.34.34,0,0,0,.18.15.24.24,0,0,0,.22,0l.23-.11a2,2,0,0,0,.18.21l-.14.21a.3.3,0,0,0,.07.42l.35.24a.3.3,0,0,0,.42-.08l.14-.21.26.1,0,.25a.3.3,0,0,0,.28.32l.42,0a.28.28,0,0,0,.32-.27l0-.25.28,0,.1.23a.31.31,0,0,0,.4.14l.39-.18a.3.3,0,0,0,.14-.4l-.11-.23a1.18,1.18,0,0,0,.21-.18l.21.14a.3.3,0,0,0,.42-.07l.24-.35a.3.3,0,0,0-.08-.42l-.21-.14a2.77,2.77,0,0,0,.1-.26l.25,0a.3.3,0,0,0,.32-.28l0-.42A.3.3,0,0,0,667.08,53.2Zm-.07.71-.37,0a.15.15,0,0,0-.16.12,1.74,1.74,0,0,1-.17.45.16.16,0,0,0,.06.2l.3.21-.23.33-.3-.21a.14.14,0,0,0-.2,0,2.25,2.25,0,0,1-.37.31.17.17,0,0,0-.05.2l.16.33-.36.17-.15-.34a.18.18,0,0,0-.19-.08,2,2,0,0,1-.47.09.17.17,0,0,0-.15.14l0,.37-.39,0,0-.37a.17.17,0,0,0-.12-.17,2.16,2.16,0,0,1-.45-.15.15.15,0,0,0-.2.05l-.21.3-.33-.23.21-.3a.14.14,0,0,0,0-.2,2.76,2.76,0,0,1-.31-.37.17.17,0,0,0-.2,0l-.33.16-.17-.36.33-.16a.16.16,0,0,0,.09-.19,1.87,1.87,0,0,1-.09-.46.16.16,0,0,0-.14-.15l-.37,0,0-.39.37,0a.15.15,0,0,0,.16-.13,1.82,1.82,0,0,1,.17-.44.16.16,0,0,0-.06-.2l-.3-.21.22-.33.31.21a.14.14,0,0,0,.2,0,2.25,2.25,0,0,1,.37-.31.16.16,0,0,0,0-.2l-.16-.33.36-.17.16.33a.16.16,0,0,0,.18.09,2,2,0,0,1,.47-.09.17.17,0,0,0,.15-.14l0-.37.39,0,0,.36a.17.17,0,0,0,.12.16,2.51,2.51,0,0,1,.46.16.14.14,0,0,0,.19-.05l.21-.3.32.22-.2.31a.14.14,0,0,0,0,.2,2.11,2.11,0,0,1,.31.36.16.16,0,0,0,.2.06l.33-.16.17.36-.33.15a.16.16,0,0,0-.09.19,2,2,0,0,1,.09.47.16.16,0,0,0,.14.15l.37,0Z"/><path class="cls-12" d="M673.15,55.46h-.27a1.38,1.38,0,0,0-.08-.29L673,55a.33.33,0,0,0,.12-.44l-.23-.4a.33.33,0,0,0-.45-.12l-.23.14A2.28,2.28,0,0,0,672,54l.14-.23a.32.32,0,0,0-.12-.44l-.4-.24a.34.34,0,0,0-.44.12l-.14.24-.29-.08v-.27a.33.33,0,0,0-.33-.33H670a.32.32,0,0,0-.32.33v.27l-.29.08-.14-.24a.34.34,0,0,0-.44-.12l-.41.24a.32.32,0,0,0-.11.44l.13.23-.21.22-.23-.14a.32.32,0,0,0-.25,0,.28.28,0,0,0-.2.15l-.23.4a.31.31,0,0,0,0,.25.29.29,0,0,0,.15.19l.23.14a2.46,2.46,0,0,0-.07.29h-.28a.32.32,0,0,0-.32.33v.46a.32.32,0,0,0,.32.33h.28c0,.09,0,.19.07.29l-.23.13a.3.3,0,0,0-.15.2.32.32,0,0,0,0,.25l.23.4a.3.3,0,0,0,.2.14.28.28,0,0,0,.25,0l.23-.13.21.21-.13.23a.33.33,0,0,0,.11.45l.41.23a.32.32,0,0,0,.44-.12l.14-.23.29.08V59a.32.32,0,0,0,.32.32h.46a.32.32,0,0,0,.33-.32v-.27l.29-.08.14.23a.32.32,0,0,0,.44.12l.4-.23a.33.33,0,0,0,.12-.45L672,58l.22-.21.23.13a.32.32,0,0,0,.45-.11l.23-.4A.34.34,0,0,0,673,57l-.24-.13a1.82,1.82,0,0,0,.08-.29h.27a.33.33,0,0,0,.33-.33v-.46A.33.33,0,0,0,673.15,55.46Zm0,.77h-.4a.16.16,0,0,0-.17.15,2.34,2.34,0,0,1-.14.5.17.17,0,0,0,.08.21l.34.2-.21.37-.35-.2a.19.19,0,0,0-.22,0,2.51,2.51,0,0,1-.36.37.16.16,0,0,0,0,.22l.19.34-.36.22-.2-.35a.18.18,0,0,0-.21-.07,2.39,2.39,0,0,1-.51.13.18.18,0,0,0-.14.17v.4H670v-.4a.18.18,0,0,0-.15-.17,2.17,2.17,0,0,1-.5-.13.17.17,0,0,0-.21.07l-.2.35-.37-.22.2-.34a.18.18,0,0,0,0-.22,2.59,2.59,0,0,1-.37-.37.18.18,0,0,0-.22,0l-.34.2-.22-.37.35-.2a.18.18,0,0,0,.07-.21,2.3,2.3,0,0,1-.13-.5.17.17,0,0,0-.17-.15h-.4V55.8h.4a.17.17,0,0,0,.17-.14,2.17,2.17,0,0,1,.13-.5.19.19,0,0,0-.07-.22l-.35-.2.22-.37.34.2a.16.16,0,0,0,.22,0,2.1,2.1,0,0,1,.37-.36.19.19,0,0,0,0-.22l-.2-.35.37-.21.2.34a.16.16,0,0,0,.21.07,2.83,2.83,0,0,1,.5-.13.16.16,0,0,0,.15-.17v-.39h.43v.39a.16.16,0,0,0,.14.17,3.18,3.18,0,0,1,.51.13.17.17,0,0,0,.21-.07l.2-.34.36.21-.19.35a.16.16,0,0,0,0,.22,2,2,0,0,1,.36.36.16.16,0,0,0,.22,0l.35-.2.21.37-.34.2a.18.18,0,0,0-.08.22,2.19,2.19,0,0,1,.14.5.16.16,0,0,0,.17.14h.4Z"/><path class="cls-12" d="M664.31,54.6a1.12,1.12,0,1,1,1.11-1.11A1.12,1.12,0,0,1,664.31,54.6Zm0-1.91a.8.8,0,1,0,.79.8A.79.79,0,0,0,664.31,52.69Z"/><path class="cls-12" d="M670.23,57.27A1.25,1.25,0,1,1,671.48,56,1.25,1.25,0,0,1,670.23,57.27Zm0-2.14a.89.89,0,1,0,.89.89A.89.89,0,0,0,670.23,55.13Z"/><path class="cls-12" d="M356,110.5s0,0,0,0v0a.35.35,0,0,0-.05.13h0l-.67,4a.35.35,0,0,0,.51.36l3.59-1.93h0a.27.27,0,0,0,.11-.1h0l0,0L369.9,98.38h0l1.78-2.49a.41.41,0,0,0,0-.45,5.9,5.9,0,0,0-1.36-1.37,6,6,0,0,0-1.73-.84.42.42,0,0,0-.43.15l-1.78,2.5h0Zm11.1-13.89.23.11.14.07a.84.84,0,0,1,.23.12l.12.07a.05.05,0,0,1,0,0l-10,14a6,6,0,0,0-1-.5l10-14a.25.25,0,0,0,.09,0Zm1.46.92a.86.86,0,0,1,.2.18,1.14,1.14,0,0,1,.11.11c.06.05.11.12.17.18a.4.4,0,0,0,.1.12l.06.08-10,14a5.68,5.68,0,0,0-.78-.77l10-14s0,0,0,0A.43.43,0,0,1,368.51,97.53Zm-12.46,16.53.48-2.85a5.25,5.25,0,0,1,1.12.6h0a6,6,0,0,1,.94.87Zm12.54-20a5.06,5.06,0,0,1,2.34,1.68l-1.3,1.83h0l0,0-.27-.31s-.06-.06-.1-.08a2.5,2.5,0,0,0-.23-.23.39.39,0,0,1-.1-.08,5.59,5.59,0,0,0-.7-.5,1.05,1.05,0,0,1-.11-.07l-.29-.14-.11-.07-.38-.16h0Z"/><line class="cls-2" x1="722.24" y1="93.76" x2="685.66" y2="93.76"/><line class="cls-2" x1="713.33" y1="103.07" x2="686.29" y2="103.07"/><text class="cls-13" transform="translate(8.98 74.29)">CRE<tspan class="cls-14" x="18.4" y="0">A</tspan><tspan x="24.67" y="0">CIÓN DE </tspan><tspan class="cls-15"><tspan x="0" y="12">RECURSOS EDU</tspan><tspan class="cls-16" x="71.71" y="12">C</tspan><tspan class="cls-17" x="77.87" y="12">A</tspan><tspan class="cls-18" x="83.74" y="12">TI</tspan><tspan class="cls-19" x="91.85" y="12">V</tspan><tspan class="cls-18" x="97.74" y="12">OS </tspan></tspan><tspan x="0" y="24">DIGI</tspan><tspan class="cls-17" x="19.41" y="24">T</tspan><tspan class="cls-15" x="24.01" y="24">ALES</tspan></text><g class="cls-20"><g class="cls-21"><path class="cls-22" d="M5.31,141.49A6.91,6.91,0,0,1,.18,130l19.09-21.18A6.9,6.9,0,0,1,29.52,118L10.44,139.2A6.87,6.87,0,0,1,5.31,141.49Z"/></g><g class="cls-23"><path class="cls-22" d="M43.48,141.56a6.88,6.88,0,0,1-5.13-2.28L19.27,118.1a6.9,6.9,0,0,1,10.25-9.24L48.6,130a6.89,6.89,0,0,1-5.12,11.52Z"/></g></g><g class="cls-20"><g class="cls-21"><path class="cls-22" d="M968.68,141.06a6.91,6.91,0,0,1-5.12-11.53l19.08-21.18a6.9,6.9,0,0,1,10.25,9.24l-19.08,21.18A6.86,6.86,0,0,1,968.68,141.06Z"/></g><g class="cls-23"><path class="cls-22" d="M1006.85,141.13a6.88,6.88,0,0,1-5.13-2.28l-19.08-21.18a6.9,6.9,0,0,1,10.26-9.23L1012,129.61a6.9,6.9,0,0,1-5.13,11.52Z"/></g></g><text class="cls-24" transform="translate(981.23 99.47)">16</text></svg>