<svg id="Capa_1" data-name="Capa 1" xmlns="http://www.w3.org/2000/svg" viewBox="0 0 1012.27 125.36"><defs><style>.cls-1{fill:#ebb92b;}.cls-13,.cls-2,.cls-31,.cls-32{fill:none;stroke:#fff;stroke-miterlimit:10;}.cls-2{stroke-width:0.64px;}.cls-3{opacity:0.8;}.cls-4{opacity:0.75;}.cls-5{fill:#d7d7d7;}.cls-6{opacity:0.82;}.cls-7{font-size:13px;letter-spacing:0.07em;}.cls-14,.cls-20,.cls-30,.cls-7,.cls-8{fill:#fff;}.cls-7,.cls-8{font-family:Montserrat-Regular, Montserrat;}.cls-8{font-size:8px;letter-spacing:0.08em;}.cls-9{letter-spacing:0.08em;}.cls-10{letter-spacing:0.06em;}.cls-11{letter-spacing:0.07em;}.cls-12{letter-spacing:0.07em;}.cls-13{stroke-width:0.77px;}.cls-14{font-size:54.53px;}.cls-14,.cls-20{font-family:Montserrat-Bold, Montserrat;font-weight:700;}.cls-15{letter-spacing:-0.03em;}.cls-16{letter-spacing:-0.01em;}.cls-17{letter-spacing:0em;}.cls-18{letter-spacing:-0.01em;}.cls-19{letter-spacing:0em;}.cls-20{font-size:10.71px;}.cls-21{letter-spacing:-0.02em;}.cls-22{letter-spacing:0em;}.cls-23{letter-spacing:0em;}.cls-24{letter-spacing:-0.02em;}.cls-25{letter-spacing:-0.03em;}.cls-26{letter-spacing:-0.01em;}.cls-27{letter-spacing:0em;}.cls-28{letter-spacing:-0.08em;}.cls-29{letter-spacing:-0.06em;}.cls-31{stroke-width:0.74px;}.cls-32{stroke-width:0.56px;}.cls-33{letter-spacing:-0.04em;}.cls-34{letter-spacing:-0.01em;}</style></defs><title>insumos</title><rect class="cls-1" x="-20.53" y="-18.08" width="1059.82" height="153.98"/><line class="cls-2" x1="505.72" y1="88.45" x2="416.1" y2="88.45"/><line class="cls-2" x1="483.89" y1="97.81" x2="417.63" y2="97.81"/><g class="cls-3"><g class="cls-4"><path class="cls-5" d="M972.26,142.07a6.91,6.91,0,0,1-5.12-11.53l19.08-21.18a6.9,6.9,0,0,1,10.25,9.24l-19.08,21.19A6.88,6.88,0,0,1,972.26,142.07Z"/></g><g class="cls-6"><path class="cls-5" d="M1010.44,142.14a6.85,6.85,0,0,1-5.13-2.28l-19.09-21.17a6.9,6.9,0,0,1,10.26-9.24l19.08,21.17a6.89,6.89,0,0,1-5.12,11.52Z"/></g></g><text class="cls-7" transform="translate(983.81 102.49)">10</text><g class="cls-3"><g class="cls-4"><path class="cls-5" d="M6.8,143.54A6.91,6.91,0,0,1,1.68,132l19.08-21.18A6.9,6.9,0,1,1,31,120.08L11.93,141.26A6.88,6.88,0,0,1,6.8,143.54Z"/></g><g class="cls-6"><path class="cls-5" d="M45,143.62a6.91,6.91,0,0,1-5.13-2.28L20.76,120.16A6.9,6.9,0,0,1,31,110.92L50.1,132.09A6.91,6.91,0,0,1,45,143.62Z"/></g></g><text class="cls-8" transform="translate(17.42 85.76)">L<tspan class="cls-9" x="4.85" y="0">A INVESTIG</tspan><tspan class="cls-10" x="55.94" y="0">A</tspan><tspan class="cls-9" x="62.22" y="0">CIÓN </tspan><tspan class="cls-9"><tspan x="0" y="12">B</tspan><tspan class="cls-11" x="6.3" y="12">AS</tspan><tspan class="cls-12" x="18.12" y="12">A</tspan><tspan class="cls-10" x="24.53" y="12">D</tspan><tspan x="31.26" y="12">A EN DISEÑO</tspan></tspan></text><path class="cls-13" d="M510.66,14.73s11.65-9.09,33.41-8.2c16.31.67,29.25,7.74,40.4,16.34,22.55,17.42,43.87,35.43,87.42,19"/><path class="cls-13" d="M603.84,51.11s13.35,6.78,26,7.12,26.66-3.09,26.66-3.09"/><text class="cls-14" transform="translate(305.66 76.09)">ME<tspan class="cls-15" x="86.33" y="0">T</tspan><tspan x="117.9" y="0">O</tspan><tspan class="cls-16" x="161.75" y="0">D</tspan><tspan class="cls-17" x="202.86" y="0">OL</tspan><tspan class="cls-18" x="277.41" y="0">O</tspan><tspan class="cls-19" x="320.6" y="0">GÍA</tspan></text><text class="cls-20" transform="translate(286.32 26.34)"><tspan xml:space="preserve"> INVESTIG</tspan><tspan class="cls-21" x="55.01" y="0">A</tspan><tspan class="cls-22" x="63.09" y="0">CIÓN B</tspan><tspan class="cls-23" x="101.84" y="0">AS</tspan><tspan x="116.98" y="0">A</tspan><tspan class="cls-24" x="125.27" y="0">D</tspan><tspan x="133.27" y="0">A EN DISEÑO</tspan></text><text class="cls-20" transform="translate(569.32 94.55)">FUN<tspan class="cls-24" x="23.05" y="0">D</tspan><tspan x="31.05" y="0">AMEN</tspan><tspan class="cls-25" x="64.72" y="0">T</tspan><tspan x="70.92" y="0">OS TEÓRI</tspan><tspan class="cls-26" x="123.27" y="0">C</tspan><tspan class="cls-27" x="130.56" y="0">OS</tspan></text><text class="cls-20"><tspan x="721.73" y="38.6">MIX</tspan><tspan class="cls-25" x="742.78" y="38.6">T</tspan><tspan x="748.98" y="38.6">OS</tspan></text><text class="cls-20" transform="translate(289.4 94.55)">ESTR<tspan class="cls-28" x="28.49" y="0">A</tspan><tspan x="35.97" y="0">TEGI</tspan><tspan class="cls-23" x="61.16" y="0">A</tspan><tspan x="69.41" y="0">S </tspan><tspan x="0" y="12.86">FORM</tspan><tspan class="cls-28" x="32.61" y="12.86">A</tspan><tspan x="40.08" y="12.86">TI</tspan><tspan class="cls-29" x="50.08" y="12.86">V</tspan><tspan class="cls-23" x="57.33" y="12.86">A</tspan><tspan x="65.59" y="12.86">S</tspan></text><path class="cls-30" d="M760.74,49a.5.5,0,0,0,0-.12l0,0a.5.5,0,0,0-.08-.12h0l-5.38-5.42h0a.25.25,0,0,0-.12-.08l0,0-.12,0H737.62a.44.44,0,0,0-.43.44V71.68a.44.44,0,0,0,.43.45h22.69a.44.44,0,0,0,.43-.45V49Zm-1.49-.4h-3.89V44.63Zm.62,22.68H738.06V44H754.5v5a.44.44,0,0,0,.43.44h4.94Z"/><path class="cls-30" d="M748,53.37h-7.8a.61.61,0,0,1-.61-.61V46.33a.61.61,0,0,1,.61-.61H748a.6.6,0,0,1,.6.61v6.43A.6.6,0,0,1,748,53.37Zm-7.65-.76h7.49V46.48h-7.49Z"/><polygon class="cls-30" points="740 52.78 742.37 48.66 744.57 51.34 746.03 50.35 748.25 52.76 740 52.78"/><rect class="cls-30" x="740" y="56.23" width="17.64" height="0.62"/><rect class="cls-30" x="740" y="58.6" width="17.64" height="0.62"/><rect class="cls-30" x="740" y="60.97" width="17.64" height="0.62"/><rect class="cls-30" x="740" y="63.33" width="17.64" height="0.62"/><rect class="cls-30" x="740" y="65.7" width="17.64" height="0.62"/><rect class="cls-30" x="740" y="68.07" width="10.78" height="0.62"/><circle class="cls-30" cx="390.97" cy="101.41" r="3.32"/><path class="cls-30" d="M386.41,109.75h9.11s.38-5-4.81-5C386.1,104.74,386.41,109.75,386.41,109.75Z"/><path class="cls-30" d="M398.28,99.93c3.37,0,5.17-1.6,5.17-3.41s-2.19-3.42-4.89-3.42-4.9,1.53-4.9,3.42c0,1.43,1.27,2.66,3.07,3.17l-.28,1Zm-1.62-4.66h4.15v.28h-4.15Zm0,1.06h4.15v.28h-4.15Zm0,1.34v-.28h2.23v.28Z"/><path class="cls-30" d="M406.23,85.72H380a.4.4,0,0,0-.41.4V109.8a.41.41,0,0,0,.41.4h25.8a.4.4,0,1,0,0-.79H380.45V90.49h25.38v18.92H405a.4.4,0,1,0,0,.79h1.22a.41.41,0,0,0,.42-.4V86.12A.41.41,0,0,0,406.23,85.72Zm-25.78,4V86.52h25.38V89.7Z"/><path class="cls-30" d="M403.8,87.82a.36.36,0,0,0-.12.28.42.42,0,0,0,.12.29.39.39,0,0,0,.28.11.46.46,0,0,0,.3-.11.45.45,0,0,0,.12-.29.4.4,0,0,0-.12-.28A.45.45,0,0,0,403.8,87.82Z"/><path class="cls-30" d="M401.83,87.7a.41.41,0,0,0-.41.4.4.4,0,0,0,.41.4.4.4,0,0,0,.41-.4A.4.4,0,0,0,401.83,87.7Z"/><path class="cls-30" d="M399.29,87.82a.4.4,0,0,0-.12.28.45.45,0,0,0,.12.29.44.44,0,0,0,.29.11.42.42,0,0,0,.29-.11.4.4,0,0,0,.12-.29.36.36,0,0,0-.12-.28A.45.45,0,0,0,399.29,87.82Z"/><path class="cls-30" d="M562.61,82.41h-25a.39.39,0,0,0-.39.38v22.59a.39.39,0,0,0,.39.38h24.6a.38.38,0,1,0,0-.75H538V87h24.21V105h-.78a.38.38,0,1,0,0,.75h1.17a.38.38,0,0,0,.39-.38V82.79A.38.38,0,0,0,562.61,82.41ZM538,86.21v-3h24.21v3Z"/><path class="cls-30" d="M560.29,84.42a.33.33,0,0,0-.12.27.37.37,0,0,0,.12.27.39.39,0,0,0,.27.11.49.49,0,0,0,.28-.11.39.39,0,0,0,.11-.27.35.35,0,0,0-.11-.27A.41.41,0,0,0,560.29,84.42Z"/><path class="cls-30" d="M558.41,84.3a.39.39,0,1,0,0,.77.39.39,0,1,0,0-.77Z"/><path class="cls-30" d="M556,84.42a.33.33,0,0,0-.12.27A.36.36,0,0,0,556,85a.44.44,0,0,0,.27.11.44.44,0,0,0,.28-.11.35.35,0,0,0,.11-.27.32.32,0,0,0-.11-.27A.41.41,0,0,0,556,84.42Z"/><path class="cls-31" d="M546.51,93.53a4,4,0,0,1,4.12-3.19,3.71,3.71,0,0,1,3.7,3.39"/><rect class="cls-31" x="545.62" y="93.59" width="2.06" height="3.45" rx="1.03"/><rect class="cls-31" x="553.3" y="93.59" width="2.06" height="3.45" rx="1.03"/><path class="cls-31" d="M554.33,97.05a3,3,0,0,1-1.34,1.8"/><circle class="cls-32" cx="552.62" cy="99.12" r="0.55"/><rect class="cls-30" x="540.64" y="103.46" width="20.61" height="0.31" rx="0.15"/><polygon class="cls-30" points="538.98 103.01 538.98 104.13 539.91 103.57 538.98 103.01"/><path class="cls-30" d="M653.17,10.82a.36.36,0,0,0,0-.11.06.06,0,0,1,0,0,.76.76,0,0,0-.08-.11h0l-5-5h0a.19.19,0,0,0-.12-.07s0,0,0,0l-.11,0H631.67a.4.4,0,0,0-.4.41V32a.4.4,0,0,0,.4.41h21.1a.4.4,0,0,0,.4-.41V10.82Zm-1.38-.38h-3.62V6.79Zm.58,21.1H632.08V6.22h15.28v4.62a.41.41,0,0,0,.41.41h4.6Z"/><path class="cls-30" d="M648.68,12.17H643a.34.34,0,0,0-.33.34v3.85a.34.34,0,0,0,.33.34h5.66a.34.34,0,0,0,.33-.34V12.51A.34.34,0,0,0,648.68,12.17ZM648.35,16h-5V12.83h5Z"/><path class="cls-30" d="M648.68,18H643a.32.32,0,0,0-.33.32.34.34,0,0,0,.33.34h5.66a.34.34,0,0,0,.33-.34A.32.32,0,0,0,648.68,18Z"/><path class="cls-30" d="M635.38,20.69H641a.33.33,0,0,0,.33-.33A.34.34,0,0,0,641,20h-5.57a.35.35,0,0,0-.34.35A.34.34,0,0,0,635.38,20.69Z"/><path class="cls-30" d="M648.68,26H643a.33.33,0,0,0-.33.33.34.34,0,0,0,.33.34h5.66a.34.34,0,0,0,.33-.34A.33.33,0,0,0,648.68,26Z"/><path class="cls-30" d="M648.68,24H643a.34.34,0,0,0-.33.34.32.32,0,0,0,.33.32h5.66a.32.32,0,0,0,.33-.32A.34.34,0,0,0,648.68,24Z"/><path class="cls-30" d="M641,22h-5.65a.33.33,0,0,0-.34.32.34.34,0,0,0,.34.34H641a.34.34,0,0,0,.33-.34A.33.33,0,0,0,641,22Z"/><path class="cls-30" d="M641,28h-5.65a.34.34,0,1,0,0,.67H641a.34.34,0,0,0,0-.67Z"/><path class="cls-30" d="M646.57,28H643a.34.34,0,0,0,0,.67h3.55a.34.34,0,1,0,0-.67Z"/><path class="cls-30" d="M641,24h-5.65a.34.34,0,0,0-.34.34v2a.34.34,0,0,0,.34.34H641a.34.34,0,0,0,.33-.34v-2A.34.34,0,0,0,641,24Zm-.33,2h-5V24.67h5Z"/><path class="cls-30" d="M648.68,20H643a.34.34,0,0,0-.33.35v2a.34.34,0,0,0,.33.34h5.66a.34.34,0,0,0,.33-.34v-2A.34.34,0,0,0,648.68,20Zm-.33,2h-5V20.69h5Z"/><path class="cls-30" d="M638.28,12.17a3.25,3.25,0,1,0,3.25,3.25A3.25,3.25,0,0,0,638.28,12.17Zm0,5.83a2.59,2.59,0,1,1,2.58-2.58A2.58,2.58,0,0,1,638.28,18Z"/><path class="cls-30" d="M639.63,15.09h-1v-1a.34.34,0,1,0-.67,0v1h-1a.33.33,0,0,0-.33.33.33.33,0,0,0,.33.33h1v1a.34.34,0,0,0,.67,0v-1h1a.33.33,0,0,0,.33-.33A.33.33,0,0,0,639.63,15.09Z"/><text class="cls-20" transform="translate(697.07 24.94)">MÉ<tspan class="cls-33" x="16.96" y="0">T</tspan><tspan class="cls-27" x="23.17" y="0">O</tspan><tspan class="cls-34" x="31.78" y="0">D</tspan><tspan x="39.86" y="0">OS </tspan></text></svg>