<svg id="Capa_1" data-name="Capa 1" xmlns="http://www.w3.org/2000/svg" viewBox="0 0 1012.27 125.36"><defs><style>.cls-1{fill:#045568;opacity:0.84;}.cls-2,.cls-22,.cls-23,.cls-8{fill:none;stroke:#fff;stroke-miterlimit:10;}.cls-2{stroke-width:0.82px;}.cls-3{opacity:0.8;}.cls-4{opacity:0.75;}.cls-5{fill:#d7d7d7;}.cls-6{opacity:0.82;}.cls-13,.cls-24,.cls-29,.cls-7,.cls-9{fill:#fff;}.cls-8{stroke-width:0.7px;}.cls-9{font-size:49.68px;}.cls-13,.cls-9{font-family:Montserrat-Bold, Montserrat;font-weight:700;}.cls-10{letter-spacing:-0.02em;}.cls-11{letter-spacing:-0.02em;}.cls-12{letter-spacing:0em;}.cls-13{font-size:9.76px;}.cls-14{letter-spacing:-0.02em;}.cls-15{letter-spacing:-0.01em;}.cls-16{letter-spacing:-0.01em;}.cls-17{letter-spacing:0em;}.cls-18{letter-spacing:0em;}.cls-19{letter-spacing:-0.07em;}.cls-20{letter-spacing:0em;}.cls-21{letter-spacing:-0.02em;}.cls-22{stroke-width:0.75px;}.cls-23{stroke-width:0.57px;}.cls-24{font-size:8px;}.cls-24,.cls-29{font-family:Montserrat-Regular, Montserrat;}.cls-24,.cls-28{letter-spacing:0.08em;}.cls-25{letter-spacing:0.05em;}.cls-26{letter-spacing:0.07em;}.cls-27{letter-spacing:0.06em;}.cls-29{font-size:13px;letter-spacing:0.07em;}</style></defs><title>insumos</title><rect class="cls-1" x="-11.73" y="-12.28" width="1035.7" height="148.97"/><line class="cls-2" x1="769.25" y1="91.26" x2="654.66" y2="91.26"/><line class="cls-2" x1="741.33" y1="103.24" x2="656.61" y2="103.24"/><g class="cls-3"><g class="cls-4"><path class="cls-5" d="M5.82,142.72A6.9,6.9,0,0,1,.7,131.2L19.79,110A6.9,6.9,0,1,1,30,119.26L11,140.44A6.88,6.88,0,0,1,5.82,142.72Z"/></g><g class="cls-6"><path class="cls-5" d="M44,142.8a6.88,6.88,0,0,1-5.13-2.28L19.79,119.34A6.9,6.9,0,0,1,30,110.1l19.08,21.18A6.9,6.9,0,0,1,44,142.8Z"/></g></g><path class="cls-7" d="M380.22,100.08l-.6,0a4.67,4.67,0,0,0-.13-.65l.55-.26a.73.73,0,0,0,.35-1l-.44-.94a.73.73,0,0,0-1-.35l-.55.26c-.13-.18-.28-.34-.43-.51l.34-.5a.72.72,0,0,0-.18-1l-.86-.6a.74.74,0,0,0-1,.18l-.35.51L375.3,95l.05-.6a.74.74,0,0,0-.67-.79l-1-.08a.73.73,0,0,0-.78.67l-.05.6-.66.13-.26-.56a.73.73,0,0,0-1-.34l-.95.45a.73.73,0,0,0-.34,1l.26.55c-.17.14-.35.28-.51.43l-.5-.35a.75.75,0,0,0-.55-.11.76.76,0,0,0-.47.31l-.59.84a.79.79,0,0,0-.12.55.81.81,0,0,0,.31.48l.5.34a4.26,4.26,0,0,0-.22.63l-.61,0a.74.74,0,0,0-.79.68l-.08,1a.73.73,0,0,0,.67.79l.61,0a5,5,0,0,0,.11.66l-.54.25a.78.78,0,0,0-.38.42.73.73,0,0,0,0,.56l.44.94a.73.73,0,0,0,.42.37.69.69,0,0,0,.56,0l.55-.26a5.27,5.27,0,0,0,.43.51l-.35.5a.76.76,0,0,0,.19,1l.86.58a.73.73,0,0,0,1-.18l.35-.51a5.33,5.33,0,0,0,.63.23l-.05.6a.73.73,0,0,0,.67.79l1,.08a.71.71,0,0,0,.78-.66l0-.61a5.13,5.13,0,0,0,.66-.13l.26.56a.73.73,0,0,0,1,.34l.94-.44a.74.74,0,0,0,.34-1l-.26-.54c.17-.14.35-.28.51-.44l.5.35a.74.74,0,0,0,1-.18l.59-.86a.74.74,0,0,0-.19-1l-.5-.34c.09-.21.16-.42.23-.63l.6,0a.72.72,0,0,0,.79-.66l.08-1A.75.75,0,0,0,380.22,100.08Zm-.17,1.73-.89-.07a.38.38,0,0,0-.41.3,5.09,5.09,0,0,1-.39,1.09.4.4,0,0,0,.13.49l.73.5-.55.79-.73-.5a.37.37,0,0,0-.49,0,5.28,5.28,0,0,1-.89.75.39.39,0,0,0-.13.48l.38.81-.87.41-.38-.81a.39.39,0,0,0-.46-.19,5.56,5.56,0,0,1-1.14.2.39.39,0,0,0-.36.35l-.07.9-1-.08.08-.9a.41.41,0,0,0-.3-.4,5.51,5.51,0,0,1-1.1-.38.38.38,0,0,0-.48.12l-.51.73-.79-.54.51-.74a.39.39,0,0,0-.05-.49,5.34,5.34,0,0,1-.76-.89.38.38,0,0,0-.48-.13l-.81.38-.41-.87.8-.38a.38.38,0,0,0,.21-.46,5.73,5.73,0,0,1-.22-1.14.38.38,0,0,0-.34-.36l-.89-.07.08-1,.88.08a.37.37,0,0,0,.4-.3,5.5,5.5,0,0,1,.4-1.09.39.39,0,0,0-.13-.49l-.73-.51.54-.79.74.5a.36.36,0,0,0,.49,0,6.42,6.42,0,0,1,.89-.75.39.39,0,0,0,.14-.48l-.39-.81.87-.41.38.81a.38.38,0,0,0,.46.2,5.58,5.58,0,0,1,1.14-.21.39.39,0,0,0,.36-.35l.07-.88,1,.07-.07.89a.39.39,0,0,0,.29.4,5.33,5.33,0,0,1,1.1.39.39.39,0,0,0,.49-.12l.5-.74.79.54-.51.74a.41.41,0,0,0,.05.5,4.91,4.91,0,0,1,.76.88.37.37,0,0,0,.48.13l.81-.38.41.87-.8.38a.39.39,0,0,0-.21.46,5.08,5.08,0,0,1,.21,1.14.39.39,0,0,0,.36.36l.88.07Z"/><path class="cls-7" d="M395,105.58h-.67a5.13,5.13,0,0,0-.19-.7l.58-.33a.79.79,0,0,0,.29-1.08l-.56-1a.81.81,0,0,0-1.09-.3l-.57.34c-.17-.19-.34-.35-.52-.52l.33-.57a.79.79,0,0,0-.29-1.08l-1-.57a.82.82,0,0,0-1.09.28l-.33.59c-.23-.08-.47-.14-.7-.2V99.8a.8.8,0,0,0-.8-.79h-1.12a.8.8,0,0,0-.8.79v.66c-.23.06-.47.12-.7.2l-.33-.59a.8.8,0,0,0-1.08-.28l-1,.57a.79.79,0,0,0-.29,1.08l.33.57a6.26,6.26,0,0,0-.51.52l-.58-.34a.78.78,0,0,0-.6-.07.75.75,0,0,0-.48.37l-.57,1a.84.84,0,0,0-.08.6.87.87,0,0,0,.37.49l.57.33a7.15,7.15,0,0,0-.18.7h-.66a.8.8,0,0,0-.8.8v1.13a.79.79,0,0,0,.8.79h.66c0,.24.11.47.18.71l-.57.32a.84.84,0,0,0-.37.48.86.86,0,0,0,.08.61l.57,1a.77.77,0,0,0,.48.36.75.75,0,0,0,.6-.08l.58-.33a6.26,6.26,0,0,0,.51.52l-.33.57a.8.8,0,0,0,.29,1.09l1,.56a.8.8,0,0,0,1.08-.29l.33-.58a4.6,4.6,0,0,0,.7.2v.65a.8.8,0,0,0,.8.8h1.12a.8.8,0,0,0,.8-.8v-.65a4.6,4.6,0,0,0,.7-.2l.33.58a.81.81,0,0,0,1.09.29l1-.56a.8.8,0,0,0,.29-1.09l-.33-.57c.18-.16.35-.34.52-.52l.57.33a.8.8,0,0,0,1.09-.28l.56-1a.8.8,0,0,0-.29-1.09l-.58-.32a6.22,6.22,0,0,0,.19-.71H395a.79.79,0,0,0,.79-.79v-1.13A.8.8,0,0,0,395,105.58Zm0,1.88h-1a.42.42,0,0,0-.42.36,5.17,5.17,0,0,1-.33,1.21.42.42,0,0,0,.19.52l.84.49-.53.9-.84-.48a.4.4,0,0,0-.53.1,5.83,5.83,0,0,1-.9.89.43.43,0,0,0-.1.53l.49.84-.9.52-.48-.84a.43.43,0,0,0-.52-.17,5.86,5.86,0,0,1-1.23.32.44.44,0,0,0-.35.41v1h-1v-1a.43.43,0,0,0-.36-.41,5.94,5.94,0,0,1-1.22-.32.41.41,0,0,0-.51.17l-.49.84-.9-.52.49-.84a.42.42,0,0,0-.1-.53,6.31,6.31,0,0,1-.9-.89.4.4,0,0,0-.53-.1l-.84.48-.52-.9.83-.49a.43.43,0,0,0,.19-.52,5.74,5.74,0,0,1-.34-1.21.4.4,0,0,0-.41-.36h-1v-1h1a.4.4,0,0,0,.41-.36,6,6,0,0,1,.34-1.22.44.44,0,0,0-.19-.52l-.83-.48.52-.9.84.48a.4.4,0,0,0,.53-.1,6.31,6.31,0,0,1,.9-.89.42.42,0,0,0,.1-.53l-.49-.85.9-.52.49.85a.4.4,0,0,0,.51.17,5.94,5.94,0,0,1,1.22-.32.43.43,0,0,0,.36-.41v-1h1v1a.44.44,0,0,0,.35.41,5.86,5.86,0,0,1,1.23.32.42.42,0,0,0,.52-.17l.48-.85.9.52-.49.85a.43.43,0,0,0,.1.53,5.83,5.83,0,0,1,.9.89.4.4,0,0,0,.53.1l.84-.48.53.9-.84.48a.43.43,0,0,0-.19.52,5.39,5.39,0,0,1,.33,1.22.42.42,0,0,0,.42.36h1Z"/><path class="cls-7" d="M373.47,103.49a2.72,2.72,0,1,1,2.71-2.72A2.71,2.71,0,0,1,373.47,103.49Zm0-4.64a1.93,1.93,0,1,0,1.93,1.92A1.93,1.93,0,0,0,373.47,98.85Z"/><path class="cls-7" d="M387.9,110a3,3,0,1,1,3-3A3.06,3.06,0,0,1,387.9,110Zm0-5.21a2.16,2.16,0,1,0,2.16,2.16A2.17,2.17,0,0,0,387.9,104.78Z"/><path class="cls-8" d="M535.21,9.57s11.28-7.33,31-4.8c14.75,1.9,25.93,9.34,35.36,18,19.1,17.6,37,35.63,77.85,24.13"/><path class="cls-8" d="M616.89,50s11.59,7.22,23.06,8.53,24.44-.7,24.44-.7"/><text class="cls-9" transform="translate(298.68 79.89)">E-<tspan class="cls-10" x="52.17" y="0">A</tspan><tspan x="89.62" y="0">CTIVI</tspan><tspan class="cls-11" x="222.57" y="0">D</tspan><tspan class="cls-12" x="259.68" y="0">ADES</tspan></text><text class="cls-13" transform="translate(291.53 33.14)">ENSEÑAR</text><text class="cls-13" transform="translate(556.47 99.56)">DI<tspan class="cls-14" x="10.59" y="0">DÁ</tspan><tspan x="25.24" y="0">CTI</tspan><tspan class="cls-15" x="41.11" y="0">C</tspan><tspan x="47.78" y="0">A</tspan></text><text class="cls-13" transform="translate(648.79 37.3)">APRENDER</text><text class="cls-13" transform="translate(439.6 97.25)">ROL DEL <tspan x="0" y="11.71">PROFESOR</tspan></text><text class="cls-13" transform="translate(295.84 97.25)">TRABAJO <tspan class="cls-16" x="-14.59" y="11.71">C</tspan><tspan x="-7.95" y="11.71">O</tspan><tspan class="cls-17" x="-0.1" y="11.71">L</tspan><tspan class="cls-18" x="5.42" y="11.71">ABOR</tspan><tspan class="cls-19" x="34.87" y="11.71">A</tspan><tspan x="41.69" y="11.71">TI</tspan><tspan class="cls-20" x="50.79" y="11.71">V</tspan><tspan x="57.92" y="11.71">O</tspan></text><text class="cls-13" transform="translate(380.32 33.74)">TRABAJO INDIVID<tspan class="cls-21" x="90.29" y="0">U</tspan><tspan x="97.5" y="0">AL</tspan></text><path class="cls-7" d="M733.88,63.65s0,0,0,0v0a.35.35,0,0,0-.05.13h0l-.63,3.81a.33.33,0,0,0,.48.34l3.4-1.83h0a.43.43,0,0,0,.1-.09l0,0a0,0,0,0,0,0,0l9.87-13.82s0,0,0,0h0l1.68-2.35a.36.36,0,0,0,0-.42,5.45,5.45,0,0,0-1.28-1.3,5.66,5.66,0,0,0-1.64-.79.38.38,0,0,0-.4.14l-1.69,2.37h0Zm10.49-13.12.21.1.13.07a.84.84,0,0,1,.23.12.33.33,0,0,1,.1.06l0,0-9.44,13.22a5.07,5.07,0,0,0-.93-.47l9.43-13.2a.25.25,0,0,0,.09,0A.33.33,0,0,0,744.37,50.53Zm1.38.87a1,1,0,0,1,.18.17l.11.1c.05,0,.1.12.16.17l.09.12a.22.22,0,0,0,.06.07l-9.43,13.2a5.51,5.51,0,0,0-.73-.72l9.44-13.22s0,0,0,0A.39.39,0,0,1,745.75,51.4ZM734,67l.45-2.69a5.18,5.18,0,0,1,1.06.57h0a5.25,5.25,0,0,1,.88.82ZM745.82,48.1A4.82,4.82,0,0,1,748,49.68l-1.24,1.73h0l0,0c-.09-.1-.18-.19-.26-.29l-.09-.08c-.07-.08-.15-.14-.22-.21s-.06-.06-.1-.08a4.39,4.39,0,0,0-.66-.47l-.1-.07-.27-.13A1.05,1.05,0,0,1,745,50l-.36-.15h0Z"/><path class="cls-7" d="M738.34,34.06a.25.25,0,0,0,0-.12.09.09,0,0,0,0,0,.54.54,0,0,0-.09-.12h0l-5.61-5.66h0a.26.26,0,0,0-.13-.08l0,0-.12,0h-18.1a.46.46,0,0,0-.45.46V57.78a.46.46,0,0,0,.45.47H737.9a.46.46,0,0,0,.45-.47V34.06Zm-1.55-.42h-4.06v-4.1Zm.65,23.68H714.67V28.9h17.16v5.18a.46.46,0,0,0,.45.47h5.16Z"/><path class="cls-7" d="M725.07,38.67h-8.14a.64.64,0,0,1-.63-.64V31.31a.64.64,0,0,1,.63-.64h8.14a.64.64,0,0,1,.64.64V38A.64.64,0,0,1,725.07,38.67Zm-8-.8h7.82v-6.4h-7.82Z"/><polygon class="cls-7" points="716.69 38.05 719.17 33.74 721.46 36.55 722.99 35.52 725.31 38.02 716.69 38.05"/><rect class="cls-7" x="716.69" y="41.65" width="18.42" height="0.65"/><rect class="cls-7" x="716.69" y="44.12" width="18.42" height="0.65"/><rect class="cls-7" x="716.69" y="46.59" width="18.42" height="0.65"/><rect class="cls-7" x="716.69" y="49.07" width="18.42" height="0.65"/><rect class="cls-7" x="716.69" y="51.54" width="18.42" height="0.65"/><rect class="cls-7" x="716.69" y="54.01" width="11.25" height="0.65"/><circle class="cls-7" cx="358.23" cy="26" r="2.41"/><path class="cls-7" d="M354.92,32.06h6.62a3.32,3.32,0,0,0-3.5-3.65C354.68,28.41,354.92,32.06,354.92,32.06Z"/><path class="cls-7" d="M363.54,24.92c2.45,0,3.76-1.16,3.76-2.48S365.71,20,363.74,20s-3.56,1.11-3.56,2.48a2.69,2.69,0,0,0,2.23,2.31l-.2.75Zm-1.18-3.39h3v.21h-3Zm0,.77h3v.21h-3Zm0,1v-.21H364v.21Z"/><path class="cls-7" d="M369.32,14.59h-19a.3.3,0,0,0-.3.29V32.09a.3.3,0,0,0,.3.3H369a.29.29,0,0,0,.3-.3.29.29,0,0,0-.3-.28H350.58V18.06H369V31.81h-.59a.29.29,0,0,0-.3.28.29.29,0,0,0,.3.3h.89a.29.29,0,0,0,.3-.3V14.88A.29.29,0,0,0,369.32,14.59Zm-18.74,2.9V15.18H369v2.31Z"/><path class="cls-7" d="M367.55,16.12a.27.27,0,0,0-.09.21.28.28,0,0,0,.09.2.31.31,0,0,0,.21.09.33.33,0,0,0,.21-.09.31.31,0,0,0,.09-.2.31.31,0,0,0-.09-.21A.33.33,0,0,0,367.55,16.12Z"/><path class="cls-7" d="M366.12,16a.3.3,0,1,0,0,.59.3.3,0,1,0,0-.59Z"/><path class="cls-7" d="M364.28,16.12a.27.27,0,0,0-.09.21.27.27,0,0,0,.09.2.29.29,0,0,0,.2.09.36.36,0,0,0,.22-.09.3.3,0,0,0,.08-.2.3.3,0,0,0-.08-.21A.33.33,0,0,0,364.28,16.12Z"/><path class="cls-7" d="M642.86,89.19H617.45a.39.39,0,0,0-.39.39v23a.39.39,0,0,0,.39.39h25a.38.38,0,0,0,.39-.39.39.39,0,0,0-.39-.38H617.86V93.81h24.61v18.35h-.79a.39.39,0,0,0-.4.38.39.39,0,0,0,.4.39h1.18a.4.4,0,0,0,.41-.39v-23A.4.4,0,0,0,642.86,89.19Zm-25,3.86V90h24.61v3.08Z"/><path class="cls-7" d="M640.5,91.23a.38.38,0,0,0-.12.27.46.46,0,0,0,.12.28.41.41,0,0,0,.56,0,.42.42,0,0,0,.12-.28.38.38,0,0,0-.12-.27A.43.43,0,0,0,640.5,91.23Z"/><path class="cls-7" d="M638.6,91.11a.39.39,0,1,0,0,.78.39.39,0,0,0,0-.78Z"/><path class="cls-7" d="M636.13,91.23a.37.37,0,0,0-.11.27.41.41,0,0,0,.11.28.49.49,0,0,0,.28.11.47.47,0,0,0,.29-.11.41.41,0,0,0,.11-.28.37.37,0,0,0-.11-.27A.44.44,0,0,0,636.13,91.23Z"/><path class="cls-22" d="M626.5,100.49a4,4,0,0,1,4.18-3.24,3.78,3.78,0,0,1,3.77,3.44"/><rect class="cls-22" x="625.59" y="100.56" width="2.09" height="3.51" rx="1.05"/><rect class="cls-22" x="633.4" y="100.56" width="2.09" height="3.51" rx="1.05"/><path class="cls-22" d="M634.45,104.07a3.12,3.12,0,0,1-1.36,1.84"/><circle class="cls-23" cx="632.7" cy="106.18" r="0.56"/><rect class="cls-7" x="620.52" y="110.59" width="20.96" height="0.31" rx="0.15"/><polygon class="cls-7" points="618.84 110.14 618.84 111.27 619.79 110.7 618.84 110.14"/><circle class="cls-7" cx="522.89" cy="21.11" r="4.55"/><path class="cls-7" d="M516.65,32.54h12.48s.51-6.88-6.6-6.88C516.21,25.66,516.65,32.54,516.65,32.54Z"/><circle class="cls-7" cx="536.43" cy="26.8" r="4.55"/><path class="cls-7" d="M530.19,38.23h12.48s.52-6.88-6.6-6.88C529.75,31.35,530.19,38.23,530.19,38.23Z"/><text class="cls-24" transform="translate(15.05 87.28)">EL APRENDIZAJE MEDIA<tspan class="cls-25" x="110.2" y="0">D</tspan><tspan class="cls-26" x="116.89" y="0">O </tspan><tspan class="cls-26"><tspan x="0" y="12">POR E-</tspan><tspan class="cls-27" x="31.5" y="12">A</tspan><tspan class="cls-28" x="37.77" y="12">CTIVI</tspan><tspan class="cls-27" x="61.04" y="12">D</tspan><tspan class="cls-28" x="67.77" y="12">ADES</tspan></tspan></text><g class="cls-3"><g class="cls-4"><path class="cls-5" d="M969.56,142a6.91,6.91,0,0,1-5.12-11.52l19.08-21.18a6.9,6.9,0,1,1,10.25,9.24l-19.08,21.18A6.88,6.88,0,0,1,969.56,142Z"/></g><g class="cls-6"><path class="cls-5" d="M1007.73,142.05a6.91,6.91,0,0,1-5.13-2.28l-19.08-21.18a6.9,6.9,0,1,1,10.26-9.24l19.08,21.17a6.91,6.91,0,0,1-5.13,11.53Z"/></g></g><text class="cls-29" transform="translate(981.31 100.99)">12</text></svg>