<svg id="Capa_1" data-name="Capa 1" xmlns="http://www.w3.org/2000/svg" xmlns:xlink="http://www.w3.org/1999/xlink" viewBox="0 0 348.49 583.88"><defs><style>.cls-1{fill:none;}.cls-2{clip-path:url(#clip-path);}.cls-3{clip-path:url(#clip-path-2);}.cls-4{opacity:0.19;}.cls-5{fill:#a7a6a6;}</style><clipPath id="clip-path"><rect class="cls-1" y="-18.58" width="348.49" height="602.46"/></clipPath><clipPath id="clip-path-2"><rect class="cls-1" x="-241.15" y="-18.58" width="602.46" height="602.46"/></clipPath></defs><title>insumos</title><g class="cls-2"><g class="cls-3"><g class="cls-4"><path class="cls-5" d="M88.27,706.09H28.56a81.67,81.67,0,0,1-29.13-5.7,83,83,0,0,1-52-67.6,85.09,85.09,0,0,1,1.88-29.66A84.16,84.16,0,0,1-38.64,576a83,83,0,0,1,47.79-33.7,82.36,82.36,0,0,1,14.73-2.36c5-.33,10-.19,14.92-.23H68.65l119.41,0H203c1.24,0,2.49,0,3.72-.07a28.4,28.4,0,0,0,3.7-.3,37.39,37.39,0,0,0,7.23-1.68,38.82,38.82,0,0,0,6.47-70.46,37.77,37.77,0,0,0-14-4.6,59.1,59.1,0,0,0-7.42-.32h-7.46l-29.85,0-59.7,0-119.4.09-29.85,0c-5,0-10,.15-15-.36a84.83,84.83,0,0,1-14.74-2.72,82.58,82.58,0,0,1-26.83-13.09,84.36,84.36,0,0,1-20.5-21.71A82.05,82.05,0,0,1-132.17,397,84.69,84.69,0,0,1-134,382.09a85.3,85.3,0,0,1,.69-15,82.8,82.8,0,0,1,9.24-28.43,84.12,84.12,0,0,1,18.72-23.31,83.69,83.69,0,0,1,25.71-15.29,84.6,84.6,0,0,1,29.46-5.17l59.7-.05,119.4-.09,59.7,0h16.79l1.83-.09,1.82-.1c.6-.05,1.2-.17,1.8-.26l1.81-.27c.6-.09,1.18-.29,1.77-.43a25.43,25.43,0,0,0,3.49-1.05,37.73,37.73,0,0,0,5-69,37.56,37.56,0,0,0-13.87-4.17l-3.64-.19H194.22l-29.85,0-59.7,0c-10,0-19.86.05-29.88,0A77.24,77.24,0,0,1,4.84,169.94,78.89,78.89,0,0,1-.41,140.38V110.53l0-59.7V28.44A34.32,34.32,0,0,1,.1,20.8,23.1,23.1,0,0,1,22.62,2.68,23.1,23.1,0,0,1,45.14,20.81a33.73,33.73,0,0,1,.54,7.64V50.84l0,59.7v29.85a32.21,32.21,0,0,0,2.65,14.15,32.24,32.24,0,0,0,21.4,18,26.53,26.53,0,0,0,7.16.73l3.74-.07h33.59l59.7,0h29.85a83.58,83.58,0,0,1,51.15,150.91,82.74,82.74,0,0,1-26.95,13.16,83.7,83.7,0,0,1-14.8,2.75c-1.25.08-2.5.2-3.75.27l-3.77.09h-7.47l-119.4-.1-119.4-.09h-7.46a62,62,0,0,0-7.37.31,37.81,37.81,0,0,0-13.88,4.53,38.35,38.35,0,0,0-18,22.37A39.36,39.36,0,0,0-88.78,382a38.14,38.14,0,0,0,3.85,14.1,38.3,38.3,0,0,0,21.47,19,25,25,0,0,0,3.52,1.06c.6.14,1.18.34,1.79.43l1.82.27c.61.09,1.21.21,1.82.26l1.84.1,1.84.09H-34l29.85,0,59.7.05,119.4.1,29.85,0a83,83,0,0,1,73.57,43.62,82.54,82.54,0,0,1,9.19,28.3A83.71,83.71,0,0,1,254,568.14a81.63,81.63,0,0,1-26.78,12.92,83.31,83.31,0,0,1-14.69,2.62c-5,.47-10,.3-14.93.33l-59.7,0H29.72l-3.72.18c-1.23.14-2.45.36-3.68.54s-2.41.59-3.62.89A38.72,38.72,0,0,0-4,603.72,38.07,38.07,0,0,0-8.6,617.78a40.87,40.87,0,0,0,.95,14.78A39,39,0,0,0,9.4,656.11a37.79,37.79,0,0,0,13.83,5.26c4.91.86,9.92.51,14.88.59H82.89c2.49,0,5-.08,7.46.11A22.6,22.6,0,0,1,97.52,664a22,22,0,0,1,4.55,37.19A22.26,22.26,0,0,1,88.27,706.09Zm0,0A22,22,0,0,0,108,674.26,21.94,21.94,0,0,0,97.5,664.07a22.48,22.48,0,0,0-7.15-2c-2.48-.18-5-.07-7.46-.1H38.11c-5-.07-10,.28-14.89-.57a38.25,38.25,0,0,1-13.87-5.27,39.06,39.06,0,0,1-17.1-23.6,40.67,40.67,0,0,1-1-14.82,38.18,38.18,0,0,1,4.61-14.12,39,39,0,0,1,22.77-18.23c1.21-.29,2.41-.66,3.63-.89s2.46-.41,3.7-.54l3.73-.19H78.23l59.7,0,59.7,0c5,0,10,.13,14.9-.34a82.71,82.71,0,0,0,14.65-2.62,81,81,0,0,0,26.67-12.9,83.41,83.41,0,0,0,20.42-21.47,81.86,81.86,0,0,0,11.55-27.28,83.43,83.43,0,0,0,1.3-29.59,82.52,82.52,0,0,0-53.21-66.3,83.73,83.73,0,0,0-29.15-5.08l-29.85,0-119.4.1-59.7,0-29.85,0H-50.83l-1.89-.09-1.89-.09c-.62-.06-1.24-.18-1.87-.27l-1.87-.28c-.62-.09-1.22-.3-1.84-.44a26.84,26.84,0,0,1-3.62-1.07A39.4,39.4,0,0,1-85.9,396.59a39.05,39.05,0,0,1-4-14.5,40.76,40.76,0,0,1,1.49-15,39.43,39.43,0,0,1,18.45-23.07,38.75,38.75,0,0,1,14.31-4.7,63.35,63.35,0,0,1,7.52-.33h7.46l119.4-.1,119.4-.09c5,0,9.95.13,14.84-.39a81.86,81.86,0,0,0-9.25-163.34H173.89l-59.69,0H80.62l-3.72.07a28.63,28.63,0,0,1-7.65-.78,34.19,34.19,0,0,1-22.74-19.1,34.14,34.14,0,0,1-2.82-14.94V110.54l0-59.7V28.45a31.61,31.61,0,0,0-.5-7.21A21.05,21.05,0,0,0,22.62,4.73,21,21,0,0,0,2.09,21.23a32.18,32.18,0,0,0-.51,7.21V50.83l0,59.7v29.85a76.78,76.78,0,0,0,5.1,28.86,75.37,75.37,0,0,0,68.19,48.09c9.88.07,19.89,0,29.82,0H205.41l3.81.2a39.52,39.52,0,0,1,9.25,76.59,26.9,26.9,0,0,1-3.65,1.09c-.62.14-1.22.35-1.85.44l-1.89.29c-.63.09-1.25.21-1.89.27l-1.9.09-1.9.1h-1.87l-14.93,0-59.7,0-119.4-.1-59.7-.05a83.44,83.44,0,0,0-29,5.05,82.46,82.46,0,0,0-25.35,15,83.09,83.09,0,0,0-18.5,23,82,82,0,0,0-9.16,28,85.11,85.11,0,0,0-.7,14.8,82.52,82.52,0,0,0,1.82,14.69A81,81,0,0,0-119.76,424a83.4,83.4,0,0,0,20.23,21.49,81.54,81.54,0,0,0,26.51,13,83.74,83.74,0,0,0,14.56,2.71c4.92.51,9.9.34,14.88.38l29.85,0,119.4.1,59.7,0,29.85,0h7.46a60.41,60.41,0,0,1,7.48.34,38.24,38.24,0,0,1,14.16,4.68,39.14,39.14,0,0,1-6.59,71.15,38,38,0,0,1-7.29,1.69,28.85,28.85,0,0,1-3.72.3c-1.25.09-2.5.07-3.74.07H188.06l-119.41,0H38.8c-5,0-9.95-.11-14.91.22a81.4,81.4,0,0,0-14.7,2.34,82.89,82.89,0,0,0-47.71,33.6,84.1,84.1,0,0,0-12,27.1,85.11,85.11,0,0,0-1.9,29.62,82.77,82.77,0,0,0,81,73.28Z"/><path class="cls-5" d="M-39.08,115.33a22,22,0,0,1-17.43-8.48,22.22,22.22,0,0,1-4.06-19A22.72,22.72,0,0,1-56,78.91c2.17-2.56,4.41-5,6.61-7.54l13.27-15,26.55-30L3.75,11.42c.56-.62,1.1-1.25,1.73-1.87l.92-.92c.33-.29.67-.56,1-.84A17.5,17.5,0,0,1,9.51,6.25,22.18,22.18,0,0,1,11.78,5,22.87,22.87,0,0,1,21.89,2.6,22.45,22.45,0,0,1,32,5a23.53,23.53,0,0,1,8,6.57,23,23,0,0,1,4.07,19.74,22.78,22.78,0,0,1-4.8,9.12c-2.24,2.53-4.52,4.94-6.77,7.41L19,62.57-8.13,92.1l-13.46,14.83a23.66,23.66,0,0,1-7.8,6.21A22.26,22.26,0,0,1-39.08,115.33Zm0,0a22.27,22.27,0,0,0,9.66-2.26,23.45,23.45,0,0,0,7.72-6.24L-8.35,91.9l26.55-30,13.27-15c2.19-2.51,4.46-5,6.59-7.51a21.91,21.91,0,0,0,4.33-8.51,21.09,21.09,0,0,0-20.5-26.2,20.71,20.71,0,0,0-9.24,2.08,20.23,20.23,0,0,0-2.09,1.16,16.77,16.77,0,0,0-1.94,1.4c-.3.25-.62.5-.92.76l-.85.85c-.57.54-1.13,1.17-1.69,1.79L-8.31,27.52-35.4,57.05-48.95,71.8c-2.25,2.47-4.55,4.91-6.75,7.4a21.71,21.71,0,0,0-4.59,8.71,22,22,0,0,0,3.9,18.85A21.91,21.91,0,0,0-39.08,115.33Z"/><path class="cls-5" d="M82.84,115.59a22.44,22.44,0,0,1-9.69-2.2,23.5,23.5,0,0,1-7.8-6.2L51.89,92.35,24.8,62.82,11.25,48.06C9,45.58,6.72,43.18,4.48,40.64a22.84,22.84,0,0,1-4.8-9.12A23,23,0,0,1,3.76,11.79a23.6,23.6,0,0,1,8-6.56A22.84,22.84,0,0,1,32,5.21a22.18,22.18,0,0,1,2.27,1.3,17.8,17.8,0,0,1,2.11,1.54c.33.28.68.55,1,.84l.92.92c.64.62,1.18,1.25,1.73,1.87L53.39,26.61l26.55,30,13.27,15c2.21,2.51,4.45,5,6.62,7.53a22.94,22.94,0,0,1,4.52,8.94,22.23,22.23,0,0,1-4.07,19A19.85,19.85,0,0,1,98.61,109l-.89.88c-.31.28-.63.55-1,.82a23.06,23.06,0,0,1-4.23,2.68A22.15,22.15,0,0,1,82.84,115.59Zm0,0a22.22,22.22,0,0,0,9.66-2.27,22.75,22.75,0,0,0,4.19-2.71c.32-.27.64-.54,1-.82l.88-.89a18.29,18.29,0,0,0,1.64-1.87,21.7,21.7,0,0,0-.68-27.56c-2.2-2.5-4.5-4.93-6.75-7.4L79.18,57.31,52.09,27.79,38.62,13c-.56-.61-1.12-1.25-1.69-1.79l-.85-.84c-.3-.27-.62-.51-.93-.76a14.94,14.94,0,0,0-1.94-1.4A19.17,19.17,0,0,0,31.13,7a21,21,0,0,0-9.24-2.08A20.56,20.56,0,0,0,12.65,7a21.59,21.59,0,0,0-7.39,6A21.19,21.19,0,0,0,1.38,31.09,21.66,21.66,0,0,0,5.7,39.61c2.12,2.51,4.4,5,6.59,7.51l13.27,15,26.55,30,13.36,14.94a23.29,23.29,0,0,0,7.71,6.23A22.35,22.35,0,0,0,82.84,115.59Z"/></g></g></g></svg>