<svg id="Capa_1" data-name="Capa 1" xmlns="http://www.w3.org/2000/svg" viewBox="0 0 1012.27 125.36"><defs><style>.cls-1{fill:#045568;opacity:0.84;}.cls-2{opacity:0.8;}.cls-3{opacity:0.75;}.cls-4{fill:#d7d7d7;}.cls-5{opacity:0.82;}.cls-6{font-size:13px;letter-spacing:0.07em;}.cls-13,.cls-16,.cls-24,.cls-6,.cls-7{fill:#fff;}.cls-6,.cls-7{font-family:Montserrat-Regular, Montserrat;}.cls-7{font-size:8px;}.cls-11,.cls-7{letter-spacing:0.08em;}.cls-8{letter-spacing:0.07em;}.cls-9{letter-spacing:0.07em;}.cls-10{letter-spacing:0.06em;}.cls-12,.cls-25{fill:none;stroke:#fff;stroke-miterlimit:10;}.cls-12{stroke-width:0.71px;}.cls-13{font-size:50.92px;}.cls-13,.cls-16{font-family:Montserrat-Bold, Montserrat;font-weight:700;}.cls-14{letter-spacing:-0.01em;}.cls-15{letter-spacing:-0.02em;}.cls-16{font-size:10.55px;}.cls-17{letter-spacing:-0.01em;}.cls-18{letter-spacing:-0.05em;}.cls-19{letter-spacing:-0.01em;}.cls-20{letter-spacing:-0.08em;}.cls-21{letter-spacing:-0.02em;}.cls-22{letter-spacing:-0.01em;}.cls-23{letter-spacing:-0.01em;}.cls-25{stroke-width:0.72px;}</style></defs><title>insumos</title><rect class="cls-1" x="-11.71" y="-9.86" width="1035.7" height="142.59"/><g class="cls-2"><g class="cls-3"><path class="cls-4" d="M4.17,142.09A6.89,6.89,0,0,1-.95,130.57l19.08-21.18a6.9,6.9,0,1,1,10.25,9.24L9.3,139.81A6.88,6.88,0,0,1,4.17,142.09Z"/></g><g class="cls-5"><path class="cls-4" d="M42.34,142.17a6.9,6.9,0,0,1-5.13-2.28L18.13,118.71a6.9,6.9,0,0,1,10.26-9.24l19.08,21.18a6.91,6.91,0,0,1-5.13,11.52Z"/></g></g><g class="cls-2"><g class="cls-3"><path class="cls-4" d="M967.42,140.26a6.9,6.9,0,0,1-5.12-11.52l19.09-21.18a6.9,6.9,0,0,1,10.25,9.24L972.55,138A6.85,6.85,0,0,1,967.42,140.26Z"/></g><g class="cls-5"><path class="cls-4" d="M1005.6,140.34a6.88,6.88,0,0,1-5.13-2.28l-19.08-21.18a6.9,6.9,0,0,1,10.25-9.24l19.08,21.18a6.9,6.9,0,0,1-5.12,11.52Z"/></g></g><text class="cls-6" transform="translate(977.97 97.68)">18</text><text class="cls-7" transform="translate(11.71 85.82)">EXPERIENCIA DE <tspan class="cls-8"><tspan x="0" y="12">PUBLI</tspan><tspan class="cls-9" x="26.72" y="12">C</tspan><tspan class="cls-10" x="32.88" y="12">A</tspan><tspan class="cls-11" x="39.15" y="12">CIÓN</tspan></tspan></text><line class="cls-12" x1="608.72" y1="92.16" x2="453.47" y2="92.16"/><line class="cls-12" x1="570.91" y1="103.41" x2="456.12" y2="103.41"/><path class="cls-12" d="M333.23,15.14S344.8,7.62,365,10.22c15.11,1.95,26.57,9.57,36.25,18.48,19.57,18,37.94,36.52,79.78,24.74"/><path class="cls-12" d="M417,56.54s11.87,7.4,23.63,8.74,25.05-.71,25.05-.71"/><text class="cls-13" transform="translate(316.68 82.15)">PUBLI<tspan class="cls-14" x="154.61" y="0">C</tspan><tspan class="cls-15" x="189.44" y="0">A</tspan><tspan x="227.83" y="0">CIÓN</tspan></text><text class="cls-16" transform="translate(461.77 37.46)"><tspan class="cls-17">O</tspan><tspan class="cls-18" x="8.38" y="0">V</tspan><tspan x="15.52" y="0">A</tspan></text><text class="cls-16" transform="translate(424.29 98.6)">LMS</text><text class="cls-16" transform="translate(543.84 35.79)">S<tspan class="cls-19" x="6.82" y="0">C</tspan><tspan x="13.99" y="0">ORM</tspan></text><text class="cls-16" transform="translate(309.15 98.6)">ES<tspan class="cls-20" x="13.94" y="0">T</tspan><tspan x="19.63" y="0">ÁN</tspan><tspan class="cls-21" x="36.08" y="0">D</tspan><tspan x="43.96" y="0">ARES</tspan></text><text class="cls-16" transform="translate(618.7 98.6)">TECNOL<tspan class="cls-22" x="43.63" y="0">Ó</tspan><tspan x="51.98" y="0">GI</tspan><tspan class="cls-23" x="63.19" y="0">C</tspan><tspan x="70.37" y="0">O</tspan></text><path class="cls-24" d="M453.77,21.91a.17.17,0,0,0,0-.07,0,0,0,0,1,0,0,.24.24,0,0,0-.06-.08h0L450,18h0a.15.15,0,0,0-.09-.06h0l-.08,0H437.88a.3.3,0,0,0-.3.3V37.54a.3.3,0,0,0,.3.3h15.6a.3.3,0,0,0,.3-.3V21.91Zm-1-.27h-2.67v-2.7Zm.43,15.59h-15V18.52h11.3v3.41a.3.3,0,0,0,.3.31h3.4Z"/><path class="cls-24" d="M450.46,22.92h-4.19a.25.25,0,0,0-.24.25V26a.25.25,0,0,0,.24.25h4.19a.25.25,0,0,0,.24-.25V23.17A.25.25,0,0,0,450.46,22.92Zm-.25,2.84h-3.69V23.41h3.69Z"/><path class="cls-24" d="M450.46,27.25h-4.19a.24.24,0,0,0-.24.24.25.25,0,0,0,.24.25h4.19a.25.25,0,0,0,.24-.25A.24.24,0,0,0,450.46,27.25Z"/><path class="cls-24" d="M440.62,29.21h4.12A.24.24,0,0,0,445,29a.25.25,0,0,0-.24-.26h-4.12a.26.26,0,0,0-.25.26A.25.25,0,0,0,440.62,29.21Z"/><path class="cls-24" d="M450.46,33.14h-4.19a.25.25,0,0,0-.24.25.25.25,0,0,0,.24.25h4.19a.25.25,0,0,0,.24-.25A.25.25,0,0,0,450.46,33.14Z"/><path class="cls-24" d="M450.46,31.67h-4.19a.25.25,0,0,0,0,.49h4.19a.25.25,0,0,0,0-.49Z"/><path class="cls-24" d="M444.8,30.2h-4.18a.25.25,0,0,0-.25.24.24.24,0,0,0,.25.24h4.18a.25.25,0,0,0,.25-.24A.25.25,0,0,0,444.8,30.2Z"/><path class="cls-24" d="M444.8,34.62h-4.18a.25.25,0,0,0-.25.25.25.25,0,0,0,.25.25h4.18a.26.26,0,0,0,.25-.25A.25.25,0,0,0,444.8,34.62Z"/><path class="cls-24" d="M448.9,34.62h-2.63a.25.25,0,0,0-.24.25.25.25,0,0,0,.24.25h2.63a.25.25,0,0,0,.24-.25A.25.25,0,0,0,448.9,34.62Z"/><path class="cls-24" d="M444.8,31.67h-4.18a.25.25,0,0,0-.25.25v1.47a.25.25,0,0,0,.25.25h4.18a.26.26,0,0,0,.25-.25V31.92A.25.25,0,0,0,444.8,31.67Zm-.25,1.47h-3.69v-1h3.69Z"/><path class="cls-24" d="M450.46,28.71h-4.19A.25.25,0,0,0,446,29v1.47a.24.24,0,0,0,.24.24h4.19a.24.24,0,0,0,.24-.24V29A.25.25,0,0,0,450.46,28.71Zm-.25,1.49h-3.69v-1h3.69Z"/><path class="cls-24" d="M442.77,22.92a2.4,2.4,0,1,0,2.4,2.4A2.4,2.4,0,0,0,442.77,22.92Zm0,4.3a1.91,1.91,0,1,1,1.91-1.9A1.91,1.91,0,0,1,442.77,27.22Z"/><path class="cls-24" d="M443.76,25.07H443v-.74a.25.25,0,1,0-.5,0v.74h-.74a.25.25,0,1,0,0,.49h.74v.75a.25.25,0,0,0,.5,0v-.75h.74a.25.25,0,1,0,0-.49Z"/><path class="cls-24" d="M703.88,69.57V61.29a.36.36,0,0,0-.37-.36h-23a.36.36,0,0,0-.36.36V82.1a.36.36,0,0,0,.36.36H702.8a.36.36,0,0,0,.36-.36.35.35,0,0,0-.36-.34H680.85V65.13h22.31v4.44a.39.39,0,0,0,.37.4A.37.37,0,0,0,703.88,69.57Zm-.38,7.24a.35.35,0,0,0-.34.37v4.58h-.72a.35.35,0,0,0-.36.34.36.36,0,0,0,.36.36h1.07a.36.36,0,0,0,.37-.36V77.18a.38.38,0,0,0-.35-.37ZM680.85,64.43V61.64h22.31v2.79Z"/><path class="cls-24" d="M701.38,62.78a.34.34,0,0,0-.11.25.36.36,0,0,0,.36.35.39.39,0,0,0,.25-.1.34.34,0,0,0,0-.5A.39.39,0,0,0,701.38,62.78Z"/><path class="cls-24" d="M699.65,62.68A.35.35,0,1,0,700,63,.35.35,0,0,0,699.65,62.68Z"/><path class="cls-24" d="M697.42,62.78a.34.34,0,0,0,0,.5.36.36,0,0,0,.25.1.37.37,0,0,0,.25-.1.34.34,0,0,0,0-.5A.39.39,0,0,0,697.42,62.78Z"/><path class="cls-24" d="M698.87,77.22a.78.78,0,0,1-.33-.07.6.6,0,0,1-.31-.43,1.45,1.45,0,0,1,.91-1.64,8.41,8.41,0,0,1,1-.37l-3-4.54a1,1,0,0,1,.22-1.32,1,1,0,0,1,.7-.15,1.11,1.11,0,0,1,.64.45l1.34,2.07a1.5,1.5,0,0,1,.23-.2.94.94,0,0,1,.6-.13.85.85,0,0,1,.45-.47,1,1,0,0,1,.78,0,1.19,1.19,0,0,1,.56-.31.86.86,0,0,1,.91.34l1.6,2.4a1.81,1.81,0,0,1-.23,2.32c-.89.69-2,1.4-2,1.41a2.91,2.91,0,0,1-1.57,0,4.57,4.57,0,0,0-2,.43A1.24,1.24,0,0,1,698.87,77.22Zm-.94-8a.46.46,0,0,0-.23.08c-.26.17-.08.54-.06.58l3.21,4.85a.27.27,0,0,1-.17.42,6.3,6.3,0,0,0-1.3.42.89.89,0,0,0-.61,1c.09.09.28,0,.38,0a4.81,4.81,0,0,1,2.38-.48,3.23,3.23,0,0,0,1.2,0c.19-.13,1.12-.76,1.9-1.36s.13-1.56.1-1.6l-1.59-2.39s-.11-.14-.34-.1a.66.66,0,0,0-.38.27.29.29,0,0,1-.19.13A.27.27,0,0,1,702,71s-.26-.19-.47-.11-.19.27-.2.35a.27.27,0,0,1-.16.22.29.29,0,0,1-.27,0,.31.31,0,0,0-.33,0,.74.74,0,0,0-.23.35.28.28,0,0,1-.22.2.29.29,0,0,1-.27-.13l-1.6-2.46A.46.46,0,0,0,697.93,69.23Z"/><path class="cls-24" d="M691.28,71.39l-.27,0a2.74,2.74,0,0,0,0-.28l.24-.12a.31.31,0,0,0,.15-.42l-.19-.41a.33.33,0,0,0-.43-.16l-.24.12-.19-.23.15-.21a.32.32,0,0,0-.08-.45L690,69a.34.34,0,0,0-.45.08l-.15.23-.27-.11,0-.26a.32.32,0,0,0-.29-.34l-.46,0a.32.32,0,0,0-.34.29l0,.27-.29.05-.11-.24a.33.33,0,0,0-.43-.15l-.41.2a.31.31,0,0,0-.15.42l.11.24-.22.19-.22-.15a.29.29,0,0,0-.24,0,.34.34,0,0,0-.2.13l-.26.37a.3.3,0,0,0,0,.24.32.32,0,0,0,.13.21l.22.15c0,.09-.07.18-.1.27l-.26,0a.34.34,0,0,0-.35.3l0,.45a.3.3,0,0,0,.29.34l.26,0c0,.09,0,.19.06.29l-.24.11a.3.3,0,0,0-.17.18.33.33,0,0,0,0,.24l.2.41a.28.28,0,0,0,.18.16.25.25,0,0,0,.24,0l.25-.11a2,2,0,0,0,.19.22l-.16.22a.33.33,0,0,0,.08.45l.38.25a.31.31,0,0,0,.44-.08l.15-.22a1.9,1.9,0,0,0,.28.1l0,.27a.32.32,0,0,0,.29.34l.45,0a.33.33,0,0,0,.35-.3l0-.26.29-.06.11.25a.32.32,0,0,0,.43.15l.41-.19a.33.33,0,0,0,.15-.43l-.12-.24a2.11,2.11,0,0,0,.23-.19l.22.15a.32.32,0,0,0,.44-.08l.26-.37a.33.33,0,0,0-.08-.45l-.22-.15a2.31,2.31,0,0,0,.1-.28l.26,0a.33.33,0,0,0,.35-.3l0-.45A.32.32,0,0,0,691.28,71.39Zm-.08.76-.39,0a.15.15,0,0,0-.17.13,2.07,2.07,0,0,1-.18.47.19.19,0,0,0,.06.22l.32.22-.24.34-.32-.22a.16.16,0,0,0-.21,0,2.37,2.37,0,0,1-.39.32.18.18,0,0,0-.06.21l.17.36-.38.18-.17-.36a.16.16,0,0,0-.2-.08,2.75,2.75,0,0,1-.5.09.18.18,0,0,0-.16.15l0,.39-.41,0,0-.39a.18.18,0,0,0-.13-.18,2.74,2.74,0,0,1-.48-.17.17.17,0,0,0-.21.06l-.22.32-.35-.24.22-.32a.17.17,0,0,0,0-.22,1.75,1.75,0,0,1-.33-.39.17.17,0,0,0-.21-.05l-.36.16-.17-.38.35-.16a.19.19,0,0,0,.09-.21,2.84,2.84,0,0,1-.1-.49.16.16,0,0,0-.15-.16l-.39,0,0-.42.38,0a.17.17,0,0,0,.18-.13,2.64,2.64,0,0,1,.17-.47.18.18,0,0,0,0-.22l-.32-.22.23-.35.33.22a.15.15,0,0,0,.21,0,3.09,3.09,0,0,1,.39-.33.17.17,0,0,0,.06-.21l-.17-.35.38-.18.17.35a.16.16,0,0,0,.2.09,2.1,2.1,0,0,1,.5-.09.16.16,0,0,0,.15-.15l0-.39.42,0,0,.39a.17.17,0,0,0,.13.18,1.72,1.72,0,0,1,.48.17.16.16,0,0,0,.21-.06l.22-.32.35.24-.22.32a.17.17,0,0,0,0,.22,3,3,0,0,1,.33.38.16.16,0,0,0,.21.06l.35-.17.18.38-.35.17a.17.17,0,0,0-.09.2,2.19,2.19,0,0,1,.09.5.18.18,0,0,0,.16.16l.39,0Z"/><path class="cls-24" d="M697.74,73.79h-.29a1.67,1.67,0,0,0-.08-.3l.25-.15a.34.34,0,0,0,.13-.47l-.25-.42a.35.35,0,0,0-.47-.14l-.25.15c-.07-.08-.15-.15-.23-.23l.15-.24a.36.36,0,0,0-.13-.48l-.43-.24a.34.34,0,0,0-.47.12l-.14.25-.31-.08v-.29a.35.35,0,0,0-.35-.35h-.49a.35.35,0,0,0-.35.35v.29l-.31.08-.14-.25a.34.34,0,0,0-.47-.12l-.43.24a.36.36,0,0,0-.13.48l.15.24c-.08.08-.16.15-.23.23l-.25-.15a.39.39,0,0,0-.26,0,.33.33,0,0,0-.21.17l-.25.42a.34.34,0,0,0,0,.26.31.31,0,0,0,.16.21l.25.15c0,.1-.06.2-.08.3h-.29a.35.35,0,0,0-.35.35v.5a.34.34,0,0,0,.35.34h.29a2.81,2.81,0,0,0,.08.31l-.25.14a.36.36,0,0,0-.16.21.36.36,0,0,0,0,.27l.25.43a.33.33,0,0,0,.21.15.3.3,0,0,0,.26,0l.25-.14a2.39,2.39,0,0,0,.23.22l-.15.25a.36.36,0,0,0,.13.48l.43.24a.34.34,0,0,0,.47-.12l.14-.26.31.09v.29a.35.35,0,0,0,.35.34h.49a.35.35,0,0,0,.35-.34v-.29l.31-.09.14.26a.34.34,0,0,0,.47.12l.43-.24a.36.36,0,0,0,.13-.48l-.15-.25a2.39,2.39,0,0,0,.23-.22l.25.14a.34.34,0,0,0,.47-.12l.25-.43a.36.36,0,0,0-.13-.48l-.25-.14a1.57,1.57,0,0,0,.08-.31h.29a.34.34,0,0,0,.35-.34v-.5A.35.35,0,0,0,697.74,73.79Zm0,.83h-.42a.18.18,0,0,0-.18.15,2.44,2.44,0,0,1-.14.53.19.19,0,0,0,.08.23l.36.21-.23.4-.36-.21a.17.17,0,0,0-.23,0,2.46,2.46,0,0,1-.4.39.2.2,0,0,0,0,.23l.21.37-.39.23-.21-.37a.2.2,0,0,0-.23-.08,2,2,0,0,1-.53.14.2.2,0,0,0-.16.18v.43h-.45v-.43a.2.2,0,0,0-.16-.18,2,2,0,0,1-.53-.14.17.17,0,0,0-.22.08l-.22.37-.39-.23.21-.37a.18.18,0,0,0,0-.23,2.46,2.46,0,0,1-.4-.39.17.17,0,0,0-.23,0l-.37.21-.22-.4.36-.21a.18.18,0,0,0,.08-.23,2.44,2.44,0,0,1-.14-.53.17.17,0,0,0-.18-.15h-.42v-.46H692a.18.18,0,0,0,.18-.16,2.78,2.78,0,0,1,.14-.53.17.17,0,0,0-.08-.22l-.36-.21.22-.4.37.21a.17.17,0,0,0,.23,0,2.46,2.46,0,0,1,.4-.39.18.18,0,0,0,0-.23l-.21-.37.39-.23.22.37a.17.17,0,0,0,.22.07,3.18,3.18,0,0,1,.53-.14.18.18,0,0,0,.16-.18v-.42h.45v.42a.18.18,0,0,0,.16.18,3.18,3.18,0,0,1,.53.14.19.19,0,0,0,.23-.07l.21-.37.39.23-.21.37a.2.2,0,0,0,0,.23,2.46,2.46,0,0,1,.4.39.17.17,0,0,0,.23,0l.36-.21.23.4-.36.21a.18.18,0,0,0-.08.22,2.78,2.78,0,0,1,.14.53.18.18,0,0,0,.18.16h.42Z"/><path class="cls-24" d="M688.33,72.88a1.19,1.19,0,1,1,1.18-1.18A1.18,1.18,0,0,1,688.33,72.88Zm0-2a.85.85,0,1,0,.84.85A.84.84,0,0,0,688.33,70.85Z"/><path class="cls-24" d="M694.63,75.72A1.33,1.33,0,1,1,696,74.39,1.34,1.34,0,0,1,694.63,75.72Zm0-2.27a.95.95,0,0,0,0,1.89.95.95,0,1,0,0-1.89Z"/><circle class="cls-24" cx="394.98" cy="97.72" r="2.22"/><path class="cls-24" d="M391.94,103.29H398a3,3,0,0,0-3.21-3.35C391.73,99.94,391.94,103.29,391.94,103.29Z"/><path class="cls-24" d="M407,90.43h-17.5a.27.27,0,0,0-.27.27v15.81a.27.27,0,0,0,.27.27h17.23a.27.27,0,1,0,0-.53H389.79V93.61h16.95v12.64h-.55a.27.27,0,1,0,0,.53H407a.28.28,0,0,0,.28-.27V90.7A.28.28,0,0,0,407,90.43Zm-17.22,2.66V91h16.95v2.13Z"/><path class="cls-24" d="M405.38,91.83a.27.27,0,0,0-.08.19.29.29,0,0,0,.08.19.27.27,0,0,0,.19.08.28.28,0,0,0,.2-.08.27.27,0,0,0,0-.38A.32.32,0,0,0,405.38,91.83Z"/><path class="cls-24" d="M404.07,91.75a.27.27,0,1,0,.27.27A.27.27,0,0,0,404.07,91.75Z"/><path class="cls-24" d="M402.38,91.83a.25.25,0,0,0,0,.38.24.24,0,0,0,.19.08.27.27,0,0,0,.19-.08.27.27,0,0,0,0-.38A.3.3,0,0,0,402.38,91.83Z"/><rect class="cls-24" x="391.75" y="105.16" width="14.43" height="0.22" rx="0.11"/><polygon class="cls-24" points="390.6 104.85 390.6 105.64 391.25 105.24 390.6 104.85"/><rect class="cls-24" x="400.21" y="96.38" width="5.09" height="0.38"/><rect class="cls-24" x="400.21" y="97.38" width="5.09" height="0.38"/><rect class="cls-24" x="400.21" y="98.27" width="5.09" height="0.38"/><rect class="cls-25" x="590.93" y="23.6" width="15.14" height="3.51"/><polygon class="cls-25" points="597.1 27.4 597.1 32.83 593.19 32.83 598.54 38.33 603.97 32.87 600.06 32.87 600.06 27.4 597.1 27.4"/></svg>