<svg id="Capa_1" data-name="Capa 1" xmlns="http://www.w3.org/2000/svg" viewBox="0 0 1012.27 125.36"><defs><style>.cls-1{fill:#aacbdc;}.cls-2{opacity:0.8;}.cls-3{opacity:0.75;}.cls-4{fill:#d7d7d7;}.cls-5{opacity:0.82;}.cls-6{font-size:13px;letter-spacing:0.07em;}.cls-19,.cls-21,.cls-23,.cls-24,.cls-6,.cls-7{fill:#fff;}.cls-6,.cls-7{font-family:Montserrat-Regular, Montserrat;}.cls-7{font-size:8px;letter-spacing:0.07em;}.cls-8{letter-spacing:0.01em;}.cls-9{letter-spacing:0.08em;}.cls-10{letter-spacing:0.03em;}.cls-11{letter-spacing:0.06em;}.cls-12{letter-spacing:0.07em;}.cls-13{letter-spacing:0.08em;}.cls-14{letter-spacing:0.07em;}.cls-15{letter-spacing:0.08em;}.cls-16{letter-spacing:0.06em;}.cls-17{letter-spacing:0.05em;}.cls-18{letter-spacing:0.06em;}.cls-20{fill:none;stroke:#fff;stroke-miterlimit:10;stroke-width:0.72px;}.cls-21{font-size:51.77px;}.cls-21,.cls-23,.cls-24{font-family:Montserrat-Bold, Montserrat;font-weight:700;}.cls-22{letter-spacing:-0.02em;}.cls-23{font-size:23.9px;}.cls-24{font-size:10.83px;}.cls-25{letter-spacing:-0.05em;}.cls-26{letter-spacing:-0.02em;}.cls-27{letter-spacing:-0.01em;}.cls-28{letter-spacing:-0.01em;}.cls-29{letter-spacing:-0.08em;}.cls-30{letter-spacing:0em;}.cls-31{letter-spacing:-0.02em;}.cls-32{letter-spacing:0em;}</style></defs><title>insumos</title><rect class="cls-1" x="-23.9" y="-11.22" width="1070.37" height="150.65"/><g class="cls-2"><g class="cls-3"><path class="cls-4" d="M967,139.48A6.91,6.91,0,0,1,961.91,128L981,106.77A6.9,6.9,0,0,1,991.24,116l-19.08,21.18A6.86,6.86,0,0,1,967,139.48Z"/></g><g class="cls-5"><path class="cls-4" d="M1005.2,139.55a6.91,6.91,0,0,1-5.13-2.28L981,116.09a6.9,6.9,0,0,1,10.26-9.24L1010.33,128a6.9,6.9,0,0,1-5.13,11.52Z"/></g></g><g class="cls-2"><g class="cls-3"><path class="cls-4" d="M-2.26,139.44a6.87,6.87,0,0,1-4.61-1.78,6.9,6.9,0,0,1-.51-9.75L11.7,106.73A6.9,6.9,0,0,1,22,116L2.87,137.15A6.86,6.86,0,0,1-2.26,139.44Z"/></g><g class="cls-5"><path class="cls-4" d="M35.92,139.51a6.88,6.88,0,0,1-5.14-2.28L11.7,116.05A6.9,6.9,0,0,1,22,106.82L41,128a6.89,6.89,0,0,1-5.12,11.52Z"/></g></g><text class="cls-6" transform="translate(976.58 97.89)">08</text><text class="cls-7" transform="translate(10.93 75.14)">RU<tspan class="cls-8" x="13.08" y="0">T</tspan><tspan class="cls-9" x="17.68" y="0">A </tspan><tspan class="cls-10" x="26.78" y="0">P</tspan><tspan class="cls-9" x="32.42" y="0">ARA C</tspan><tspan class="cls-11" x="60.51" y="0">U</tspan><tspan x="67.05" y="0">ALIFI</tspan><tspan class="cls-12" x="89.33" y="0">C</tspan><tspan x="95.49" y="0">AR </tspan><tspan class="cls-13" x="110.98" y="0">L</tspan><tspan class="cls-14" x="115.82" y="0">A</tspan><tspan class="cls-15" x="122.17" y="0">S</tspan><tspan x="0" y="10">PR</tspan><tspan class="cls-16" x="12.35" y="10">Á</tspan><tspan class="cls-9" x="18.62" y="10">CTI</tspan><tspan class="cls-12" x="32.92" y="10">C</tspan><tspan class="cls-14" x="39.08" y="10">A</tspan><tspan x="45.43" y="10">S </tspan><tspan class="cls-17" x="53.66" y="10">DO</tspan><tspan class="cls-9" x="67.26" y="10">CENTES</tspan><tspan class="cls-18"><tspan x="0" y="20">C</tspan><tspan class="cls-9" x="6.06" y="20">ON EL USO DE TIC</tspan></tspan></text><path class="cls-19" d="M315.62,43.8a.29.29,0,0,0,0-.09s0,0,0,0a.61.61,0,0,0-.07-.1h0L311,39h0a.26.26,0,0,0-.11-.07l0,0-.1,0H296a.37.37,0,0,0-.37.37V63.05a.38.38,0,0,0,.37.38h19.22a.37.37,0,0,0,.36-.38V43.8Zm-1.26-.34h-3.29V40.14Zm.53,19.22H296.41V39.62h13.92v4.21a.37.37,0,0,0,.37.37h4.19Z"/><path class="cls-19" d="M311.53,45h-5.15a.3.3,0,0,0-.3.31v3.5a.3.3,0,0,0,.3.31h5.15a.3.3,0,0,0,.3-.31v-3.5A.3.3,0,0,0,311.53,45Zm-.3,3.51h-4.55V45.64h4.55Z"/><path class="cls-19" d="M311.53,50.37h-5.15a.29.29,0,0,0-.3.3.3.3,0,0,0,.3.31h5.15a.3.3,0,0,0,.3-.31A.29.29,0,0,0,311.53,50.37Z"/><path class="cls-19" d="M299.41,52.79h5.08a.29.29,0,0,0,.3-.29.31.31,0,0,0-.3-.32h-5.08a.31.31,0,0,0-.3.32A.3.3,0,0,0,299.41,52.79Z"/><path class="cls-19" d="M311.53,57.64h-5.15a.3.3,0,0,0-.3.31.3.3,0,0,0,.3.3h5.15a.3.3,0,0,0,.3-.3A.3.3,0,0,0,311.53,57.64Z"/><path class="cls-19" d="M311.53,55.82h-5.15a.31.31,0,0,0,0,.61h5.15a.31.31,0,0,0,0-.61Z"/><path class="cls-19" d="M304.56,54h-5.15a.3.3,0,0,0-.3.29.31.31,0,0,0,.3.31h5.15a.31.31,0,0,0,.31-.31A.3.3,0,0,0,304.56,54Z"/><path class="cls-19" d="M304.56,59.46h-5.15a.3.3,0,0,0-.3.3.32.32,0,0,0,.3.31h5.15a.32.32,0,0,0,.31-.31A.3.3,0,0,0,304.56,59.46Z"/><path class="cls-19" d="M309.61,59.46h-3.23a.29.29,0,0,0-.3.3.31.31,0,0,0,.3.31h3.23a.32.32,0,0,0,.31-.31A.3.3,0,0,0,309.61,59.46Z"/><path class="cls-19" d="M304.56,55.82h-5.15a.31.31,0,0,0-.3.31V58a.31.31,0,0,0,.3.3h5.15a.31.31,0,0,0,.31-.3V56.13A.31.31,0,0,0,304.56,55.82Zm-.3,1.82h-4.55V56.43h4.55Z"/><path class="cls-19" d="M311.53,52.18h-5.15a.31.31,0,0,0-.3.32v1.8a.3.3,0,0,0,.3.31h5.15a.3.3,0,0,0,.3-.31V52.5A.31.31,0,0,0,311.53,52.18Zm-.3,1.83h-4.55V52.79h4.55Z"/><path class="cls-19" d="M302.06,45a3,3,0,1,0,3,3A3,3,0,0,0,302.06,45Zm0,5.31A2.36,2.36,0,1,1,304.41,48,2.36,2.36,0,0,1,302.06,50.35Z"/><path class="cls-19" d="M303.28,47.69h-.91v-.91a.31.31,0,0,0-.31-.31.3.3,0,0,0-.3.31v.91h-.92a.31.31,0,0,0,0,.61h.92v.92a.3.3,0,0,0,.3.3.31.31,0,0,0,.31-.3V48.3h.91a.31.31,0,1,0,0-.61Z"/><path class="cls-19" d="M337.09,91.42l-.63,0a4.67,4.67,0,0,0-.13-.67l.58-.28a.77.77,0,0,0,.36-1l-.46-1a.77.77,0,0,0-1-.37l-.58.28c-.13-.19-.29-.36-.44-.54l.35-.51a.74.74,0,0,0-.19-1l-.88-.61a.77.77,0,0,0-1.05.18l-.36.53c-.22-.09-.44-.16-.66-.24l.05-.62a.75.75,0,0,0-.69-.82l-1.07-.08a.75.75,0,0,0-.81.69l-.05.62-.69.13-.27-.57a.77.77,0,0,0-1-.36l-1,.47a.76.76,0,0,0-.36,1l.28.57c-.19.15-.36.29-.53.45l-.52-.36a.72.72,0,0,0-.57-.11.76.76,0,0,0-.49.31l-.61.88a.76.76,0,0,0-.12.57.78.78,0,0,0,.32.48l.51.37c-.08.2-.16.42-.23.64l-.63,0a.77.77,0,0,0-.81.7l-.09,1.07a.77.77,0,0,0,.7.82l.63,0a5.39,5.39,0,0,0,.12.68l-.57.27a.76.76,0,0,0-.36,1l.46,1a.73.73,0,0,0,.43.38.69.69,0,0,0,.58,0l.57-.28a5.85,5.85,0,0,0,.45.54l-.36.51a.77.77,0,0,0,.19,1.06l.89.6a.75.75,0,0,0,1.05-.18l.36-.53a4.27,4.27,0,0,0,.65.24l-.05.63a.75.75,0,0,0,.7.81l1.07.09a.75.75,0,0,0,.81-.7l.05-.62a5.58,5.58,0,0,0,.69-.13l.27.57a.76.76,0,0,0,1,.36l1-.46a.76.76,0,0,0,.35-1l-.27-.57c.18-.14.36-.29.53-.45l.52.36a.75.75,0,0,0,1.05-.19l.61-.89a.76.76,0,0,0-.19-1l-.52-.35a5.75,5.75,0,0,0,.23-.66l.63.05a.77.77,0,0,0,.82-.69l.08-1.07A.76.76,0,0,0,337.09,91.42Zm-.18,1.79-.92-.08a.4.4,0,0,0-.42.31,4.64,4.64,0,0,1-.41,1.13.41.41,0,0,0,.14.51l.76.52-.57.82-.76-.52a.39.39,0,0,0-.51,0,5.34,5.34,0,0,1-.93.78.42.42,0,0,0-.13.5l.39.84-.89.42-.39-.84a.41.41,0,0,0-.48-.2,5.4,5.4,0,0,1-1.19.21.42.42,0,0,0-.37.36l-.07.93-1-.08.08-.93a.41.41,0,0,0-.31-.41,5.94,5.94,0,0,1-1.14-.4.39.39,0,0,0-.49.12l-.53.77-.82-.57.53-.76a.41.41,0,0,0-.06-.51,6.22,6.22,0,0,1-.78-.92.4.4,0,0,0-.5-.13l-.84.39-.42-.9.83-.39a.42.42,0,0,0,.22-.48,4.93,4.93,0,0,1-.23-1.18.39.39,0,0,0-.36-.37l-.92-.08.08-1,.92.08a.39.39,0,0,0,.41-.31,5.13,5.13,0,0,1,.42-1.13.42.42,0,0,0-.14-.51l-.76-.52.56-.82.77.52a.38.38,0,0,0,.51,0,5.67,5.67,0,0,1,.92-.78.41.41,0,0,0,.14-.5l-.4-.84.9-.42.4.84a.38.38,0,0,0,.47.2,5.32,5.32,0,0,1,1.18-.21.4.4,0,0,0,.37-.36l.08-.92,1,.08-.08.92a.41.41,0,0,0,.31.41,5.94,5.94,0,0,1,1.14.4.39.39,0,0,0,.5-.12l.52-.77.82.57-.53.76a.39.39,0,0,0,.06.51,6.22,6.22,0,0,1,.78.92.38.38,0,0,0,.5.13l.83-.39.43.9-.83.39a.41.41,0,0,0-.22.48,4.9,4.9,0,0,1,.22,1.18.4.4,0,0,0,.37.37l.92.08Z"/><path class="cls-19" d="M352.4,97.11h-.68a5.44,5.44,0,0,0-.2-.72l.6-.35a.82.82,0,0,0,.3-1.11l-.59-1a.83.83,0,0,0-1.12-.3l-.59.34c-.17-.19-.35-.36-.54-.54l.34-.59a.81.81,0,0,0-.29-1.11l-1-.59a.83.83,0,0,0-1.12.29l-.34.61c-.24-.08-.48-.15-.73-.21v-.68a.82.82,0,0,0-.82-.82h-1.17a.82.82,0,0,0-.82.82v.68l-.73.21-.34-.61a.83.83,0,0,0-1.12-.29l-1,.59a.81.81,0,0,0-.3,1.11l.34.59c-.18.18-.36.35-.53.54l-.6-.34a.79.79,0,0,0-.62-.08.8.8,0,0,0-.5.38l-.58,1a.83.83,0,0,0-.08.63.8.8,0,0,0,.38.5l.59.35a5.42,5.42,0,0,0-.19.72h-.69a.83.83,0,0,0-.82.83v1.17a.82.82,0,0,0,.82.82h.69a6.54,6.54,0,0,0,.19.73l-.59.33a.85.85,0,0,0-.38.5.81.81,0,0,0,.08.63l.58,1a.84.84,0,0,0,.5.38.75.75,0,0,0,.62-.08l.6-.35a6.78,6.78,0,0,0,.53.54l-.34.59a.83.83,0,0,0,.3,1.13l1,.58a.82.82,0,0,0,1.12-.3l.34-.6a5.32,5.32,0,0,0,.73.2v.68a.82.82,0,0,0,.82.83h1.17a.81.81,0,0,0,.82-.83v-.68a4.64,4.64,0,0,0,.73-.2l.34.6a.82.82,0,0,0,1.12.3l1-.58a.83.83,0,0,0,.29-1.13l-.34-.59a5.5,5.5,0,0,0,.54-.54l.59.35a.82.82,0,0,0,1.12-.3l.59-1a.84.84,0,0,0-.3-1.13l-.6-.33a6.61,6.61,0,0,0,.2-.73h.68a.82.82,0,0,0,.82-.82V97.94A.83.83,0,0,0,352.4,97.11Zm0,2h-1a.43.43,0,0,0-.43.37,5.24,5.24,0,0,1-.34,1.26.42.42,0,0,0,.19.53l.87.5-.55.94-.86-.5a.44.44,0,0,0-.55.1,6.29,6.29,0,0,1-.93.93.44.44,0,0,0-.11.55l.5.87-.93.54-.5-.87a.43.43,0,0,0-.53-.18,6.25,6.25,0,0,1-1.27.33.45.45,0,0,0-.36.42v1h-1.08v-1a.45.45,0,0,0-.37-.42,6.25,6.25,0,0,1-1.27-.33.42.42,0,0,0-.52.18l-.51.87-.93-.54.5-.87a.43.43,0,0,0-.1-.55,5.84,5.84,0,0,1-.93-.93.44.44,0,0,0-.55-.1l-.87.5-.54-.94.86-.5a.44.44,0,0,0,.2-.53,5.77,5.77,0,0,1-.35-1.26.42.42,0,0,0-.42-.37h-1V98h1a.43.43,0,0,0,.42-.37,5.62,5.62,0,0,1,.35-1.26.46.46,0,0,0-.2-.54l-.86-.5.54-.93.87.5a.42.42,0,0,0,.55-.11,6.23,6.23,0,0,1,.93-.92.43.43,0,0,0,.1-.55l-.5-.87.93-.54.51.87a.41.41,0,0,0,.52.18,5.66,5.66,0,0,1,1.27-.33.45.45,0,0,0,.37-.43v-1h1.08v1a.45.45,0,0,0,.36.43,5.66,5.66,0,0,1,1.27.33.42.42,0,0,0,.53-.18l.5-.87.93.54-.5.87a.44.44,0,0,0,.11.55,6.74,6.74,0,0,1,.93.92.42.42,0,0,0,.55.11l.86-.5.55.93-.87.5a.44.44,0,0,0-.19.54,5.12,5.12,0,0,1,.34,1.26.44.44,0,0,0,.43.37h1Z"/><path class="cls-19" d="M330.1,95a2.81,2.81,0,1,1,2.81-2.81A2.81,2.81,0,0,1,330.1,95Zm0-4.81a2,2,0,1,0,2,2A2,2,0,0,0,330.1,90.14Z"/><path class="cls-19" d="M345,101.67a3.15,3.15,0,1,1,3.15-3.15A3.16,3.16,0,0,1,345,101.67Zm0-5.38a2.24,2.24,0,1,0,2.24,2.23A2.23,2.23,0,0,0,345,96.29Z"/><path class="cls-20" d="M607.21,13.85s12.78-5.54,32.44.43c14.73,4.48,24.86,14,33,24.49C689.12,60,704.31,81.5,748,76.79"/><path class="cls-20" d="M683.65,69.13s10.58,9.36,22.07,12.67,25.07,3.49,25.07,3.49"/><text class="cls-21" transform="translate(316.49 76.11) scale(0.99 1)">APROPI<tspan class="cls-22" x="206.05" y="0">A</tspan><tspan x="245.08" y="0">CIÓN</tspan></text><text class="cls-23" transform="translate(618.77 100.4)">DE TIC</text><text class="cls-24" transform="translate(540.69 92.96)">T<tspan class="cls-25" x="6.65" y="0">P</tspan><tspan class="cls-26" x="13.44" y="0">A</tspan><tspan x="21.61" y="0">CK</tspan></text><text class="cls-24" transform="translate(359.43 94.13)">PR<tspan class="cls-26" x="15.21" y="0">Á</tspan><tspan x="23.37" y="0">CTI</tspan><tspan class="cls-27" x="40.97" y="0">C</tspan><tspan x="48.38" y="0">A </tspan><tspan class="cls-28" x="60" y="0">DO</tspan><tspan x="76.74" y="0">CENTE</tspan></text><text class="cls-24" transform="translate(319.45 21.38)">DISEÑO EDU<tspan class="cls-27" x="70.34" y="0">C</tspan><tspan class="cls-29" x="77.75" y="0">A</tspan><tspan x="85.31" y="0">TI</tspan><tspan class="cls-30" x="95.42" y="0">V</tspan><tspan x="103.32" y="0">O CENTRA</tspan><tspan class="cls-28" x="161.46" y="0">D</tspan><tspan x="169.62" y="0">O </tspan><tspan x="0" y="13">EN E-</tspan><tspan class="cls-26" x="30.44" y="13">A</tspan><tspan x="38.61" y="13">CTIVI</tspan><tspan class="cls-31" x="67.59" y="13">D</tspan><tspan class="cls-32" x="75.68" y="13">ADES</tspan></text><path class="cls-19" d="M723.44,68.38s0,0,0,0h0a1,1,0,0,1,0,.1h0l-.5,3a.26.26,0,0,0,.38.27l2.66-1.43h0l.08-.07a0,0,0,0,0,0,0h0l7.73-10.82h0l1.32-1.85a.3.3,0,0,0,0-.33,4.61,4.61,0,0,0-1-1,4.55,4.55,0,0,0-1.29-.63.3.3,0,0,0-.31.12l-1.32,1.85h0Zm8.21-10.27.17.07a.33.33,0,0,1,.1.06.51.51,0,0,1,.18.09l.08.05h0l-7.39,10.35a5,5,0,0,0-.73-.36L731.47,58l.07,0Zm1.08.67a.67.67,0,0,1,.15.14L733,59a1.59,1.59,0,0,0,.13.13.35.35,0,0,0,.07.09s0,.05.05.06l-7.39,10.34a4.39,4.39,0,0,0-.57-.57l7.39-10.35,0,0ZM723.51,71l.36-2.11a4.4,4.4,0,0,1,.83.44h0a4.26,4.26,0,0,1,.7.64Zm9.28-14.82a3.73,3.73,0,0,1,1.74,1.24l-1,1.35h0c-.06-.08-.14-.15-.2-.23l-.07-.06-.18-.17-.07-.06a3.77,3.77,0,0,0-.52-.37l-.08,0-.21-.11-.09,0-.28-.12h0Z"/><path class="cls-19" d="M726.93,45.2a.28.28,0,0,0,0-.09.08.08,0,0,1,0,0,.31.31,0,0,0-.07-.09h0l-4.4-4.44h0a.17.17,0,0,0-.1-.06l0,0-.09,0H708a.36.36,0,0,0-.35.36v23a.36.36,0,0,0,.35.37h18.55a.36.36,0,0,0,.36-.37V45.2Zm-1.21-.33h-3.18V41.66Zm.51,18.55H708.39V41.16h13.44v4.06a.35.35,0,0,0,.36.36h4Z"/><path class="cls-19" d="M716.54,48.81h-6.38a.49.49,0,0,1-.49-.5V43.05a.5.5,0,0,1,.49-.5h6.38a.51.51,0,0,1,.5.5v5.26A.5.5,0,0,1,716.54,48.81Zm-6.25-.62h6.13v-5h-6.13Z"/><polygon class="cls-19" points="709.98 48.33 711.92 44.95 713.71 47.15 714.91 46.34 716.73 48.31 709.98 48.33"/><rect class="cls-19" x="709.98" y="51.15" width="14.43" height="0.51"/><rect class="cls-19" x="709.98" y="53.08" width="14.43" height="0.51"/><rect class="cls-19" x="709.98" y="55.02" width="14.43" height="0.51"/><rect class="cls-19" x="709.98" y="56.96" width="14.43" height="0.51"/><rect class="cls-19" x="709.98" y="58.89" width="14.43" height="0.51"/><rect class="cls-19" x="709.98" y="60.83" width="8.81" height="0.51"/><circle class="cls-19" cx="591.41" cy="88.25" r="4.71"/><path class="cls-19" d="M585,100.08h12.92S598.41,93,591,93C584.5,93,585,100.08,585,100.08Z"/><circle class="cls-19" cx="605.43" cy="94.14" r="4.71"/><path class="cls-19" d="M599,106h12.92s.54-7.12-6.83-7.12C598.52,98.85,599,106,599,106Z"/></svg>