<svg id="Capa_1" data-name="Capa 1" xmlns="http://www.w3.org/2000/svg" viewBox="0 0 43.79 43.95"><defs><style>.cls-1{fill:#bceaed;opacity:0.8;}.cls-2{fill:#003844;}</style></defs><title>insumos</title><circle class="cls-1" cx="21.89" cy="22.05" r="21.89"/><path class="cls-1" d="M39.31,8.79c7.33,9.62-27.5,36.15-34.83,26.53A21.89,21.89,0,0,1,39.31,8.79Z"/><path class="cls-2" d="M33.23,16.05a9.4,9.4,0,0,1-2.33.66c.37-.06.91-.74,1.12-1a4.17,4.17,0,0,0,.77-1.4s0-.09,0-.12a.15.15,0,0,0-.13,0,11.5,11.5,0,0,1-2.74,1.05.18.18,0,0,1-.19-.05,1.81,1.81,0,0,0-.24-.24,4.55,4.55,0,0,0-3.36-1.14,4.81,4.81,0,0,0-1.93.54,4.93,4.93,0,0,0-1.56,1.27,4.77,4.77,0,0,0-.93,1.87,5,5,0,0,0-.05,2c0,.11,0,.12-.1.11a14.66,14.66,0,0,1-9.42-4.8c-.11-.12-.16-.12-.25,0a4.78,4.78,0,0,0,.81,5.65,7.28,7.28,0,0,0,.58.51,5,5,0,0,1-1.82-.51c-.11-.07-.16,0-.17.09a2.48,2.48,0,0,0,0,.54,4.82,4.82,0,0,0,3,3.85,3.09,3.09,0,0,0,.61.19,5.54,5.54,0,0,1-1.79,0c-.13,0-.18,0-.13.17a5,5,0,0,0,3.75,3.13c.17,0,.34,0,.51.07l0,0c-.42.64-1.88,1.12-2.56,1.36a9.14,9.14,0,0,1-3.88.49c-.21,0-.26,0-.31,0s0,.09.06.14a8.21,8.21,0,0,0,.81.48,12.64,12.64,0,0,0,2.59,1,13.83,13.83,0,0,0,13.43-3.14c2.75-2.73,3.72-6.5,3.72-10.28,0-.14.17-.23.27-.3a9.35,9.35,0,0,0,1.87-1.9.82.82,0,0,0,.17-.37v0C33.37,16,33.32,16,33.23,16.05Z"/></svg>