<svg id="Capa_1" data-name="Capa 1" xmlns="http://www.w3.org/2000/svg" viewBox="0 0 515.64 615.54"><defs><style>.cls-1{fill:#045568;opacity:0.84;}.cls-15,.cls-2,.cls-3{fill:#fff;}.cls-3{font-size:81.68px;}.cls-15,.cls-3,.cls-6{font-family:Montserrat-Bold, Montserrat;font-weight:700;}.cls-4{letter-spacing:-0.07em;}.cls-5,.cls-6{fill:none;stroke:#fff;stroke-miterlimit:10;}.cls-5{stroke-width:1.15px;}.cls-15,.cls-6{font-size:25px;}.cls-6{stroke-width:0.8px;}.cls-7{letter-spacing:0em;}.cls-8{letter-spacing:-0.08em;}.cls-9{letter-spacing:0em;}.cls-10{letter-spacing:-0.01em;}.cls-11{letter-spacing:0em;}.cls-12{letter-spacing:-0.05em;}.cls-13{letter-spacing:-0.02em;}.cls-14{letter-spacing:-0.01em;}.cls-16{letter-spacing:-0.02em;}.cls-17{letter-spacing:-0.02em;}.cls-18{letter-spacing:-0.01em;}.cls-19{letter-spacing:0em;}</style></defs><title>insumos</title><rect class="cls-1" x="-14.39" y="-15.33" width="545.4" height="652.64"/><path class="cls-2" d="M239.65,348.14l-.76-.06a5.5,5.5,0,0,0-.15-.81l.68-.32a.9.9,0,0,0,.43-1.2l-.55-1.16a.91.91,0,0,0-1.2-.44l-.69.33a6.42,6.42,0,0,0-.53-.64l.42-.62a.89.89,0,0,0-.22-1.25l-1.06-.73a.92.92,0,0,0-1.26.22l-.42.63-.79-.29.06-.74a.91.91,0,0,0-.83-1l-1.27-.1a.92.92,0,0,0-1,.83l-.06.74-.82.16-.32-.69a.92.92,0,0,0-1.2-.42l-1.17.56a.9.9,0,0,0-.42,1.2l.32.67a8.27,8.27,0,0,0-.63.55l-.62-.44a.91.91,0,0,0-.68-.14,1,1,0,0,0-.58.38l-.73,1.05a.92.92,0,0,0-.14.68.9.9,0,0,0,.37.58l.62.43a5.41,5.41,0,0,0-.27.77l-.76-.06a.91.91,0,0,0-1,.85l-.1,1.28a.9.9,0,0,0,.82,1l.76.06a8.27,8.27,0,0,0,.14.82l-.67.31a.92.92,0,0,0-.44,1.21l.56,1.17a.91.91,0,0,0,.51.45.83.83,0,0,0,.69,0l.68-.33a6.76,6.76,0,0,0,.54.64l-.43.62a.91.91,0,0,0,.23,1.26l1.06.72a.91.91,0,0,0,1.26-.22l.42-.63a5.77,5.77,0,0,0,.79.29l-.06.74a.9.9,0,0,0,.82,1l1.28.1a.9.9,0,0,0,1-.83l.06-.75a4.94,4.94,0,0,0,.82-.16l.32.7a.9.9,0,0,0,1.2.42l1.16-.55a.91.91,0,0,0,.43-1.21L236,355a8,8,0,0,0,.63-.55l.62.43a.91.91,0,0,0,1.26-.22l.73-1.06a.92.92,0,0,0-.23-1.26l-.63-.42a5.71,5.71,0,0,0,.28-.79l.76.06a.9.9,0,0,0,1-.82l.1-1.28A.91.91,0,0,0,239.65,348.14Zm-.23,2.13-1.09-.08a.48.48,0,0,0-.51.37,5.66,5.66,0,0,1-.48,1.34.49.49,0,0,0,.16.61l.91.63-.68,1-.91-.63a.47.47,0,0,0-.61.06,6.09,6.09,0,0,1-1.1.93.48.48,0,0,0-.16.6l.47,1-1.07.51-.47-1a.48.48,0,0,0-.57-.24,6.82,6.82,0,0,1-1.42.25.49.49,0,0,0-.44.43l-.09,1.11-1.18-.09.09-1.11a.48.48,0,0,0-.37-.5,6.89,6.89,0,0,1-1.36-.48.47.47,0,0,0-.59.15l-.63.91-1-.67.63-.91a.5.5,0,0,0-.06-.62,6.09,6.09,0,0,1-.94-1.09.47.47,0,0,0-.6-.16l-1,.47-.51-1.08,1-.47a.5.5,0,0,0,.26-.57,6.38,6.38,0,0,1-.27-1.41.47.47,0,0,0-.43-.45l-1.1-.08.09-1.19,1.1.09a.47.47,0,0,0,.5-.37,6.26,6.26,0,0,1,.49-1.35.49.49,0,0,0-.16-.6l-.91-.63.67-1,.92.63a.45.45,0,0,0,.61-.07,7,7,0,0,1,1.1-.93.46.46,0,0,0,.16-.59l-.48-1,1.08-.51.48,1a.44.44,0,0,0,.56.24,6.84,6.84,0,0,1,1.41-.25.49.49,0,0,0,.45-.43l.09-1.1,1.18.1-.09,1.09a.49.49,0,0,0,.36.5,6.75,6.75,0,0,1,1.37.48.47.47,0,0,0,.6-.15l.62-.91,1,.67-.62.91a.48.48,0,0,0,.06.61,6.52,6.52,0,0,1,.94,1.1.47.47,0,0,0,.6.16l1-.47.51,1.07-1,.48a.49.49,0,0,0-.26.57,5.74,5.74,0,0,1,.26,1.41.48.48,0,0,0,.44.44l1.1.09Z"/><path class="cls-2" d="M258,354.93h-.82a5.93,5.93,0,0,0-.24-.85l.71-.42a1,1,0,0,0,.36-1.33l-.7-1.21a1,1,0,0,0-1.34-.37l-.71.41c-.2-.22-.41-.42-.64-.64l.41-.7a1,1,0,0,0-.35-1.34l-1.21-.7a1,1,0,0,0-1.34.35l-.41.72-.87-.25v-.81a1,1,0,0,0-1-1h-1.39a1,1,0,0,0-1,1v.81l-.87.25-.41-.72a1,1,0,0,0-1.34-.35l-1.21.7a1,1,0,0,0-.36,1.34l.41.7c-.22.22-.44.42-.63.64l-.72-.41a1,1,0,0,0-.74-.09,1,1,0,0,0-.6.46l-.7,1.19a1,1,0,0,0-.09.75,1,1,0,0,0,.45.6l.71.42a7.57,7.57,0,0,0-.23.85h-.82a1,1,0,0,0-1,1v1.4a1,1,0,0,0,1,1h.82c.06.29.14.58.23.87l-.71.4a1,1,0,0,0-.45.6,1,1,0,0,0,.09.75l.7,1.21a1,1,0,0,0,.6.44.88.88,0,0,0,.74-.09l.72-.41a6.34,6.34,0,0,0,.63.64l-.41.71a1,1,0,0,0,.36,1.34l1.21.69a1,1,0,0,0,1.34-.35l.41-.72a5.69,5.69,0,0,0,.87.25v.81a1,1,0,0,0,1,1h1.39a1,1,0,0,0,1-1v-.81a5.69,5.69,0,0,0,.87-.25l.41.72a1,1,0,0,0,1.34.35l1.21-.69a1,1,0,0,0,.35-1.34l-.41-.71a6.44,6.44,0,0,0,.64-.64l.71.41a1,1,0,0,0,1.34-.35l.7-1.21a1,1,0,0,0-.36-1.35l-.71-.4a7,7,0,0,0,.24-.87H258a1,1,0,0,0,1-1v-1.4A1,1,0,0,0,258,354.93Zm-.06,2.33H256.7a.53.53,0,0,0-.52.45,6.29,6.29,0,0,1-.4,1.5.52.52,0,0,0,.23.64l1,.6-.65,1.12-1-.6a.52.52,0,0,0-.66.13,7.7,7.7,0,0,1-1.11,1.1.52.52,0,0,0-.13.66l.6,1-1.11.64-.6-1a.52.52,0,0,0-.63-.21,8.11,8.11,0,0,1-1.52.4.52.52,0,0,0-.44.5v1.21h-1.29v-1.21a.52.52,0,0,0-.44-.5,8,8,0,0,1-1.51-.4.52.52,0,0,0-.63.21l-.6,1-1.12-.64.6-1a.52.52,0,0,0-.12-.66,7.7,7.7,0,0,1-1.11-1.1.52.52,0,0,0-.66-.13l-1,.6-.65-1.12,1-.6a.53.53,0,0,0,.23-.64,7.47,7.47,0,0,1-.42-1.5.51.51,0,0,0-.5-.45h-1.2V356h1.2a.51.51,0,0,0,.5-.45,7.47,7.47,0,0,1,.42-1.5.53.53,0,0,0-.23-.64l-1-.6.65-1.12,1,.6a.51.51,0,0,0,.66-.12,7.28,7.28,0,0,1,1.11-1.11.52.52,0,0,0,.12-.66l-.6-1,1.12-.64.6,1a.49.49,0,0,0,.63.21,7.29,7.29,0,0,1,1.51-.39.53.53,0,0,0,.44-.51v-1.2h1.29v1.2a.53.53,0,0,0,.44.51,7.38,7.38,0,0,1,1.52.39.5.5,0,0,0,.63-.21l.6-1,1.11.64-.6,1a.52.52,0,0,0,.13.66,7.28,7.28,0,0,1,1.11,1.11.51.51,0,0,0,.66.12l1-.6.65,1.12-1,.6a.52.52,0,0,0-.23.64,6.29,6.29,0,0,1,.4,1.5.53.53,0,0,0,.52.45h1.19Z"/><path class="cls-2" d="M231.29,352.35a3.36,3.36,0,1,1,3.36-3.35A3.36,3.36,0,0,1,231.29,352.35Zm0-5.74a2.39,2.39,0,1,0,2.38,2.39A2.39,2.39,0,0,0,231.29,346.61Z"/><path class="cls-2" d="M249.14,360.39a3.76,3.76,0,1,1,3.76-3.76A3.77,3.77,0,0,1,249.14,360.39Zm0-6.44a2.68,2.68,0,1,0,2.67,2.68A2.68,2.68,0,0,0,249.14,354Z"/><text class="cls-3" transform="translate(65.03 322.07) scale(0.99 1)">RU<tspan class="cls-4" x="121.05" y="0">T</tspan><tspan x="165.07" y="0">A TIC</tspan></text><path class="cls-5" d="M147.73,189.67s21.17-9.74,54.26-.48c24.78,6.94,42.09,22.47,56.08,39.72,28.31,34.91,54.51,70.27,127.32,60.78"/><path class="cls-5" d="M288,282.61s18.88,14.19,38.47,18.19,42.25,2.49,42.25,2.49"/><path class="cls-2" d="M479,271.32a.18.18,0,0,0,0-.1s0,0,0,0l-.07-.11h0L474,266.12h0a.19.19,0,0,0-.11-.07s0,0,0,0l-.11,0H457.91a.39.39,0,0,0-.39.4v25.68a.4.4,0,0,0,.39.41h20.73a.4.4,0,0,0,.4-.41V271.35A0,0,0,0,0,479,271.32Zm-1.35-.37h-3.56v-3.58Zm.56,20.73H458.32V266.81h15v4.54a.4.4,0,0,0,.4.4h4.51Z"/><path class="cls-2" d="M467.42,275.36H460.3a.56.56,0,0,1-.56-.56v-5.88a.56.56,0,0,1,.56-.56h7.12a.55.55,0,0,1,.55.56v5.88A.55.55,0,0,1,467.42,275.36Zm-7-.7h6.85v-5.6h-6.85Z"/><polygon class="cls-2" points="460.09 274.82 462.25 271.05 464.26 273.5 465.6 272.6 467.63 274.79 460.09 274.82"/><rect class="cls-2" x="460.09" y="277.97" width="16.12" height="0.57"/><rect class="cls-2" x="460.09" y="280.13" width="16.12" height="0.57"/><rect class="cls-2" x="460.09" y="282.29" width="16.12" height="0.57"/><rect class="cls-2" x="460.09" y="284.46" width="16.12" height="0.57"/><rect class="cls-2" x="460.09" y="286.62" width="16.12" height="0.57"/><rect class="cls-2" x="460.09" y="288.78" width="9.85" height="0.57"/><circle class="cls-2" cx="255.4" cy="171.5" r="3.44"/><path class="cls-2" d="M250.68,180.14h9.43s.39-5.2-5-5.2C250.35,174.94,250.68,180.14,250.68,180.14Z"/><path class="cls-2" d="M263,170c3.48,0,5.35-1.66,5.35-3.54s-2.27-3.54-5.07-3.54-5.07,1.58-5.07,3.54c0,1.49,1.32,2.76,3.18,3.29l-.29,1.07Zm-1.68-4.84h4.3v.3h-4.3Zm0,1.1h4.3v.29h-4.3Zm0,1.39v-.29h2.31v.29Z"/><path class="cls-2" d="M271.2,155.24H244.07a.42.42,0,0,0-.43.42v24.53a.42.42,0,0,0,.43.41h26.71a.41.41,0,0,0,.42-.41.41.41,0,0,0-.42-.41H244.5v-19.6h26.28v19.6h-.84a.42.42,0,0,0-.43.41.42.42,0,0,0,.43.41h1.26a.42.42,0,0,0,.43-.41V155.66A.42.42,0,0,0,271.2,155.24Zm-26.7,4.13v-3.3h26.28v3.3Z"/><path class="cls-2" d="M268.68,157.42a.38.38,0,0,0-.12.29.44.44,0,0,0,.12.3.45.45,0,0,0,.3.12.47.47,0,0,0,.3-.12.43.43,0,0,0,.13-.3.39.39,0,0,0-.13-.29A.46.46,0,0,0,268.68,157.42Z"/><path class="cls-2" d="M266.65,157.3a.42.42,0,1,0,0,.83.42.42,0,1,0,0-.83Z"/><path class="cls-2" d="M264,157.42a.39.39,0,0,0-.13.29.43.43,0,0,0,.13.3.43.43,0,0,0,.29.12.48.48,0,0,0,.31-.12.42.42,0,0,0,.12-.3.38.38,0,0,0-.12-.29A.46.46,0,0,0,264,157.42Z"/><path class="cls-2" d="M298.27,475.91v0h0a.54.54,0,0,0,0,.1h0l-.5,3a.26.26,0,0,0,.38.27l2.66-1.43h0l.08-.07h0L308.59,467h0l1.32-1.85a.3.3,0,0,0,0-.33,4.61,4.61,0,0,0-1-1,4.28,4.28,0,0,0-1.29-.62.29.29,0,0,0-.31.11L306,465.09h0Zm8.21-10.27.17.08.11,0a.91.91,0,0,1,.17.09l.08.05h0l-7.39,10.36a3.85,3.85,0,0,0-.73-.37l7.38-10.34a.11.11,0,0,0,.08,0Zm1.09.68a.57.57,0,0,1,.14.13l.08.08.13.13a.86.86,0,0,0,.07.1s0,0,.05.05l-7.39,10.34a4.39,4.39,0,0,0-.57-.57l7.39-10.35,0,0Zm-9.23,12.23.36-2.11a4.44,4.44,0,0,1,.83.45h0a4.64,4.64,0,0,1,.69.64Zm9.28-14.82a3.81,3.81,0,0,1,1.74,1.24l-1,1.35h0c-.06-.08-.14-.15-.2-.23l-.07-.06-.18-.17-.07-.06a4.87,4.87,0,0,0-.52-.37l-.08-.05-.21-.11-.09-.05-.28-.11h0Z"/><path class="cls-2" d="M301.77,452.73a.29.29,0,0,0,0-.09,0,0,0,0,1,0,0,.26.26,0,0,0-.07-.1h0l-4.4-4.44h0a.17.17,0,0,0-.1-.06l0,0-.09,0H282.86a.36.36,0,0,0-.35.36v23a.36.36,0,0,0,.35.36h18.56a.36.36,0,0,0,.35-.36V452.73Zm-1.22-.33h-3.18v-3.21Zm.51,18.55H283.22V448.69h13.44v4.06a.36.36,0,0,0,.36.37h4Z"/><path class="cls-2" d="M291.37,456.34H285a.5.5,0,0,1-.5-.5v-5.26a.5.5,0,0,1,.5-.5h6.37a.5.5,0,0,1,.5.5v5.26A.5.5,0,0,1,291.37,456.34Zm-6.25-.62h6.13v-5h-6.13Z"/><polygon class="cls-2" points="284.81 455.86 286.75 452.49 288.55 454.68 289.74 453.88 291.56 455.84 284.81 455.86"/><rect class="cls-2" x="284.81" y="458.68" width="14.43" height="0.51"/><rect class="cls-2" x="284.81" y="460.62" width="14.43" height="0.51"/><rect class="cls-2" x="284.81" y="462.55" width="14.43" height="0.51"/><rect class="cls-2" x="284.81" y="464.49" width="14.43" height="0.51"/><rect class="cls-2" x="284.81" y="466.42" width="14.43" height="0.51"/><rect class="cls-2" x="284.81" y="468.36" width="8.81" height="0.51"/><path class="cls-2" d="M363.39,227.44v18.37a2.17,2.17,0,0,0,2.17,2.17H371l6.5,5.47a2.21,2.21,0,0,0,1.39.5h.2a2.27,2.27,0,0,0,1.48-.76l9.92-11.84a2.16,2.16,0,0,0-.27-3.05l-4.13-3.47.53-1.46a2.17,2.17,0,0,0-1.3-2.79l-5.88-2.14v-1a2.19,2.19,0,0,0-2.18-2.18H365.56A2.18,2.18,0,0,0,363.39,227.44Zm22.44,5.62-5.75,15.79a1.27,1.27,0,0,1-.67.75,1.33,1.33,0,0,1-1,0L373.86,248h3.43a2.18,2.18,0,0,0,2.18-2.17V229.35l5.58,2a1.34,1.34,0,0,1,.74.68A1.29,1.29,0,0,1,385.83,233.06ZM373.2,248.67l4.91,1.78a2.1,2.1,0,0,0,.74.13,2.23,2.23,0,0,0,.92-.19,2.16,2.16,0,0,0,1.13-1.24l4.9-13.47,3.89,3.26a1.32,1.32,0,0,1,.16,1.85l-9.92,11.83a1.32,1.32,0,0,1-1.84.16Zm-8.94-21.23a1.3,1.3,0,0,1,1.3-1.31h11.73a1.31,1.31,0,0,1,1.31,1.31v18.37a1.31,1.31,0,0,1-1.31,1.3H365.56a1.3,1.3,0,0,1-1.3-1.3Z"/><path class="cls-2" d="M375.18,236.35l-3.42-4.27a.42.42,0,0,0-.34-.15.41.41,0,0,0-.33.15l-3.41,4.27a.42.42,0,0,0,0,.54l3.41,4.26a.38.38,0,0,0,.33.17.38.38,0,0,0,.34-.17l3.42-4.26A.42.42,0,0,0,375.18,236.35Zm-3.76,3.83-2.85-3.56,2.85-3.57,2.86,3.57Z"/><path class="cls-2" d="M378,228.52l-1.17-1.45a.13.13,0,0,0-.11-.06.14.14,0,0,0-.12.06l-1.16,1.45a.17.17,0,0,0,0,.19l1.16,1.45a.14.14,0,0,0,.12.06.13.13,0,0,0,.11-.06l1.17-1.45A.17.17,0,0,0,378,228.52Zm-1.28,1.31-1-1.22,1-1.21,1,1.21Z"/><path class="cls-2" d="M368,228.52l-1.17-1.45a.13.13,0,0,0-.11-.06.14.14,0,0,0-.12.06l-1.16,1.45a.17.17,0,0,0,0,.19l1.16,1.45a.14.14,0,0,0,.12.06.13.13,0,0,0,.11-.06l1.17-1.45A.17.17,0,0,0,368,228.52Zm-1.28,1.31-1-1.22,1-1.21,1,1.21Z"/><path class="cls-2" d="M377.86,244.29l-1.16-1.46a.17.17,0,0,0-.12-.05.16.16,0,0,0-.11.05l-1.16,1.46a.13.13,0,0,0,0,.18l1.16,1.45a.14.14,0,0,0,.11.06.14.14,0,0,0,.12-.06l1.16-1.45A.13.13,0,0,0,377.86,244.29Zm-1.28,1.3-1-1.21,1-1.22,1,1.22Z"/><path class="cls-2" d="M368,244.26l-1.17-1.45a.13.13,0,0,0-.11-.06.14.14,0,0,0-.12.06l-1.16,1.45a.17.17,0,0,0,0,.19l1.16,1.45a.14.14,0,0,0,.12.06.13.13,0,0,0,.11-.06l1.17-1.45A.17.17,0,0,0,368,244.26Zm-1.28,1.31-1-1.21,1-1.22,1,1.22Z"/><path class="cls-2" d="M459,406.88h-27.5a.42.42,0,0,0-.43.42v24.86a.42.42,0,0,0,.43.42h27.07a.42.42,0,1,0,0-.83H431.94V411.89h26.64v19.86h-.85a.42.42,0,1,0,0,.83H459a.43.43,0,0,0,.44-.42V407.3A.43.43,0,0,0,459,406.88Zm-27.07,4.18v-3.34h26.64v3.34Z"/><path class="cls-2" d="M456.46,409.08a.39.39,0,0,0-.13.3.41.41,0,0,0,.13.3.43.43,0,0,0,.3.12.47.47,0,0,0,.3-.12.41.41,0,0,0,0-.6A.48.48,0,0,0,456.46,409.08Z"/><path class="cls-2" d="M454.39,409a.43.43,0,0,0-.43.42.42.42,0,0,0,.43.42.42.42,0,0,0,.43-.42A.42.42,0,0,0,454.39,409Z"/><path class="cls-2" d="M451.73,409.08a.42.42,0,0,0,.3.72.45.45,0,0,0,.3-.12.41.41,0,0,0,0-.6A.48.48,0,0,0,451.73,409.08Z"/><path class="cls-2" d="M444,424.21a.32.32,0,0,0,.14,0,.31.31,0,0,0,.19-.06l3.53-2.62a.31.31,0,0,0,.14-.26.29.29,0,0,0-.14-.26l-3.53-2.62a.29.29,0,0,0-.33,0,.31.31,0,0,0-.18.29v5.25A.32.32,0,0,0,444,424.21Zm.46-4.89,2.67,2-2.67,2Z"/><path class="cls-2" d="M445.26,426.17a4.88,4.88,0,1,1,4.88-4.87A4.88,4.88,0,0,1,445.26,426.17Zm0-9.17a4.3,4.3,0,1,0,4.3,4.3A4.3,4.3,0,0,0,445.26,417Z"/><path class="cls-2" d="M59.37,262.9H32.64a.41.41,0,0,0-.41.41v24.17a.41.41,0,0,0,.41.41H59a.41.41,0,0,0,.41-.41.4.4,0,0,0-.41-.4H33.06V267.77H59v19.31h-.83a.41.41,0,0,0-.43.4.42.42,0,0,0,.43.41h1.24a.42.42,0,0,0,.43-.41V263.31A.42.42,0,0,0,59.37,262.9ZM33.06,267v-3.25H59V267Z"/><path class="cls-2" d="M56.89,265.05a.38.38,0,0,0-.12.29.42.42,0,0,0,.12.29.43.43,0,0,0,.29.12.47.47,0,0,0,.3-.12.41.41,0,0,0,0-.58A.47.47,0,0,0,56.89,265.05Z"/><path class="cls-2" d="M54.88,264.93a.41.41,0,1,0,.42.41A.41.41,0,0,0,54.88,264.93Z"/><path class="cls-2" d="M52.29,265.05a.41.41,0,0,0,0,.58.47.47,0,0,0,.3.12.43.43,0,0,0,.29-.12.41.41,0,0,0,0-.58A.47.47,0,0,0,52.29,265.05Z"/><path class="cls-2" d="M48.17,275.78l-1.1-.16-.48-1a.5.5,0,0,0-.9,0l-.49,1-1.09.16a.47.47,0,0,0-.4.34.48.48,0,0,0,.12.51l.79.77-.18,1.1a.51.51,0,0,0,.49.57.59.59,0,0,0,.23-.05l1-.52,1,.52a.51.51,0,0,0,.53,0,.47.47,0,0,0,.19-.47l-.19-1.1.79-.77a.5.5,0,0,0-.27-.85ZM47,277a.49.49,0,0,0-.14.44l.12.7-.63-.33a.47.47,0,0,0-.46,0l-.63.33.12-.69a.53.53,0,0,0-.14-.45l-.51-.49.7-.11a.49.49,0,0,0,.38-.27l.31-.63.31.63a.47.47,0,0,0,.38.27l.7.11Z"/><path class="cls-2" d="M41.29,275.78l-1.09-.16-.49-1a.49.49,0,0,0-.89,0l-.49,1-1.1.16a.5.5,0,0,0-.27.85l.79.77-.19,1.1a.48.48,0,0,0,.2.47.51.51,0,0,0,.53,0l1-.52,1,.52a.69.69,0,0,0,.24.05.46.46,0,0,0,.29-.1.48.48,0,0,0,.2-.47l-.19-1.1.79-.77a.49.49,0,0,0,.13-.51A.5.5,0,0,0,41.29,275.78ZM40.15,277a.52.52,0,0,0-.15.44l.12.7-.62-.33a.47.47,0,0,0-.46,0l-.63.33.12-.7a.49.49,0,0,0-.15-.44l-.5-.49.7-.11a.47.47,0,0,0,.37-.27l.31-.63.32.63a.47.47,0,0,0,.37.27l.7.11Z"/><path class="cls-2" d="M55.28,275.81,54,275.62l-.59-1.2a.4.4,0,0,0-.69,0l-.59,1.2-1.33.19a.37.37,0,0,0-.31.26.37.37,0,0,0,.1.4l1,.93-.23,1.32a.4.4,0,0,0,.16.38.38.38,0,0,0,.4,0L53,278.5l1.19.63a.61.61,0,0,0,.18.05.42.42,0,0,0,.22-.08.4.4,0,0,0,.16-.38l-.23-1.32,1-.93a.39.39,0,0,0,.09-.4A.37.37,0,0,0,55.28,275.81ZM53.85,277a.36.36,0,0,0-.11.33l.13.76-.68-.35a.36.36,0,0,0-.35,0l-.68.35.13-.76a.36.36,0,0,0-.12-.33l-.55-.54.77-.12a.36.36,0,0,0,.28-.2l.34-.69.34.69a.38.38,0,0,0,.29.2l.76.12Z"/><path class="cls-2" d="M162,414.77a1.22,1.22,0,0,0,0-1.77l-1.29-1.21a.2.2,0,0,1,0-.24l.72-1.62a1.16,1.16,0,0,0,0-.95,1.23,1.23,0,0,0-.68-.68l-1.66-.63a.23.23,0,0,1-.14-.21l.06-1.76a1.2,1.2,0,0,0-1.25-1.24l-1.77,0a.21.21,0,0,1-.21-.13l-.62-1.66a1.33,1.33,0,0,0-.67-.69,1.23,1.23,0,0,0-1,0l-1.62.73a.23.23,0,0,1-.24,0l-1.21-1.29a1.27,1.27,0,0,0-1.77,0l-1.21,1.29a.24.24,0,0,1-.24,0l-1.62-.73a1.23,1.23,0,0,0-1,0,1.33,1.33,0,0,0-.67.69l-.63,1.66a.2.2,0,0,1-.2.13l-1.77,0a1.16,1.16,0,0,0-.89.34,1.23,1.23,0,0,0-.36.9l.05,1.76a.21.21,0,0,1-.13.21l-1.66.63a1.25,1.25,0,0,0-.68,1.63l.73,1.62a.2.2,0,0,1,0,.24L137.07,413a1.22,1.22,0,0,0,0,1.77l1.29,1.22a.18.18,0,0,1,0,.23l-.73,1.62a1.21,1.21,0,0,0,0,1,1.13,1.13,0,0,0,.68.67l1.66.64a.2.2,0,0,1,.13.2l-.05,1.77a1.19,1.19,0,0,0,.36.89,1.22,1.22,0,0,0,.89.35h.48v10.33a.49.49,0,0,0,.24.42.42.42,0,0,0,.27.07.49.49,0,0,0,.21,0l4.6-2.29,2.44-1.21,7.06,3.5a.51.51,0,0,0,.48,0,.49.49,0,0,0,.24-.42V423.31h.35a1.21,1.21,0,0,0,.89-.35,1.23,1.23,0,0,0,.36-.89l-.06-1.77a.22.22,0,0,1,.14-.2l1.66-.64a1.15,1.15,0,0,0,.68-.67,1.17,1.17,0,0,0,0-1l-.72-1.62a.18.18,0,0,1,0-.23Zm-19.15,18.05v-9.55h.28c.07,0,.17,0,.2.13l.63,1.65a1.25,1.25,0,0,0,.67.7,1.19,1.19,0,0,0,1,0l.76-.32v5.68Zm7-3.25a.93.93,0,0,0-.23,0h0a.85.85,0,0,0-.23,0l-2,1V425a.12.12,0,0,1,.09,0l1.21,1.3a1.24,1.24,0,0,0,1.77,0l1.21-1.3a.24.24,0,0,1,.23,0v5.57Zm6.55,3.25-3.51-1.73v-5.63l.63.26a1.19,1.19,0,0,0,1,0,1.25,1.25,0,0,0,.67-.7l.62-1.65a.2.2,0,0,1,.2-.13h.43Zm3.37-16.2.72,1.62a.2.2,0,0,1,0,.17.23.23,0,0,1-.12.12l-1.66.64a1.2,1.2,0,0,0-.78,1.16l.05,1.77a.22.22,0,0,1-.06.16.26.26,0,0,1-.14.06h0l-1.77-.06h0a1.22,1.22,0,0,0-1.15.79l-.62,1.65a.27.27,0,0,1-.12.12.21.21,0,0,1-.16,0l-1.62-.73a1.19,1.19,0,0,0-1.38.28l-1.22,1.28a.19.19,0,0,1-.15.07.22.22,0,0,1-.15-.07l-1.21-1.28a1.24,1.24,0,0,0-.89-.39,1.45,1.45,0,0,0-.49.11l-1.62.73a.21.21,0,0,1-.16,0,.27.27,0,0,1-.12-.12l-.63-1.65a1.24,1.24,0,0,0-1.17-.79l-1.77.06a.24.24,0,0,1-.16-.06.27.27,0,0,1-.06-.16l.06-1.77a1.2,1.2,0,0,0-.79-1.16l-1.65-.64a.22.22,0,0,1-.12-.29l.73-1.62a1.2,1.2,0,0,0-.28-1.36L137.76,414a.22.22,0,0,1-.06-.15.21.21,0,0,1,.06-.15l1.29-1.22a1.23,1.23,0,0,0,.28-1.38l-.73-1.62a.2.2,0,0,1,0-.17.19.19,0,0,1,.12-.12l1.65-.62a1.22,1.22,0,0,0,.79-1.16l-.06-1.78a.23.23,0,0,1,.06-.15.2.2,0,0,1,.16-.06l1.77,0a1.19,1.19,0,0,0,1.17-.77l.63-1.67a.27.27,0,0,1,.12-.12.35.35,0,0,1,.16,0l1.62.71a1.22,1.22,0,0,0,1.38-.26l1.21-1.3a.19.19,0,0,1,.15-.06.17.17,0,0,1,.15.06h0l1.22,1.3a1.19,1.19,0,0,0,1.38.26l1.62-.71a.34.34,0,0,1,.16,0,.27.27,0,0,1,.12.12l.62,1.67a1.24,1.24,0,0,0,1.18.77l1.77,0a.21.21,0,0,1,.21.21l-.05,1.78a1.22,1.22,0,0,0,.78,1.16l1.66.62a.23.23,0,0,1,.12.12.2.2,0,0,1,0,.17l-.72,1.62a1.23,1.23,0,0,0,.27,1.38l1.29,1.22a.19.19,0,0,1,.07.15.2.2,0,0,1-.07.15L160,415.26A1.2,1.2,0,0,0,159.74,416.62Z"/><path class="cls-2" d="M149.6,405.08a8.73,8.73,0,1,0,8.73,8.73A8.75,8.75,0,0,0,149.6,405.08Zm0,16.47a7.73,7.73,0,1,1,7.73-7.74A7.74,7.74,0,0,1,149.6,421.55Z"/><path class="cls-2" d="M152.74,412l-1.83-.26-.82-1.65a.54.54,0,0,0-.94,0l-.82,1.65-1.82.26a.54.54,0,0,0-.42.36.51.51,0,0,0,.13.55l1.32,1.28-.31,1.82a.49.49,0,0,0,.21.51.54.54,0,0,0,.55.05l1.63-.87,1.63.87a.71.71,0,0,0,.25.06A.54.54,0,0,0,152,416l-.31-1.82,1.31-1.28a.56.56,0,0,0,.14-.55A.59.59,0,0,0,152.74,412Zm-2,1.64a.5.5,0,0,0-.15.45l.18,1.05-.93-.49a.53.53,0,0,0-.49,0l-.94.49.18-1.05a.48.48,0,0,0-.16-.45l-.75-.75,1-.15a.52.52,0,0,0,.39-.28l.47-.95.47.95a.5.5,0,0,0,.39.28l1.05.15Z"/><text class="cls-6" transform="translate(172.08 432.18) scale(0.99 1)">PROFESORES</text><text class="cls-6" transform="translate(285.62 179.14) scale(0.99 1)">P<tspan class="cls-7" x="17" y="0">L</tspan><tspan class="cls-8" x="31.15" y="0">AT</tspan><tspan class="cls-9" x="62.07" y="0">AFORMA</tspan></text><text class="cls-6" transform="translate(284.62 206.06) scale(0.99 1)">EDU<tspan class="cls-10" x="54.97" y="0">C</tspan><tspan class="cls-8" x="72.07" y="0">A</tspan><tspan class="cls-11" x="89.52" y="0">TI</tspan><tspan class="cls-12" x="112.85" y="0">V</tspan><tspan x="129.77" y="0">A</tspan></text><text class="cls-6" transform="translate(69.59 248.41) scale(0.99 1)">PE<tspan class="cls-13" x="33.87" y="0">DA</tspan><tspan x="71.4" y="0">G</tspan><tspan class="cls-14" x="89.97" y="0">O</tspan><tspan class="cls-9" x="109.77" y="0">GÍA</tspan></text><text class="cls-15" transform="translate(281.87 397.32) scale(0.99 1)">APROPI<tspan class="cls-16" x="99.5" y="0">A</tspan><tspan x="118.35" y="0">CIÓN</tspan></text><text class="cls-15" transform="translate(112.55 468.81) scale(0.99 1)">FORM<tspan class="cls-17" x="76.07" y="0">A</tspan><tspan x="94.92" y="0">CIÓN</tspan></text><text class="cls-6" transform="translate(290.53 355.31) scale(0.99 1)">GAMIFI<tspan class="cls-18" x="91.72" y="0">C</tspan><tspan class="cls-17" x="108.82" y="0">A</tspan><tspan x="127.67" y="0">CIÓN</tspan></text><text class="cls-15" transform="translate(99.6 218.93) scale(0.99 1)">DI<tspan class="cls-16" x="27.12" y="0">DÁ</tspan><tspan x="64.65" y="0">CTI</tspan><tspan class="cls-10" x="105.27" y="0">C</tspan><tspan x="122.37" y="0">A</tspan></text><text class="cls-15" transform="translate(311.72 248.03) scale(0.99 1)">TIC</text><text class="cls-15" transform="translate(67.59 358.84) scale(0.99 1)">RECURSOS</text><text class="cls-15" transform="translate(67.59 385.67) scale(0.99 1)">EDU<tspan class="cls-10" x="54.97" y="0">C</tspan><tspan class="cls-8" x="72.07" y="0">A</tspan><tspan class="cls-11" x="89.52" y="0">TI</tspan><tspan class="cls-19" x="112.85" y="0">V</tspan><tspan class="cls-9" x="131.1" y="0">OS</tspan></text></svg>