<svg id="Capa_1" data-name="Capa 1" xmlns="http://www.w3.org/2000/svg" viewBox="0 0 204.18 390.22"><defs><style>.cls-1{opacity:0.36;}.cls-2{fill:#a7a6a6;}</style></defs><title>insumos</title><g class="cls-1"><path class="cls-2" d="M124.91,390.22a8.34,8.34,0,0,0,6.27-2.89,9.55,9.55,0,0,0,1.71-3.09l1.31-3.31,5.24-13.25L149.9,341.2l1.31-3.32a21,21,0,0,0,1.14-3.35,14.07,14.07,0,0,0-9.77-16.64c-2.27-.72-4.67-.55-7-.6l-7.12-.07-14.24-.14-28.48-.29-14.24-.14-7.12-.07H61.67a2.86,2.86,0,0,1-.48,0,.8.8,0,0,1-.44-.32,1.13,1.13,0,0,1-.13-.5l0-.44-.09-.89-.17-1.77-5.51-56.69-1.38-14.18-.69-7.08-.34-3.55a30.24,30.24,0,0,0-.44-3.49,8,8,0,0,0-4.24-5.19,8.74,8.74,0,0,0-1.62-.59c-.56-.12-1.15-.21-1.74-.3-1.17-.19-2.34-.39-3.51-.62-2.34-.44-4.66-1-7-1.64a49.09,49.09,0,0,1-6.73-2.42A27.25,27.25,0,0,1,21,213.18a14.73,14.73,0,0,1-2.51-2.6,9.94,9.94,0,0,1-1.59-3.27,13.63,13.63,0,0,1,.15-7.17,29.14,29.14,0,0,1,2.76-6.62c.59-1,1.21-2.06,1.89-3.05.33-.49.73-1,1.06-1.43a8.58,8.58,0,0,0,.84-1.52l3.07-6.41,2.87-6.51c.92-2.18,1.78-4.39,2.68-6.59A234.83,234.83,0,0,0,41,141,198.77,198.77,0,0,0,46.16,113a107.38,107.38,0,0,1,7.6-27.47,97.11,97.11,0,0,1,15-24.23A103.25,103.25,0,0,1,90,42.31l3-2,3-1.86c2-1.27,4.15-2.34,6.23-3.5,4.24-2.16,8.55-4.2,13-5.93a152.65,152.65,0,0,1,27.4-8c2.34-.43,4.69-.83,7-1.14,1.18-.15,2.39-.29,3.55-.4l3.53-.46q7.08-.86,14.18-1.46c4.74-.4,9.48-.72,14.24-.9q3.56-.13,7.13-.17c1.17,0,2.42,0,3.53,0a7.61,7.61,0,0,0,3.17-.89,7.83,7.83,0,0,0,3.89-5.14,7.72,7.72,0,0,0-1.38-6.29,7.63,7.63,0,0,0-5.66-3c-2.31-.06-4.72,0-7.07,0-9.47.21-18.93.91-28.36,1.89-2.36.25-4.71.52-7.07.82s-4.71.53-7,.92c-4.67.73-9.31,1.68-13.91,2.82s-9.14,2.47-13.63,4l-3.35,1.18q-1.68.57-3.33,1.23l-3.31,1.28-3.27,1.39A144.14,144.14,0,0,0,80.64,30.25,123.2,123.2,0,0,0,59.2,48.74,110.1,110.1,0,0,0,42.94,71.89a117.84,117.84,0,0,0-10,26.5l-.82,3.45-.41,1.73-.3,1.75-1.19,7A139.72,139.72,0,0,1,28,126.4,222.57,222.57,0,0,1,9.49,180.18v0l0,0A46.74,46.74,0,0,0,1.24,198a29.39,29.39,0,0,0-.48,9.76,26.65,26.65,0,0,0,3,9.29,28.51,28.51,0,0,0,6.1,7.64,39.67,39.67,0,0,0,8.13,5.5,61.37,61.37,0,0,0,9.11,3.78,96,96,0,0,0,9.56,2.51l.16,0,0,.16,4.27,44.84,2.14,22.42,1.06,11.21a29.21,29.21,0,0,0,.85,5.53,16.78,16.78,0,0,0,2.44,5,17.07,17.07,0,0,0,8.89,6.42,19,19,0,0,0,5.52.75l5.63.07,22.52.26,45,.53h.08l0,.08-11.95,30.06-6,15a8.24,8.24,0,0,0,.79,7.72A8.29,8.29,0,0,0,124.91,390.22Zm0,0a8.32,8.32,0,0,1-6.86-3.65,8.54,8.54,0,0,1-1.36-3.77,8.41,8.41,0,0,1,.56-4l6-15,11.89-30.08,0,.08-45-.45-22.52-.22L62,333.06a19.63,19.63,0,0,1-5.6-.74,17.32,17.32,0,0,1-9-6.52,16.87,16.87,0,0,1-2.49-5.07,29.45,29.45,0,0,1-.87-5.58l-1.09-11.21L40.7,281.53l-4.36-44.84.18.2c-3.24-.69-6.45-1.49-9.61-2.5a63.44,63.44,0,0,1-9.19-3.79A39.65,39.65,0,0,1,9.48,225a28.7,28.7,0,0,1-6.23-7.76,27,27,0,0,1-3-9.47,29.71,29.71,0,0,1,.47-10,47.62,47.62,0,0,1,8.29-18l0,0a222.6,222.6,0,0,0,18.4-53.66,140.79,140.79,0,0,0,2.18-14l1.18-7,.3-1.76.41-1.74.82-3.47a118.87,118.87,0,0,1,10-26.69A110.84,110.84,0,0,1,58.57,48.16,123.74,123.74,0,0,1,80.13,29.5a145.31,145.31,0,0,1,25-13.73l3.28-1.4,3.33-1.29c1.11-.45,2.22-.86,3.35-1.25l3.36-1.18q6.78-2.25,13.71-4t14-2.86c2.35-.4,4.73-.63,7.07-1s4.72-.58,7.08-.83C169.76,1,179.24.29,188.76.06c2.39,0,4.73-.09,7.16,0a8.72,8.72,0,0,1,6.48,3.5A8.81,8.81,0,0,1,204,10.72a9,9,0,0,1-4.45,5.87,9,9,0,0,1-3.62,1c-1.26.05-2.39,0-3.59,0q-3.56,0-7.1.15c-4.74.18-9.47.48-14.19.87s-9.44.88-14.15,1.44l-3.53.45c-1.21.11-2.36.24-3.54.39-2.34.3-4.67.7-7,1.12a151.67,151.67,0,0,0-27.23,7.86c-4.42,1.71-8.7,3.73-12.92,5.86-2.06,1.16-4.19,2.21-6.19,3.47l-3,1.84-3,2A102.73,102.73,0,0,0,69.39,61.87a96.37,96.37,0,0,0-14.92,24,107.1,107.1,0,0,0-7.59,27.25,198.88,198.88,0,0,1-5.26,28,234.19,234.19,0,0,1-8.8,27.11c-.9,2.2-1.77,4.41-2.7,6.6l-2.88,6.52-3.09,6.42a9.66,9.66,0,0,1-.9,1.59c-.37.51-.72.94-1.05,1.43-.67,1-1.29,2-1.87,3a29,29,0,0,0-2.72,6.48,13,13,0,0,0-.16,6.88,9.26,9.26,0,0,0,1.49,3.1,14.38,14.38,0,0,0,2.42,2.51,26.83,26.83,0,0,0,6,3.62,47.64,47.64,0,0,0,6.66,2.4c2.27.66,4.58,1.2,6.9,1.65,1.16.23,2.33.43,3.5.61.58.1,1.17.19,1.77.32a8.64,8.64,0,0,1,1.72.63,8.52,8.52,0,0,1,4.48,5.51,29.36,29.36,0,0,1,.45,3.56l.33,3.54.68,7.09,1.35,14.18,5.41,56.7.17,1.77.08.89a2.84,2.84,0,0,0,.13.8c.13.21.34.22.67.21h.89l1.78,0,7.12.09,14.23.17,28.48.33,14.24.17,7.12.08,3.56.05a14.54,14.54,0,0,1,3.53.57,14.23,14.23,0,0,1,9.84,16.81,22.09,22.09,0,0,1-1.16,3.38l-1.31,3.3L139.48,367.7l-5.25,13.24-1.32,3.3a9.63,9.63,0,0,1-1.72,3.1A8.31,8.31,0,0,1,124.91,390.22Z"/></g></svg>