<svg xmlns="http://www.w3.org/2000/svg" viewBox="0 0 507.95 612.01"><defs><style>.cls-1{isolation:isolate;}.cls-2{fill:#aacbdc;mix-blend-mode:multiply;}.cls-15,.cls-3,.cls-9{fill:none;stroke-miterlimit:10;}.cls-3{stroke:#fff;stroke-width:0.88px;}.cls-4{fill:#ac6345;}.cls-5{fill:#89472f;}.cls-6{fill:#d7d4d6;}.cls-7{fill:#045568;}.cls-8{fill:#c8e7f4;}.cls-9{stroke:#5c5c5c;stroke-width:1.29px;}.cls-10{fill:#a6d6ca;}.cls-11{fill:#17243a;}.cls-12{fill:#223152;}.cls-13{fill:#e4dce1;}.cls-14{fill:#e5e1e4;}.cls-15{stroke:#213a54;stroke-width:0.91px;}.cls-16{fill:#213a54;}.cls-17{fill:#ebb92b;}.cls-18,.cls-20{fill:#fff;}.cls-19,.cls-23{opacity:0.8;}.cls-20{font-size:32.97px;font-family:Montserrat-ExtraLight, Montserrat;font-weight:200;letter-spacing:-0.02em;}.cls-21{letter-spacing:-0.14em;}.cls-22{font-family:Montserrat-Bold, Montserrat;font-weight:700;}.cls-23{fill:#bceaed;}.cls-24{fill:#003844;}.cls-25{fill:#032328;}.cls-26{fill:#03292d;}</style></defs><title>insumos</title><g class="cls-1"><g id="Capa_1" data-name="Capa 1"><rect class="cls-2" x="-20.57" y="-19.44" width="541.92" height="474.93"/><path class="cls-3" d="M219.6,371.69s28.69,30.21,61.58,42.89,72.76,16.7,72.76,16.7"/><path class="cls-3" d="M-6.86,102.25s39.53-14.31,95.22,9.59,81.43,94.42,100.84,171.28,82.05,133.68,211.53,131"/><path class="cls-4" d="M362.64,200.28c0-1.44.74-2.54-1.73-5.43a23.64,23.64,0,0,0-4.26-4.08c-.32-.25-1.14-.87-1.5-.62s-.56.4-.07,1.4a16.08,16.08,0,0,0,1.91,2.8c.42.58.54.66.51.79s0,.29-.4.29a15.84,15.84,0,0,1-3.5-1.77,14.12,14.12,0,0,1-2.93-2.6c-1-1.14-.47-.51-1.38-1.5-.71-.78-1.43-1.4-2.1-.89a1.42,1.42,0,0,0-.34,1.81c-.36-.65-1.36-1.76-2.1-1.16-.57.47-.65,1-.14,1.79a6.93,6.93,0,0,0,.43.62c-.36-.44-.64-.6-1.07-.27s-.16,1.38-.05,1.62a7.38,7.38,0,0,0,.89,1.58s-.5-.64-.9-.37-.38.91,0,1.45a26.61,26.61,0,0,0,2,2.84,15.84,15.84,0,0,0,2.81,2.8c2.9,2.16,5.93,4.28,9.49,3.82A4.62,4.62,0,0,0,362.64,200.28Zm-13.79.17,0,0S348.85,200.47,348.85,200.45Z"/><path class="cls-5" d="M351.71,195.77l0,0a19.33,19.33,0,0,1-5.18-5.28.23.23,0,0,1,.1-.3.23.23,0,0,1,.31.1,19.28,19.28,0,0,0,5,5.12.22.22,0,0,1,0,.31A.22.22,0,0,1,351.71,195.77Z"/><path class="cls-5" d="M350.78,198.44l0,0c-2.84-2-5.92-6.23-6.05-6.42a.22.22,0,1,1,.36-.26c0,.05,3.17,4.38,5.94,6.31a.22.22,0,0,1,.06.31A.23.23,0,0,1,350.78,198.44Z"/><path class="cls-5" d="M350.23,200.61l0,0c-2.63-1.5-5.54-5.63-5.67-5.78a.22.22,0,1,1,.34-.28s3,4.21,5.55,5.68a.23.23,0,0,1,.08.3A.21.21,0,0,1,350.23,200.61Z"/><path class="cls-6" d="M397,218.36c7.49,10.63,2.15,15.49,2.15,15.49-5.85,4.21-38.12-25.14-40.07-28.82-1.77-3.34,2.67-8.2,5.2-6.82C378.78,206.16,393.62,213.59,397,218.36Z"/><path class="cls-7" d="M216.33,187.71v0a8.53,8.53,0,0,1-12.76,5.19c-11.37-7-25.34-8.77-33.49,3.23A23.08,23.08,0,0,0,177,228.7c6,3.69,11.52,3.52,16.89,1.71a64.19,64.19,0,0,0,10.06-4.72,11,11,0,0,1,3.29-1.15,8.52,8.52,0,0,1,9.14,6.38v0l0,30.1h0l0,20h0v1.4h-.24l-52.54,0h0a8.37,8.37,0,0,0-4.45,12.06c5.42,9.37,10.06,18.58,1,29.46a22.88,22.88,0,0,1-27.36,5.91c-15.9-7.59-14.45-22.83-6.76-35.05a8.36,8.36,0,0,0-4.39-12.35h0l-32.07,0a.08.08,0,0,1-.07-.05,105.67,105.67,0,0,1-7.45-32.22c-1.11-27.52,4.29-50.29,17-68.91,26.13-38.2,62.73-55.62,105.29-58.88a99.86,99.86,0,0,1,11.85-.2.07.07,0,0,1,.07.07l0,34.62Z"/><path class="cls-8" d="M356.91,281.13l0,0H311.73a8.53,8.53,0,0,1-6.41-8.09,8.36,8.36,0,0,1,1.25-5.33c3.43-5.51,5.63-11.62,5.6-17.39a18.75,18.75,0,0,0-8.87-15.44,23.54,23.54,0,0,0-32.94,7,18.21,18.21,0,0,0-3,10c.27,5.54,3.06,10.81,6.09,16.13a8.33,8.33,0,0,1,1.12,4.25,8.52,8.52,0,0,1-6.24,8.88H216.44V280h-.23v1.42H163.4a8.51,8.51,0,0,0-4.46,12.2c5.42,9.49,10.05,18.81,1,29.82a22.69,22.69,0,0,1-27.36,6c-15.9-7.7-14.44-23.12-6.74-35.48a8.51,8.51,0,0,0-4.38-12.51h-32a.07.07,0,0,0-.07.1,120.9,120.9,0,0,0,19.1,32.3c5.55,6.75,39.45,55,11,114.79-3.51,7.37-7.2,12.12.41,12.53,9,.49,64.57.05,99.24.13l1.29.11c8.83,0,12.32-.5,17.65-.26,6.37.28,9.45-1.93,10.67-9,1.5-8.67,4.13-17.1,5.14-25.92.69-6,3.67-9.34,9.07-10.68,8.31-2.05,16.32.77,24.44,1.56,12.13,1.17,24.23,4.23,36.39.69,11.64-3.38,15-9.37,12.6-22.26-.9-4.78-2-9.53-2.69-14.34-.83-5.51-.16-10.44,4.24-14.28,3.14-2.74,4.45-6.41.8-10.17-2.48-2.55-.61-3.57,1.16-4.92,6.57-5,6.59-5.31,2.31-12.39-3.8-6.29-3.47-9.29,1.51-14.37,3.26-3.33,7.19-5.53,10.91-8.1C360.63,292.76,361.28,287.84,356.91,281.13Z"/><path class="cls-9" d="M215.25,123.18l-.23-.76a.08.08,0,0,0-.07-.08,100.14,100.14,0,0,0-11.74.16C161,125.63,124.72,143,98.71,181.19c-12.68,18.62-18.11,41.43-17.1,69a107.19,107.19,0,0,0,7.27,32.33.08.08,0,0,0,.07,0M215,440.58a.07.07,0,0,0,.07.08c8.75,0,16.29.14,21.56.38,6.31.28,9.37-1.91,10.58-8.91,1.48-8.6,4.08-16.94,5.08-25.68.69-6,3.64-9.26,9-10.58,8.24-2,16.16.76,24.22,1.54,12,1.16,24,4.19,36,.69,11.54-3.36,14.89-9.28,12.48-22.06-.89-4.73-1.94-9.44-2.66-14.2-.82-5.46-.16-10.35,4.21-14.15,3.11-2.72,4.4-6.35.79-10.07-2.46-2.53-.61-3.54,1.14-4.87,6.51-5,6.54-5.27,2.3-12.28-3.77-6.23-3.45-9.2,1.48-14.24,3.23-3.3,7.13-5.48,10.82-8,6-4.1,6.6-9,2.27-15.63h0c-.26-.39-.52-.77-.8-1.14a54.15,54.15,0,0,0-7.13-7.54c-14-13.05-23.53-28.58-22.74-49.91,1.4-38-15.2-64-45-80.86-4.25-2.41-8.54-4.75-12.9-6.89-16.21-7.94-33.09-13.17-50.45-14M89.45,282.69a.07.07,0,0,0-.07.1,119.61,119.61,0,0,0,18.92,32c5.5,6.68,39.08,54.45,10.89,113.72-3.48,7.3-7.13,12,.4,12.42,9.26.5,61.15-.53,95.13-.41a.07.07,0,0,0,.07-.08"/><path class="cls-10" d="M216.54,133.05c12.52-7.57,24.42-.05,31.75,11.17a8.5,8.5,0,0,0,13.79.61,9.13,9.13,0,0,0,1-1.68l27-58.2a.08.08,0,0,1,.1,0C305.8,93,319,105,330.49,119.14c3.09,3.82,6,7.78,8.89,11.79,20.14,28.16,24.31,59,6.86,93.18-9.79,19.19-7.69,37.45-.39,55.36a55.28,55.28,0,0,1,3.33,9.94c.09.45.17.92.24,1.39L336.87,285l-28.39-13.18h0a8.53,8.53,0,0,1-2.4-10,8.31,8.31,0,0,1,3.11-3.66c5.65-3.7,10.35-8.55,12.67-14.06s2.25-11.51-1.54-17.73a23.54,23.54,0,0,0-32.82-7.55,18.27,18.27,0,0,0-6.9,7.84c-2.39,5.28-2.08,11.48-1.54,17.84a8.43,8.43,0,0,1-.5,3.68,8.52,8.52,0,0,1-9.4,5.42h0L222,231.66l.49-1,20.53-44.23a8.41,8.41,0,0,0,.61-1.9,8.49,8.49,0,0,0-9-10.15,58.79,58.79,0,0,1-11.14.19c-5.64-.6-10.71-2.78-14.57-8.7A23.54,23.54,0,0,1,216.54,133.05Z"/><path class="cls-11" d="M429.75,431.08s3,8.8,4.07,13.66c0,0-.13,2.88-.26,3.8a25.86,25.86,0,0,1-18.92.27s-3.8-2.63-5.51-11.69c0,0-.26-7.22,10.77-7.22Z"/><path class="cls-11" d="M370.38,431.08s3,8.8,4.08,13.66c0,0-.14,2.88-.27,3.8a25.84,25.84,0,0,1-18.91.27s-3.81-2.63-5.51-11.69c0,0-.27-7.22,10.76-7.22Z"/><path class="cls-12" d="M372.88,282.58s-7.17,51.33-11.74,75.26c-2.63,13.73-4.58,74.74-4.58,74.74l14.84,1.63,13.42-67,9.36-45.51L398,322s2.47,30.66,5,47.19c2,13,11.84,65,11.84,65l15.33-2.29-3.3-65.22-6.48-80.46-40.92-6.95Z"/><path class="cls-4" d="M396.25,188.65s-2,6.79-2.26,8c-.5,2.68-.29,5.11,5.75,6.75s9.88.46,10.76-2.55c.69-2.33,1.39-10.31,1.38-13.33Z"/><path class="cls-5" d="M420.58,177.08a3.3,3.3,0,0,1,3.06,3.94c-.45,3.71-3.21,2.49-4.06,2.62S419.93,180,420.58,177.08Z"/><path class="cls-5" d="M411.41,194.92s-6.67,3.1-17,.16l.6-2,16.69-2.72Z"/><path class="cls-4" d="M392,172.51a44.81,44.81,0,0,0-1.55,8.05,18.6,18.6,0,0,0,3.08,12.16c1.08,1.64,8.33.24,8.06-.35-.73-1.57-4.75-4.75-6.22-9.62S392.79,175,392,172.51Z"/><path class="cls-12" d="M411.42,144.84c-4.69-1.12-10-.57-13.74,2-4.19,2.93-6.17,10.23-6.45,12.73-1.23,11,1,12,.72,12.92-.52,1.87,3.85,18.8,10.27,21.8a9,9,0,0,0,8-.21c3.29-1.67,7.7-4.24,14.37-18.44a45,45,0,0,0,3.24-14.22C428.33,155.33,428.26,148.86,411.42,144.84Z"/><path class="cls-5" d="M393,173.93a3.29,3.29,0,0,0-3.81,3.21c-.33,3.72,2.62,3.11,3.42,3.42S393,176.91,393,173.93Z"/><path class="cls-6" d="M403.4,209.49c13.67-8.91,24.6-4.41,24.6-4.41C428.12,216,396.66,241.69,392,244c-4.27,2.06-8.07-1.49-8.24-5.11C383.24,228.83,397.27,213.49,403.4,209.49Z"/><path class="cls-13" d="M406.94,197.74c-15.8-1.79-19.51-.66-26.9,1-1.27.3-3.24,4.78-3.8,8.2-.71,4.34-.82,6.87-1.15,15.56-.77,20.33-7,79.66-7.18,89.24,0,0,14.87,10.36,55.32,1.33,0,0,.15-37.32,2.47-66.23.19-2.35,2.17-17.07,3.48-28.51,1.24-10.9-2.21-16.91-5.27-17.87C420.66,199.49,415.83,198.75,406.94,197.74Z"/><path class="cls-14" d="M396,230.31c3-16.05-3.1-26-3.1-26-8.87-1.73-25.21,43.59-25.5,48.82-.27,4.73,4.48,6.86,7.88,5.63C384.75,255.35,394.69,237.51,396,230.31Z"/><path class="cls-4" d="M343.05,227.8c.08-1.44.82-2.51-1.56-5.48a24,24,0,0,0-4.11-4.22c-.32-.26-1.12-.9-1.48-.67s-.58.39-.12,1.4a16,16,0,0,0,1.82,2.86c.39.6.51.68.48.81s0,.28-.41.27a15.64,15.64,0,0,1-3.44-1.88,14,14,0,0,1-2.84-2.7c-1-1.17-.46-.52-1.34-1.54-.68-.8-1.38-1.44-2.06-1a1.41,1.41,0,0,0-.41,1.79c-.34-.66-1.3-1.81-2.06-1.23a1.19,1.19,0,0,0-.2,1.78l.41.65c-.34-.46-.62-.62-1.06-.32s-.2,1.38-.1,1.63a8.09,8.09,0,0,0,.84,1.6s-.48-.66-.89-.4-.41.9-.08,1.45a29.94,29.94,0,0,0,1.94,2.91,15.83,15.83,0,0,0,2.72,2.88c2.83,2.26,5.79,4.48,9.37,4.13A4.62,4.62,0,0,0,343.05,227.8Zm-13.79-.28,0,0S329.26,227.54,329.26,227.52Z"/><path class="cls-5" d="M332.27,222.93l0,0a19.25,19.25,0,0,1-5-5.45.23.23,0,1,1,.41-.19,19.48,19.48,0,0,0,4.86,5.28.23.23,0,0,1,0,.31A.22.22,0,0,1,332.27,222.93Z"/><path class="cls-5" d="M331.26,225.57a.09.09,0,0,1-.05,0c-2.78-2.06-5.72-6.42-5.84-6.61a.22.22,0,0,1,.06-.31.21.21,0,0,1,.3.07s3,4.47,5.74,6.5a.22.22,0,0,1-.21.38Z"/><path class="cls-5" d="M330.64,227.73l0,0c-2.57-1.59-5.35-5.81-5.47-6a.23.23,0,0,1,0-.32.23.23,0,0,1,.31,0s2.85,4.31,5.35,5.86a.22.22,0,0,1,.08.31A.22.22,0,0,1,330.64,227.73Z"/><path class="cls-14" d="M366.8,258.1c12.38,4,15.25-4.76,15.25-4.76,2.27-6.83-35.14-25.77-39.25-26.54-3.71-.7-7.05,4.17-4.11,7.18C345.71,241.16,361.24,256.31,366.8,258.1Z"/><line class="cls-15" x1="96.86" y1="425.6" x2="-20.57" y2="425.6"/><line class="cls-15" x1="68.25" y1="438.93" x2="-18.57" y2="438.93"/><rect class="cls-16" x="-21.57" y="455.94" width="542.92" height="169.65"/><rect class="cls-17" x="92.22" y="49.27" width="51.75" height="12.39" transform="translate(173.55 -62.62) rotate(90)"/><path class="cls-18" d="M293.31,537.87h-3.9a5.53,5.53,0,0,1,0-11.06h11.68a2.59,2.59,0,0,0,0-5.17h-17a5.51,5.51,0,0,1-5.5-5.5v-.06a5.51,5.51,0,0,1,5.5-5.5h17a2.57,2.57,0,1,0,0-5.14h-8.44a5.09,5.09,0,0,1-5.17-5.08v-7.72a1.47,1.47,0,1,1,2.93,0v7.72a2.15,2.15,0,0,0,.64,1.53,2.09,2.09,0,0,0,1.55.62h8.49a5.5,5.5,0,0,1,0,11h-17a2.58,2.58,0,0,0-2.57,2.57v.06a2.58,2.58,0,0,0,2.57,2.57h17a5.52,5.52,0,0,1,0,11H289.41a2.6,2.6,0,0,0,0,5.19h3.9a1.47,1.47,0,0,1,0,2.94Z"/><path class="cls-18" d="M312.55,560.19a1.47,1.47,0,0,1-1.36-.92l-3.4-8.58a2.51,2.51,0,0,1,2.3-3.44l13.72-.15a.11.11,0,0,0,.11-.1l1.49-15.42a1.46,1.46,0,0,1,1.24-1.31c2.76-.41,4.53-1.25,5-2.37.54-1.39-.9-3.25-.92-3.26a1.67,1.67,0,0,1-.18-.28,39.18,39.18,0,0,1-4-13.1c-2.09-15.13-18.23-16.64-18.92-16.7h-.08a57.39,57.39,0,0,0-7.41-.52h0a1.47,1.47,0,0,1,0-2.93,64.17,64.17,0,0,1,7.82.54c1.14.12,19.22,2.2,21.54,19.27V511a37.11,37.11,0,0,0,3.66,11.94c.5.66,2.31,3.35,1.28,6-.77,2-2.82,3.33-6.13,4l-1.37,14.32a3,3,0,0,1-3,2.74l-13.1.14,3.17,8a1.46,1.46,0,0,1-1.36,2Z"/><g class="cls-19"><path class="cls-18" d="M284.84,498.6a1.45,1.45,0,0,1-1.08-2.44l4.05-4.5a1.46,1.46,0,1,1,2.17,2l-4.05,4.5A1.47,1.47,0,0,1,284.84,498.6Z"/></g><g class="cls-19"><path class="cls-18" d="M293,498.62a1.47,1.47,0,0,1-1.09-.48l-4.05-4.5a1.46,1.46,0,1,1,2.17-2l4,4.49a1.46,1.46,0,0,1-.1,2.07A1.43,1.43,0,0,1,293,498.62Z"/></g><text class="cls-20" transform="translate(342.44 536.02)">Ruta<tspan class="cls-21" x="73.25" y="0"> </tspan><tspan class="cls-22" x="78.53" y="0">TIC</tspan></text><circle class="cls-23" cx="214.42" cy="525.7" r="21.84"/><path class="cls-23" d="M231.79,512.46c7.31,9.6-27.43,36.06-34.74,26.47a21.84,21.84,0,0,1,34.74-26.47Z"/><path class="cls-24" d="M211.2,537.38h4.17V526.93h2.92l.31-3.5h-3.23v-2c0-.83.17-1.15,1-1.15h2.26v-3.64h-2.89c-3.11,0-4.51,1.37-4.51,4v2.79H209V527h2.17Z"/><circle class="cls-23" cx="161.48" cy="526.12" r="21.84"/><path class="cls-23" d="M178.85,512.89c7.3,9.6-27.44,36.06-34.74,26.46a21.83,21.83,0,0,1,34.74-26.46Z"/><path class="cls-24" d="M158.78,518.28c2.42,0,8.09,0,9,.06a4.76,4.76,0,0,1,1.68.31,2.71,2.71,0,0,1,1,.67,2.76,2.76,0,0,1,.68,1,5.13,5.13,0,0,1,.31,1.68c0,1,.05,1.24.05,3.66s0,2.7-.05,3.65a5.13,5.13,0,0,1-.31,1.68,2.76,2.76,0,0,1-.68,1,2.73,2.73,0,0,1-1,.68,5,5,0,0,1-1.68.31c-.95,0-6.62.05-9,.05s-2.7,0-3.65-.05a5.13,5.13,0,0,1-1.68-.31,3,3,0,0,1-1.72-1.72,5.13,5.13,0,0,1-.31-1.68c0-1,0-1.24,0-3.65s0-2.7,0-3.66a5.13,5.13,0,0,1,.31-1.68,3,3,0,0,1,1.72-1.71,4.88,4.88,0,0,1,1.68-.31c1-.05,1.24-.06,3.65-.06m0-1.63c-2.45,0-2.76,0-3.73.06a6.34,6.34,0,0,0-2.19.42,4.37,4.37,0,0,0-1.6,1,4.49,4.49,0,0,0-1,1.6,7,7,0,0,0-.42,2.2c0,1,0,1.27,0,3.73s0,2.76,0,3.72a6.91,6.91,0,0,0,.42,2.2,4.49,4.49,0,0,0,1,1.6,4.37,4.37,0,0,0,1.6,1,6.34,6.34,0,0,0,2.19.42c1,.05,1.28.06,3.73.06s8.15,0,9.12-.06a6.34,6.34,0,0,0,2.19-.42,4.58,4.58,0,0,0,2.65-2.64,6.91,6.91,0,0,0,.42-2.2c0-1,.05-1.27.05-3.72s0-2.77-.05-3.73a7,7,0,0,0-.42-2.2,4.58,4.58,0,0,0-2.65-2.64,6.34,6.34,0,0,0-2.19-.42c-1-.05-6.66-.06-9.12-.06"/><polygon class="cls-24" points="159.51 521.14 159.51 529.35 166.32 525.24 159.51 521.14"/><circle class="cls-23" cx="106.85" cy="526.12" r="21.84"/><path class="cls-23" d="M124.22,512.89c7.31,9.6-27.43,36.06-34.74,26.46a21.83,21.83,0,0,1,34.74-26.46Z"/><polygon class="cls-25" points="117 522.35 99.58 533.11 100.38 526.82 117 522.35"/><polygon class="cls-26" points="117 522.35 99.58 533.11 101.77 528.63 117 522.35"/><polygon class="cls-24" points="106.81 535.22 95.97 521.95 119.44 519.47 106.81 535.22"/><polygon class="cls-25" points="118.71 519.88 100.29 527.25 101.63 528.88 118.71 519.88"/><circle class="cls-23" cx="52.02" cy="525.23" r="21.89"/><path class="cls-23" d="M69.44,512c7.32,9.62-27.51,36.15-34.84,26.53A21.9,21.9,0,0,1,69.44,512Z"/><path class="cls-24" d="M63.36,519.22a9.48,9.48,0,0,1-2.34.66c.38-.06.91-.73,1.13-1a4.24,4.24,0,0,0,.76-1.4s0-.09,0-.12a.13.13,0,0,0-.12,0,11.67,11.67,0,0,1-2.74,1,.18.18,0,0,1-.19,0,2.89,2.89,0,0,0-.24-.25,4.89,4.89,0,0,0-1.33-.81,4.55,4.55,0,0,0-2-.33,4.85,4.85,0,0,0-1.94.54,5.07,5.07,0,0,0-1.56,1.28,4.8,4.8,0,0,0-.93,1.86,5.23,5.23,0,0,0,0,2c0,.11,0,.13-.09.11A14.65,14.65,0,0,1,42.26,518c-.11-.13-.17-.13-.26,0a4.78,4.78,0,0,0,.81,5.64c.19.17.38.35.58.51a5,5,0,0,1-1.81-.51c-.11-.07-.17,0-.18.09a3.32,3.32,0,0,0,0,.54,4.8,4.8,0,0,0,3,3.85,3.22,3.22,0,0,0,.6.19,5.18,5.18,0,0,1-1.78.05c-.13,0-.18,0-.13.17a5,5,0,0,0,3.74,3.14,4.43,4.43,0,0,1,.51.06l0,0c-.42.65-1.87,1.12-2.55,1.36a9.19,9.19,0,0,1-3.89.5c-.21,0-.25,0-.31,0s0,.08.06.14l.81.48a12.72,12.72,0,0,0,2.6,1,13.86,13.86,0,0,0,13.43-3.14c2.75-2.74,3.71-6.51,3.71-10.28,0-.15.18-.23.28-.31a9.1,9.1,0,0,0,1.87-1.9.73.73,0,0,0,.16-.37v0C63.49,519.16,63.45,519.18,63.36,519.22Z"/></g></g></svg>