<svg id="Capa_1" data-name="Capa 1" xmlns="http://www.w3.org/2000/svg" xmlns:xlink="http://www.w3.org/1999/xlink" viewBox="0 0 293.54 269.75"><defs><style>.cls-1,.cls-13,.cls-29{fill:none;}.cls-2{clip-path:url(#clip-path);}.cls-3{fill:#a7a6a6;}.cls-4{fill:#03a8be;}.cls-5{fill:#f0f0f1;}.cls-6{fill:#dadadd;}.cls-7{fill:#b6b6bc;}.cls-8{fill:#022733;}.cls-9{fill:#fdfdfd;}.cls-10{fill:#053e4e;}.cls-11{fill:#1dcad3;}.cls-12{fill:#acabb0;}.cls-13{stroke:#939195;stroke-linecap:round;stroke-linejoin:round;stroke-width:1.56px;}.cls-14{fill:#939195;}.cls-15{fill:#f0a301;}.cls-16{fill:#839794;}.cls-17{fill:#17243a;}.cls-18{fill:#223152;}.cls-19{fill:#ac6345;}.cls-20{fill:#89472f;}.cls-21{fill:#e4dce1;}.cls-22{fill:#a7d3c6;}.cls-23{fill:#386773;}.cls-24{fill:#3eb2d1;}.cls-25{fill:#fff;}.cls-26{fill:#d4d6d9;}.cls-27{fill:#c2c3c8;}.cls-28{fill:#f8f7f8;}.cls-29{stroke:#6e6e6e;stroke-miterlimit:10;stroke-width:0.43px;}.cls-30{fill:#6e6e6e;}</style><clipPath id="clip-path"><rect class="cls-1" x="423.3" y="-73.97" width="175.12" height="522.72"/></clipPath></defs><title>insumos</title><g class="cls-2"><path class="cls-3" d="M426.74,438.6l42.47,0a58.87,58.87,0,0,0,57.66-52.13,60.55,60.55,0,0,0-1.34-21.08A59.83,59.83,0,0,0,517,346.07a59,59,0,0,0-34-23.91,58,58,0,0,0-10.46-1.67c-3.53-.24-7.08-.14-10.62-.16H345.12c-.88,0-1.77,0-2.66-.05a19.73,19.73,0,0,1-2.65-.22,27,27,0,0,1-5.17-1.2A27.84,27.84,0,0,1,330,268.37a27.16,27.16,0,0,1,10-3.32,44.92,44.92,0,0,1,5.31-.23h69l84.95,0h21.24c3.54,0,7.08.1,10.6-.26a59.35,59.35,0,0,0,10.4-1.93,58,58,0,0,0,18.93-9.26A59.22,59.22,0,0,0,574.92,238a57.82,57.82,0,0,0,8.13-19.44,58.76,58.76,0,0,0,1.3-10.49,60.24,60.24,0,0,0-.49-10.57,58.59,58.59,0,0,0-6.53-20,59.56,59.56,0,0,0-13.21-16.41A58.74,58.74,0,0,0,546,150.32a59.43,59.43,0,0,0-20.75-3.63H482.78l-84.95,0H343.41l-1.34-.07-1.33-.07c-.44,0-.88-.12-1.32-.18l-1.33-.21c-.44-.06-.86-.21-1.3-.31a19.26,19.26,0,0,1-2.56-.76,27.71,27.71,0,0,1,6.49-53.69l2.67-.14h71.68l21.23,0a54,54,0,0,0,48.91-34.49,55,55,0,0,0,3.66-20.69V-43.52a23.2,23.2,0,0,0-.37-5.22,15.5,15.5,0,0,0-5.39-8.69,15.56,15.56,0,0,0-9.65-3.41,15.64,15.64,0,0,0-9.65,3.41,15.57,15.57,0,0,0-5.4,8.7,23.8,23.8,0,0,0-.36,5.22V36.13a23.79,23.79,0,0,1-2,10.45,23.39,23.39,0,0,1-6.42,8.49,23.07,23.07,0,0,1-9.46,4.85,19.56,19.56,0,0,1-5.33.54c-1.77-.05-3.53-.05-5.31-.05H344.58a58.62,58.62,0,0,0-35.91,105.83A58.66,58.66,0,0,0,338,177.42c3.51.37,7.05.24,10.59.27H433.5l85,0h5.31a45.18,45.18,0,0,1,5.32.23,27.46,27.46,0,0,1,10.08,3.3,27.83,27.83,0,0,1,13,16.26,28.76,28.76,0,0,1,1.05,10.56,27.63,27.63,0,0,1-18.38,24,18.69,18.69,0,0,1-2.55.76,18.09,18.09,0,0,1-2.62.51c-.44.06-.88.15-1.32.19l-1.33.07-1.33.06H450l-85,0H343.85a59,59,0,0,0-34.94,106.66,57.66,57.66,0,0,0,19,9.18,59.45,59.45,0,0,0,10.42,1.87c3.52.33,7.07.21,10.61.23H468.39l2.65.13c.88.1,1.75.26,2.63.38s1.72.43,2.58.64a27.66,27.66,0,0,1,16.19,13,27.23,27.23,0,0,1,3.28,10,29,29,0,0,1-.68,10.54,27.87,27.87,0,0,1-12.16,16.78,27.19,27.19,0,0,1-9.87,3.75c-3.5.6-7.06.36-10.59.41H430.56c-1.77,0-3.54-.06-5.31.08a15.84,15.84,0,0,0-5.09,1.38,15.68,15.68,0,0,0-8.74,17.58,15.71,15.71,0,0,0,15.32,12.32Zm0,0A15.67,15.67,0,0,1,412.69,416a15.62,15.62,0,0,1,7.46-7.27,16.16,16.16,0,0,1,5.1-1.38c1.77-.14,3.54-.06,5.31-.08h31.86c3.53,0,7.09.2,10.59-.41a27,27,0,0,0,9.84-3.75A27.73,27.73,0,0,0,495,386.29a29.34,29.34,0,0,0,.68-10.52,27.27,27.27,0,0,0-3.28-10,27.63,27.63,0,0,0-16.16-12.92c-.86-.21-1.71-.48-2.57-.64s-1.75-.28-2.63-.38l-2.64-.13H348.93c-3.54,0-7.09.1-10.62-.24a59.76,59.76,0,0,1-10.45-1.86,57.94,57.94,0,0,1-19-9.2A59.16,59.16,0,0,1,323,237.1a59.94,59.94,0,0,1,20.83-3.66h21.24l85,0H525.7l1.32-.07,1.32-.07c.43,0,.87-.12,1.3-.18a17.44,17.44,0,0,0,2.59-.51,20.38,20.38,0,0,0,2.53-.75,27.38,27.38,0,0,0,18.18-23.78,28.16,28.16,0,0,0-1.05-10.45A27.51,27.51,0,0,0,539,181.52a27.1,27.1,0,0,0-10-3.26,42.23,42.23,0,0,0-5.28-.22H433.5l-84.95,0c-3.53,0-7.08.1-10.62-.26a59.88,59.88,0,0,1-10.46-1.95,58.41,58.41,0,0,1-19-9.31A59.08,59.08,0,0,1,344.58,59.93h84.95c3.54-.12,7.11.43,10.51-.48a23.3,23.3,0,0,0,15.53-13.06,23.3,23.3,0,0,0,1.92-10.24V-43.51a24,24,0,0,1,.37-5.34,16.13,16.13,0,0,1,5.59-9,16.15,16.15,0,0,1,10-3.53,16.11,16.11,0,0,1,10,3.52,16.08,16.08,0,0,1,5.59,9,24.06,24.06,0,0,1,.38,5.34V36.12a54.62,54.62,0,0,1-32.4,51,54.75,54.75,0,0,1-20.67,4.68H415.07l-42.48,0h-29.2l-2.63.13a27,27,0,0,0-10,3,27.27,27.27,0,0,0,3.63,49.84,18.29,18.29,0,0,0,2.52.76c.43.1.85.24,1.28.3l1.3.2c.44.06.87.15,1.31.19l1.31.07,1.32.06H525.25A60.15,60.15,0,0,1,546.12,150a59,59,0,0,1,18.2,10.82,59.72,59.72,0,0,1,13.28,16.5,58.72,58.72,0,0,1,6.55,20.13,62.06,62.06,0,0,1-.82,21.17,58.1,58.1,0,0,1-8.17,19.52,59.65,59.65,0,0,1-14.53,15.4,58.36,58.36,0,0,1-19,9.29,59.75,59.75,0,0,1-10.45,1.94c-3.53.36-7.09.23-10.62.26H499.3l-84.95,0h-69a44.23,44.23,0,0,0-5.28.23,27,27,0,0,0-10,3.29A27.59,27.59,0,0,0,339.83,320a21.19,21.19,0,0,0,2.64.21c.88.07,1.77,0,2.65,0h10.62l84.95,0h21.23c3.54,0,7.09-.07,10.62.17A58.07,58.07,0,0,1,483,322.07a59.11,59.11,0,0,1,34,24,60,60,0,0,1,8.58,19.32,60.62,60.62,0,0,1,1.33,21.09,58.91,58.91,0,0,1-57.71,52.15Z"/></g><path class="cls-4" d="M202.94,64.77v-46H191.89a2,2,0,0,1-2-2V6.44H155.4V64.77h47.54Z"/><polygon class="cls-4" points="191.89 16.74 191.89 7.75 201.43 16.74 191.89 16.74 191.89 16.74"/><path class="cls-5" d="M220.43,85.64v-46H209.38a2,2,0,0,1-2-2V27.31h-34.5V85.64h47.54Z"/><polygon class="cls-6" points="209.38 37.62 209.38 28.62 218.92 37.62 209.38 37.62 209.38 37.62"/><rect class="cls-7" x="180.62" y="46.02" width="32.07" height="0.99"/><rect class="cls-7" x="180.62" y="51.98" width="32.07" height="0.99"/><rect class="cls-7" x="180.62" y="58.47" width="32.07" height="0.99"/><rect class="cls-7" x="180.62" y="64.44" width="32.07" height="0.99"/><rect class="cls-7" x="180.62" y="70.4" width="32.07" height="0.99"/><rect class="cls-7" x="180.62" y="76.37" width="32.07" height="0.99"/><rect class="cls-8" x="59.21" y="46.04" width="122.13" height="192.6" rx="7.85"/><rect class="cls-9" x="67.88" y="55.36" width="104.84" height="156.28"/><circle class="cls-10" cx="120.3" cy="225.72" r="10.36"/><path class="cls-11" d="M82.66,131.29s-.47,8,2.83,13.86,9,12.26,10.19,14.72,1.69,11.32,1.69,11.32-1.32,9.05,7.46,9.71,10.18.66,10.18.66V152.79a3,3,0,0,0-3.06-3.07c-3.19-.18-4.35-3.12-4.18-5.31s1.88-4,5-4.07,2.51-3.39,2.51-3.39l-.07-5.63-6.3,0s-2.37-.46-2.65-2.3-.6-4.71-4.49-4.88-4.74,3.67-4.81,4.77-.71,2.3-2.83,2.41S82.66,131.29,82.66,131.29Z"/><path class="cls-12" d="M102.73,180.54v14s-.73,6.79,6.53,6.79h13.11s5.66-1.51,5.57-7,0-13.76,0-13.76Z"/><path class="cls-13" d="M127.18,180.54a69.25,69.25,0,0,1-15.75,3.57c-8.66,1-9.62.51-9.62.51"/><path class="cls-13" d="M101.81,189.72s11.69,0,19.18-1.78a32.57,32.57,0,0,0,8.08-2.89"/><path class="cls-13" d="M101.69,194.67s13.89.29,20.94-1.83c5.17-1.55,6.32-2.45,6.32-2.45"/><path class="cls-14" d="M108.78,201.27s1.61,2.84,2.37,2.93,7.64,0,7.64,0a2,2,0,0,0,1.4-.88c.74-.88,1.75-2,1.75-2Z"/><path class="cls-15" d="M115.58,181.56l9-27s.94-3-1.65-4-3.82-3-3.16-5.27,2.36-4.52,5.75-3.53,4.2-2.93,4.2-2.93l1.18-4.48,6.46,1.46s2,.43,1.51,3.92,1,5,2.83,5.56,4.71-.14,5.7-1.87,1.59-3.68,5-2.44,9.59,3.18,9.59,3.18-1.24,7.57-5.84,12.17-11.74,6.3-15.24,11.25c-2.42,3.44-4.92,9.55-6.48,12.31s-4,5.87-10,4.31A80.92,80.92,0,0,1,115.58,181.56Z"/><path class="cls-16" d="M111.28,62.53s-11.5.23-19.81,6.16A34.6,34.6,0,0,0,78,87.78a48.87,48.87,0,0,0-1.34,10.3L89,98s2.74,0,2.87-2.39,1.32-5.2,4.82-5.38,5,2.08,5.22,4.66a3.2,3.2,0,0,0,2.55,3l7.16-.08-.07-6.78s0-2.81,2.17-2.91,5.76-1.18,5.72-5.06c0-3.18-1.75-4.33-5.29-5-2.93-.59-2.81-4.17-2.81-4.17Z"/><path class="cls-17" d="M27.12,250.78s-2.21,6.44-3,10c0,0,.1,2.12.19,2.79a19,19,0,0,0,13.86.19s2.78-1.92,4-8.56c0,0,.2-5.29-7.89-5.29Z"/><path class="cls-17" d="M70.61,250.78s-2.21,6.44-3,10c0,0,.1,2.12.2,2.79a18.93,18.93,0,0,0,13.85.19s2.79-1.92,4-8.56c0,0,.2-5.29-7.88-5.29Z"/><path class="cls-18" d="M68.78,142s5.25,37.61,8.6,55.14c1.92,10.05,3.35,54.75,3.35,54.75l-10.87,1.19L60,204l-6.85-33.34-2.81.24s-1.81,22.46-3.63,34.57c-1.44,9.55-8.68,47.63-8.68,47.63L26.84,251.4l2.41-47.78L34,144.68l30-5.09Z"/><path class="cls-19" d="M50,72.47s1.71,4.9,1.92,5.8c.46,1.94.37,3.73-4,5.12s-7.22.66-8-1.51a57.3,57.3,0,0,1-1.44-9.71Z"/><path class="cls-20" d="M31.8,64.79a2.41,2.41,0,0,0-2.11,3c.45,2.69,2.43,1.71,3.06,1.78S32.37,66.89,31.8,64.79Z"/><path class="cls-20" d="M39.09,77.55s5,2,12.46-.44l-.5-1.44-12.3-1.45Z"/><path class="cls-19" d="M52.61,60.51A33.69,33.69,0,0,1,54,66.35a13.69,13.69,0,0,1-1.87,9c-.73,1.23-6.08.45-5.9,0,.48-1.18,3.31-3.64,4.23-7.25S52.08,62.38,52.61,60.51Z"/><path class="cls-18" d="M37.46,40.89c3.4-1,7.32-.74,10.12,1,3.17,2,4.85,7.28,5.13,9.11,1.26,8-.31,8.85-.1,9.47.44,1.35-2.21,13.88-6.81,16.29a6.63,6.63,0,0,1-5.84.11c-2.46-1.12-5.77-2.86-11.12-13A32.94,32.94,0,0,1,26,53.57C25.43,49.12,25.27,44.38,37.46,40.89Z"/><path class="cls-20" d="M51.89,61.58a2.41,2.41,0,0,1,2.89,2.23c.36,2.72-1.82,2.36-2.39,2.61S52,63.77,51.89,61.58Z"/><path class="cls-21" d="M62.06,98.08c-2.26-10.81,2-17.17,2-17.17,6.39-.77,18.57,30.1,18.83,33.6.22,3.16-3.19,4.38-5.66,3.41C70.41,115.23,63.08,102.93,62.06,98.08Z"/><path class="cls-21" d="M30.2,98.53c4.84-9.8.3-16.4.3-16.4C22.56,83.2,7.71,106.3,6.61,109.59c-1,3,2,5.07,4.66,4.8C18.59,113.63,28,102.92,30.2,98.53Z"/><path class="cls-21" d="M18.16,110.1c-8.57-3.73-11.45.24-11.45.24-2.36,4.23,22.66,22,25.55,22.93,2.63.79,5.62-2.6,4.32-4.09C29.12,120.61,22,111.77,18.16,110.1Z"/><path class="cls-21" d="M43.83,79.77c11.57-1.17,14.29-.43,19.71.69.93.2,2.37,3.14,2.78,5.38.52,2.86.6,4.52.84,10.22.57,13.35,5.12,52.3,5.26,58.59,0,0-10.89,6.8-40.52.87,0,0-.11-24.5-1.81-43.48-.14-1.54-1.59-11.2-2.55-18.71-.91-7.16,1.62-11.11,3.86-11.74S37.32,80.43,43.83,79.77Z"/><path class="cls-19" d="M103.62,100.17c2.61-.31,4.38-2.36,6-4.42a11.31,11.31,0,0,0,1.49-2.49,20.3,20.3,0,0,0,.93-2.39c.15-.44,0-.9-.28-1s-.57.42-.57.42a5.91,5.91,0,0,0,.35-1.27c0-.2,0-1-.33-1.15s-.54,0-.71.39c0,0,0-.09.19-.52.22-.63.07-1-.42-1.25s-1.14.68-1.28,1.21a1,1,0,0,0-.57-1.23c-.57-.24-1,.33-1.33,1-.47.87-.19.32-.71,1.31a10.14,10.14,0,0,1-1.61,2.38A11.8,11.8,0,0,1,102.65,93c-.28.07-.3,0-.34-.12s0-.17.22-.66a11.55,11.55,0,0,0,.85-2.33c.17-.8,0-.88-.3-1s-.77.47-1,.71a16.94,16.94,0,0,0-2.29,3.66c-1.23,2.5-.54,3.15-.25,4.17A3.38,3.38,0,0,0,103.62,100.17Zm5.78-5v0S109.41,95.14,109.4,95.13Z"/><path class="cls-20" d="M106.54,92.3l0,0a14,14,0,0,0,2.72-4.69.16.16,0,0,0-.12-.19.16.16,0,0,0-.2.12,14.33,14.33,0,0,1-2.65,4.55.16.16,0,0,0,0,.22A.17.17,0,0,0,106.54,92.3Z"/><path class="cls-20" d="M107.68,94l0,0a24.09,24.09,0,0,0,3.14-5.65.18.18,0,0,0-.09-.22.17.17,0,0,0-.21.1,24.1,24.1,0,0,1-3.09,5.55.16.16,0,0,0,0,.23A.15.15,0,0,0,107.68,94Z"/><path class="cls-20" d="M108.46,95.48l0,0c1.59-1.54,2.92-5,3-5.13a.15.15,0,0,0-.07-.21.16.16,0,0,0-.22.07s-1.37,3.54-2.91,5a.16.16,0,0,0,0,.23A.17.17,0,0,0,108.46,95.48Z"/><path class="cls-21" d="M84,118.46c-8.42,2.73-11.08-3.24-11.08-3.24-2.1-4.66,22.84-17.62,25.67-18.15,2.56-.48,5.27,2.85,3.42,4.91C97.62,106.89,87.8,117.24,84,118.46Z"/><path class="cls-22" d="M143.55,102.11s13.19,4.37,18,17.19.46,22.6.46,22.6l-10.48-4.08a2.06,2.06,0,0,0-2.86,1.23c-.76,1.83-2.66,4.27-5.86,3.16-2.53-.87-3.13-2.57-2.58-5.6s-.69-3.41-2.08-3.77-5-1.48-5-1.48l1.87-6.27s.58-1.8,3.25-1,5.09.23,5.87-2.8,0-4.41-2.9-5.81c-2.16-1,.15-6.72.15-6.72Z"/><path class="cls-23" d="M278.05,110c0-.72,0-1.42-.1-2.12l4.71-1.23-2.11-8.07-4.8,1.26a23.8,23.8,0,0,0-3.9-5.75l3.08-4L268.33,85l-3.12,4a23.18,23.18,0,0,0-6.5-2.19V81.68h-8.34v5.14a22.92,22.92,0,0,0-6.2,2l-3.07-4.09-6.67,5,3,4a23.68,23.68,0,0,0-3.05,4l-4.69-1.72-2.88,7.83,4.6,1.69A23.11,23.11,0,0,0,231,110c0,.51,0,1,.05,1.53l-4.66,1.22,2.11,8.07,4.56-1.2a23.48,23.48,0,0,0,3.89,6l-2.84,3.67,6.6,5.09,2.8-3.62a23,23,0,0,0,6.83,2.36v4.55h8.34v-4.55a23,23,0,0,0,6.52-2.2l2.74,3.66,6.68-5-2.78-3.71a23.29,23.29,0,0,0,3.08-4.22l4.4,1.62,2.88-7.83-4.49-1.65A23.86,23.86,0,0,0,278.05,110Zm-23.51,15.71a16,16,0,1,1,16-16A16,16,0,0,1,254.54,125.67Z"/><rect class="cls-24" x="168.32" y="157.36" width="97.29" height="71.99"/><rect class="cls-25" x="171.48" y="159.91" width="45.16" height="66.68"/><rect class="cls-26" x="216.64" y="159.91" width="45.16" height="66.68"/><polygon class="cls-27" points="246.82 159.91 254.54 226.59 216.64 226.59 216.72 168.34 246.82 159.91"/><polygon class="cls-28" points="216.64 159.91 246.82 140.75 246.82 210.11 216.64 226.59 216.64 159.91"/><rect class="cls-29" x="176.13" y="168.38" width="5.07" height="5.07" transform="translate(1.83 -1.89) rotate(0.61)"/><rect class="cls-29" x="176.01" y="180.29" width="5.07" height="5.07" transform="matrix(1, 0.01, -0.01, 1, 1.95, -1.89)"/><rect class="cls-29" x="175.89" y="190.96" width="5.07" height="5.07" transform="translate(2.07 -1.88) rotate(0.61)"/><rect class="cls-29" x="175.78" y="201.91" width="5.07" height="5.07" transform="translate(2.18 -1.88) rotate(0.61)"/><rect class="cls-30" x="186.16" y="168.6" width="27.86" height="0.58" transform="translate(1.81 -2.12) rotate(0.61)"/><rect class="cls-30" x="186.14" y="170.46" width="27.86" height="0.58" transform="translate(1.83 -2.12) rotate(0.61)"/><rect class="cls-30" x="186.12" y="172.25" width="13.16" height="0.58" transform="matrix(1, 0.01, -0.01, 1, 1.84, -2.04)"/><rect class="cls-30" x="185.81" y="180.52" width="27.86" height="0.58" transform="matrix(1, 0.01, -0.01, 1, 1.93, -2.11)"/><rect class="cls-30" x="185.79" y="182.38" width="27.86" height="0.58" transform="matrix(1, 0.01, -0.01, 1, 1.95, -2.11)"/><rect class="cls-30" x="185.77" y="184.2" width="21.7" height="0.58" transform="translate(1.97 -2.08) rotate(0.61)"/><rect class="cls-30" x="185.41" y="191.19" width="27.86" height="0.58" transform="translate(2.05 -2.11) rotate(0.61)"/><rect class="cls-30" x="185.39" y="193.05" width="27.86" height="0.58" transform="translate(2.07 -2.11) rotate(0.61)"/><rect class="cls-30" x="185.37" y="194.79" width="6.25" height="0.58" transform="translate(2.08 -1.99) rotate(0.61)"/><rect class="cls-30" x="184.95" y="202.13" width="27.86" height="0.58" transform="matrix(1, 0.01, -0.01, 1, 2.16, -2.1)"/><rect class="cls-30" x="184.93" y="203.99" width="27.86" height="0.58" transform="translate(2.18 -2.1) rotate(0.61)"/><rect class="cls-30" x="184.91" y="205.74" width="6.25" height="0.58" transform="translate(2.2 -1.99) rotate(0.61)"/><rect class="cls-29" x="175.66" y="212.57" width="5.07" height="5.07" transform="translate(2.3 -1.88) rotate(0.61)"/><rect class="cls-30" x="184.83" y="212.79" width="27.86" height="0.58" transform="translate(2.27 -2.1) rotate(0.61)"/><rect class="cls-30" x="184.81" y="214.65" width="27.86" height="0.58" transform="translate(2.29 -2.1) rotate(0.61)"/><rect class="cls-30" x="184.79" y="216.39" width="6.25" height="0.58" transform="translate(2.31 -1.98) rotate(0.61)"/></svg>